  0
SECTION
  2
HEADER
  9
$ACADVER
  1
AC1027
  9
$ACADMAINTVER
 70
    55
  9
$DWGCODEPAGE
  3
ANSI_936
  9
$REQUIREDVERSIONS
160
                 0
  9
$INSBASE
 10
0.0
 20
0.0
 30
0.0
  9
$EXTMIN
 10
-868015.573766211
 20
-843534.3122209067
 30
-1819.977217543447
  9
$EXTMAX
 10
842476.3641334108
 20
281404.6884255665
 30
399.342798426206
  9
$LIMMIN
 10
0.0
 20
0.0
  9
$LIMMAX
 10
50000.0
 20
32000.0
  9
$ORTHOMODE
 70
     0
  9
$REGENMODE
 70
     1
  9
$FILLMODE
 70
     1
  9
$QTEXTMODE
 70
     0
  9
$MIRRTEXT
 70
     0
  9
$LTSCALE
 40
1000.0
  9
$ATTMODE
 70
     1
  9
$TEXTSIZE
 40
400.0
  9
$TRACEWID
 40
0.05
  9
$TEXTSTYLE
  7
SZUL_HZ
  9
$CLAYER
  8
0
  9
$CELTYPE
  6
ByLayer
  9
$CECOLOR
 62
     1
  9
$CELTSCALE
 40
1.0
  9
$DISPSILH
 70
     0
  9
$DIMSCALE
 40
100.0
  9
$DIMASZ
 40
1.0
  9
$DIMEXO
 40
3.0
  9
$DIMDLI
 40
0.0
  9
$DIMRND
 40
0.0
  9
$DIMDLE
 40
0.0
  9
$DIMEXE
 40
2.5
  9
$DIMTP
 40
0.0
  9
$DIMTM
 40
0.0
  9
$DIMTXT
 40
3.5
  9
$DIMCEN
 40
0.09
  9
$DIMTSZ
 40
0.0
  9
$DIMTOL
 70
     0
  9
$DIMLIM
 70
     0
  9
$DIMTIH
 70
     0
  9
$DIMTOH
 70
     0
  9
$DIMSE1
 70
     0
  9
$DIMSE2
 70
     0
  9
$DIMTAD
 70
     1
  9
$DIMZIN
 70
     0
  9
$DIMBLK
  1
ArchTick
  9
$DIMASO
 70
     1
  9
$DIMSHO
 70
     1
  9
$DIMPOST
  1

  9
$DIMAPOST
  1

  9
$DIMALT
 70
     0
  9
$DIMALTD
 70
     2
  9
$DIMALTF
 40
25.4
  9
$DIMLFAC
 40
1.0
  9
$DIMTOFL
 70
     1
  9
$DIMTVP
 40
0.0
  9
$DIMTIX
 70
     1
  9
$DIMSOXD
 70
     0
  9
$DIMSAH
 70
     0
  9
$DIMBLK1
  1

  9
$DIMBLK2
  1

  9
$DIMSTYLE
  2
STANDARD
  9
$DIMCLRD
 70
     0
  9
$DIMCLRE
 70
     0
  9
$DIMCLRT
 70
     0
  9
$DIMTFAC
 40
1.0
  9
$DIMGAP
 40
1.5
  9
$DIMJUST
 70
     0
  9
$DIMSD1
 70
     0
  9
$DIMSD2
 70
     0
  9
$DIMTOLJ
 70
     1
  9
$DIMTZIN
 70
     0
  9
$DIMALTZ
 70
     0
  9
$DIMALTTZ
 70
     0
  9
$DIMUPT
 70
     0
  9
$DIMDEC
 70
     0
  9
$DIMTDEC
 70
     0
  9
$DIMALTU
 70
     2
  9
$DIMALTTD
 70
     2
  9
$DIMTXSTY
  7
SZUL_DIM
  9
$DIMAUNIT
 70
     0
  9
$DIMADEC
 70
     0
  9
$DIMALTRND
 40
0.0
  9
$DIMAZIN
 70
     0
  9
$DIMDSEP
 70
    46
  9
$DIMATFIT
 70
     3
  9
$DIMFRAC
 70
     0
  9
$DIMLDRBLK
  1

  9
$DIMLUNIT
 70
     2
  9
$DIMLWD
 70
    -2
  9
$DIMLWE
 70
    -2
  9
$DIMTMOVE
 70
     2
  9
$DIMFXL
 40
500.0
  9
$DIMFXLON
 70
     0
  9
$DIMJOGANG
 40
0.7853981633974483
  9
$DIMTFILL
 70
     0
  9
$DIMTFILLCLR
 70
     0
  9
$DIMARCSYM
 70
     1
  9
$DIMLTYPE
  6

  9
$DIMLTEX1
  6

  9
$DIMLTEX2
  6

  9
$DIMTXTDIRECTION
 70
     0
  9
$LUNITS
 70
     2
  9
$LUPREC
 70
     4
  9
$SKETCHINC
 40
0.1
  9
$FILLETRAD
 40
0.0
  9
$AUNITS
 70
     0
  9
$AUPREC
 70
     0
  9
$MENU
  1
.
  9
$ELEVATION
 40
0.0
  9
$PELEVATION
 40
0.0
  9
$THICKNESS
 40
0.0
  9
$LIMCHECK
 70
     0
  9
$CHAMFERA
 40
0.0
  9
$CHAMFERB
 40
0.0
  9
$CHAMFERC
 40
0.0
  9
$CHAMFERD
 40
0.0
  9
$SKPOLY
 70
     0
  9
$TDCREATE
 40
2456002.362623322
  9
$TDUCREATE
 40
2456002.029289988
  9
$TDUPDATE
 40
2459753.632173507
  9
$TDUUPDATE
 40
2459753.298840174
  9
$TDINDWG
 40
2202.2923032060
  9
$TDUSRTIMER
 40
2202.2923023843
  9
$USRTIMER
 70
     1
  9
$ANGBASE
 50
0.0
  9
$ANGDIR
 70
     0
  9
$PDMODE
 70
     0
  9
$PDSIZE
 40
0.0
  9
$PLINEWID
 40
0.0
  9
$SPLFRAME
 70
     0
  9
$SPLINETYPE
 70
     6
  9
$SPLINESEGS
 70
     8
  9
$HANDSEED
  5
17A
  9
$SURFTAB1
 70
     6
  9
$SURFTAB2
 70
     6
  9
$SURFTYPE
 70
     6
  9
$SURFU
 70
     6
  9
$SURFV
 70
     6
  9
$UCSBASE
  2

  9
$UCSNAME
  2

  9
$UCSORG
 10
0.0
 20
0.0
 30
0.0
  9
$UCSXDIR
 10
1.0
 20
0.0
 30
0.0
  9
$UCSYDIR
 10
0.0
 20
1.0
 30
0.0
  9
$UCSORTHOREF
  2

  9
$UCSORTHOVIEW
 70
     0
  9
$UCSORGTOP
 10
0.0
 20
0.0
 30
0.0
  9
$UCSORGBOTTOM
 10
0.0
 20
0.0
 30
0.0
  9
$UCSORGLEFT
 10
0.0
 20
0.0
 30
0.0
  9
$UCSORGRIGHT
 10
0.0
 20
0.0
 30
0.0
  9
$UCSORGFRONT
 10
0.0
 20
0.0
 30
0.0
  9
$UCSORGBACK
 10
0.0
 20
0.0
 30
0.0
  9
$PUCSBASE
  2

  9
$PUCSNAME
  2

  9
$PUCSORG
 10
0.0
 20
0.0
 30
0.0
  9
$PUCSXDIR
 10
1.0
 20
0.0
 30
0.0
  9
$PUCSYDIR
 10
0.0
 20
1.0
 30
0.0
  9
$PUCSORTHOREF
  2

  9
$PUCSORTHOVIEW
 70
     0
  9
$PUCSORGTOP
 10
0.0
 20
0.0
 30
0.0
  9
$PUCSORGBOTTOM
 10
0.0
 20
0.0
 30
0.0
  9
$PUCSORGLEFT
 10
0.0
 20
0.0
 30
0.0
  9
$PUCSORGRIGHT
 10
0.0
 20
0.0
 30
0.0
  9
$PUCSORGFRONT
 10
0.0
 20
0.0
 30
0.0
  9
$PUCSORGBACK
 10
0.0
 20
0.0
 30
0.0
  9
$USERI1
 70
     0
  9
$USERI2
 70
     0
  9
$USERI3
 70
     0
  9
$USERI4
 70
     0
  9
$USERI5
 70
     0
  9
$USERR1
 40
0.0
  9
$USERR2
 40
0.0
  9
$USERR3
 40
0.0
  9
$USERR4
 40
0.0
  9
$USERR5
 40
0.0
  9
$WORLDVIEW
 70
     1
  9
$SHADEDGE
 70
     3
  9
$SHADEDIF
 70
    70
  9
$TILEMODE
 70
     1
  9
$MAXACTVP
 70
    64
  9
$PINSBASE
 10
0.0
 20
0.0
 30
0.0
  9
$PLIMCHECK
 70
     0
  9
$PEXTMIN
 10
0.0
 20
0.0
 30
0.0
  9
$PEXTMAX
 10
0.0
 20
0.0
 30
0.0
  9
$PLIMMIN
 10
0.0
 20
0.0
  9
$PLIMMAX
 10
12.0
 20
9.0
  9
$UNITMODE
 70
     0
  9
$VISRETAIN
 70
     1
  9
$PLINEGEN
 70
     0
  9
$PSLTSCALE
 70
     1
  9
$TREEDEPTH
 70
  3020
  9
$CMLSTYLE
  2
Standard
  9
$CMLJUST
 70
     0
  9
$CMLSCALE
 40
1.0
  9
$PROXYGRAPHICS
 70
     1
  9
$MEASUREMENT
 70
     0
  9
$CELWEIGHT
370
    -1
  9
$ENDCAPS
280
     0
  9
$JOINSTYLE
280
     0
  9
$LWDISPLAY
290
     0
  9
$INSUNITS
 70
     4
  9
$HYPERLINKBASE
  1

  9
$STYLESHEET
  1

  9
$XEDIT
290
     1
  9
$CEPSNTYPE
380
     0
  9
$PSTYLEMODE
290
     1
  9
$FINGERPRINTGUID
  2
{C384C59E-19AD-489F-8762-E486D0D0C81B}
  9
$VERSIONGUID
  2
{D9F0EF60-2A7D-416A-8DED-CCDB64C37AC9}
  9
$EXTNAMES
290
     1
  9
$PSVPSCALE
 40
0.0
  9
$OLESTARTUP
290
     0
  9
$SORTENTS
280
   127
  9
$INDEXCTL
280
     0
  9
$HIDETEXT
280
     1
  9
$XCLIPFRAME
280
     0
  9
$HALOGAP
280
     0
  9
$OBSCOLOR
 70
   257
  9
$OBSLTYPE
280
     0
  9
$INTERSECTIONDISPLAY
280
     0
  9
$INTERSECTIONCOLOR
 70
   257
  9
$DIMASSOC
280
     1
  9
$PROJECTNAME
  1

  9
$CAMERADISPLAY
290
     0
  9
$LENSLENGTH
 40
50.0
  9
$CAMERAHEIGHT
 40
0.0
  9
$STEPSPERSEC
 40
2.0
  9
$STEPSIZE
 40
6.0
  9
$3DDWFPREC
 40
2.0
  9
$PSOLWIDTH
 40
0.25
  9
$PSOLHEIGHT
 40
4.0
  9
$LOFTANG1
 40
1.570796326794896
  9
$LOFTANG2
 40
1.570796326794896
  9
$LOFTMAG1
 40
0.0
  9
$LOFTMAG2
 40
0.0
  9
$LOFTPARAM
 70
     7
  9
$LOFTNORMALS
280
     1
  9
$LATITUDE
 40
37.795
  9
$LONGITUDE
 40
-122.394
  9
$NORTHDIRECTION
 40
0.0
  9
$TIMEZONE
 70
 -8000
  9
$LIGHTGLYPHDISPLAY
280
     1
  9
$TILEMODELIGHTSYNCH
280
     1
  9
$CMATERIAL
347
3D
  9
$SOLIDHIST
280
     0
  9
$SHOWHIST
280
     1
  9
$DWFFRAME
280
     2
  9
$DGNFRAME
280
     0
  9
$REALWORLDSCALE
290
     1
  9
$INTERFERECOLOR
 62
     1
  9
$INTERFEREOBJVS
345
48
  9
$INTERFEREVPVS
346
49
  9
$CSHADOW
280
     0
  9
$SHADOWPLANELOCATION
 40
0.0
  0
ENDSEC
  0
SECTION
  2
CLASSES
  0
CLASS
  1
ACDBDICTIONARYWDFLT
  2
AcDbDictionaryWithDefault
  3
ObjectDBX Classes
 90
        0
 91
        1
280
     0
281
     0
  0
CLASS
  1
DICTIONARYVAR
  2
AcDbDictionaryVar
  3
ObjectDBX Classes
 90
        0
 91
        8
280
     0
281
     0
  0
CLASS
  1
TABLESTYLE
  2
AcDbTableStyle
  3
ObjectDBX Classes
 90
     4095
 91
        1
280
     0
281
     0
  0
CLASS
  1
MATERIAL
  2
AcDbMaterial
  3
ObjectDBX Classes
 90
     1153
 91
        3
280
     0
281
     0
  0
CLASS
  1
VISUALSTYLE
  2
AcDbVisualStyle
  3
ObjectDBX Classes
 90
     4095
 91
        3
280
     0
281
     0
  0
CLASS
  1
GROUND_PLANE_BACKGROUND
  2
AcDbGroundPlaneBackground
  3
SCENEOE
 90
     4095
 91
        0
280
     0
281
     0
  0
CLASS
  1
NPOCOLLECTION
  2
AcDbImpNonPersistentObjectsCollection
  3
ObjectDBX Classes
 90
     1153
 91
        0
280
     0
281
     0
  0
CLASS
  1
ACSH_CONE_CLASS
  2
AcDbShCone
  3
ObjectDBX Classes
 90
     1153
 91
        0
280
     0
281
     0
  0
CLASS
  1
ACAD_EVALUATION_GRAPH
  2
AcDbEvalGraph
  3
ObjectDBX Classes
 90
     1153
 91
        0
280
     0
281
     0
  0
CLASS
  1
ACSH_HISTORY_CLASS
  2
AcDbShHistory
  3
ObjectDBX Classes
 90
     1153
 91
        0
280
     0
281
     0
  0
CLASS
  1
SOLID_BACKGROUND
  2
AcDbSolidBackground
  3
SCENEOE
 90
     4095
 91
        0
280
     0
281
     0
  0
CLASS
  1
ACSH_BOX_CLASS
  2
AcDbShBox
  3
ObjectDBX Classes
 90
     1153
 91
        0
280
     0
281
     0
  0
CLASS
  1
SCALE
  2
AcDbScale
  3
ObjectDBX Classes
 90
     1153
 91
       34
280
     0
281
     0
  0
CLASS
  1
MLEADERSTYLE
  2
AcDbMLeaderStyle
  3
ACDB_MLEADERSTYLE_CLASS
 90
     4095
 91
        0
280
     0
281
     0
  0
CLASS
  1
WIPEOUTVARIABLES
  2
AcDbWipeoutVariables
  3
"WipeOut|Product Desc:     WipeOut Dbx Application|Company:          Autodesk, Inc.|WEB Address:      www.autodesk.com"
 90
        0
 91
        0
280
     0
281
     0
  0
CLASS
  1
CELLSTYLEMAP
  2
AcDbCellStyleMap
  3
ObjectDBX Classes
 90
     1152
 91
        1
280
     0
281
     0
  0
CLASS
  1
TCH_DBCONFIG
  2
TDbConfig
  3
"TCH_KERNAL|缺乏解释器天正图形看不见, 请下载天正插件|网址: www.tangent.com.cn"
 90
        1
 91
        0
280
     1
281
     0
  0
CLASS
  1
SORTENTSTABLE
  2
AcDbSortentsTable
  3
ObjectDBX Classes
 90
        0
 91
        2
280
     0
281
     0
  0
CLASS
  1
AEC_REFEDIT_STATUS_TRACKER
  2
AecDbRefEditStatusTracker
  3
AecArchBase70|Product Desc: Autodesk Architectural Desktop 2007 |Company: Autodesk,Inc. |WEB Address: www.autodesk.com
 90
      129
 91
        0
280
     0
281
     0
  0
CLASS
  1
BLOCKLINEARPARAMETER
  2
AcDbBlockLinearParameter
  3
ObjectDBX Classes
 90
     1153
 91
        0
280
     0
281
     0
  0
CLASS
  1
BLOCKLINEARGRIP
  2
AcDbBlockLinearGrip
  3
ObjectDBX Classes
 90
     1153
 91
        0
280
     0
281
     0
  0
CLASS
  1
BLOCKGRIPLOCATIONCOMPONENT
  2
AcDbBlockGripExpr
  3
ObjectDBX Classes
 90
     1153
 91
        0
280
     0
281
     0
  0
CLASS
  1
BLOCKSTRETCHACTION
  2
AcDbBlockStretchAction
  3
ObjectDBX Classes
 90
     1153
 91
        0
280
     0
281
     0
  0
CLASS
  1
ACDB_DYNAMICBLOCKPURGEPREVENTER_VERSION
  2
AcDbDynamicBlockPurgePreventer
  3
ObjectDBX Classes
 90
     1153
 91
        0
280
     0
281
     0
  0
CLASS
  1
ACDB_BLOCKREPRESENTATION_DATA
  2
AcDbBlockRepresentationData
  3
ObjectDBX Classes
 90
     1153
 91
        0
280
     0
281
     0
  0
CLASS
  1
TCH_TEXT
  2
TDbText
  3
"TCH_KERNAL|缺乏解释器天正图形看不见, 请下载天正插件|网址: www.tangent.com.cn"
 90
        1
 91
        0
280
     1
281
     1
  0
CLASS
  1
TCH_DRAWINGINDEX
  2
TDbSymbDrawingIndex
  3
"TCH_KERNAL|缺乏解释器天正图形看不见, 请下载天正插件|网址: www.tangent.com.cn"
 90
        1
 91
        0
280
     1
281
     1
  0
CLASS
  1
TCH_RUPTURE
  2
TDbSymbRupture
  3
"TCH_KERNAL|缺乏解释器天正图形看不见, 请下载天正插件|网址: www.tangent.com.cn"
 90
        1
 91
        0
280
     1
281
     1
  0
CLASS
  1
TCH_ELEVATION
  2
TDbSymbElevation
  3
"TCH_KERNAL|缺乏解释器天正图形看不见, 请下载天正插件|网址: www.tangent.com.cn"
 90
        1
 91
        0
280
     1
281
     1
  0
CLASS
  1
LARGE_RADIAL_DIMENSION
  2
AcDbRadialDimensionLarge
  3
ObjectDBX Classes
 90
     1025
 91
        0
280
     0
281
     1
  0
CLASS
  1
ARC_DIMENSION
  2
AcDbArcDimension
  3
ObjectDBX Classes
 90
     1025
 91
        0
280
     0
281
     1
  0
CLASS
  1
TCH_BLOCK_INSERT
  2
TDbBlockInsert
  3
"TCH_KERNAL|缺乏解释器天正图形看不见, 请下载天正插件|网址: www.tangent.com.cn"
 90
        1
 91
        0
280
     1
281
     1
  0
CLASS
  1
DIMASSOC
  2
AcDbDimAssoc
  3
"AcDbDimAssoc|Product Desc:     AcDim ARX App For Dimension|Company:          Autodesk, Inc.|WEB Address:      www.autodesk.com"
 90
        0
 91
        0
280
     0
281
     0
  0
CLASS
  1
TCH_MTEXT
  2
TDbMText
  3
"TCH_KERNAL|缺乏解释器天正图形看不见, 请下载天正插件|网址: www.tangent.com.cn"
 90
        1
 91
        0
280
     1
281
     1
  0
CLASS
  1
EXACXREFPANELOBJECT
  2
ExAcXREFPanelObject
  3
EXAC_ESW
 90
     1025
 91
        0
280
     1
281
     0
  0
CLASS
  1
TCH_PATH_ARRAY
  2
TDbPolyPathArray
  3
"TCH_KERNAL|缺乏解释器天正图形看不见, 请下载天正插件|网址: www.tangent.com.cn"
 90
        1
 91
        0
280
     1
281
     1
  0
CLASS
  1
VLO-VL
  2
vlo_VL
  3
VL|AutoLISP based application
 90
      129
 91
        0
280
     0
281
     0
  0
CLASS
  1
ACDBSECTIONVIEWSTYLE
  2
AcDbSectionViewStyle
  3
ObjectDBX Classes
 90
     1025
 91
        0
280
     0
281
     0
  0
CLASS
  1
ACDBDETAILVIEWSTYLE
  2
AcDbDetailViewStyle
  3
ObjectDBX Classes
 90
     1025
 91
        0
280
     0
281
     0
  0
CLASS
  1
TCH_DIMENSION2
  2
TDbDimension2
  3
"TCH_KERNAL|缺乏解释器天正图形看不见, 请下载天正插件|网址: www.tangent.com.cn"
 90
        1
 91
        0
280
     1
281
     1
  0
CLASS
  1
LSDEFINITION
  2
AcDbLSDefinition
  3
AcDgnLS
 90
        0
 91
        0
280
     0
281
     0
  0
CLASS
  1
LSINTERNALCOMPONENT
  2
AcDbLSInternalComponent
  3
AcDgnLS
 90
        0
 91
        0
280
     0
281
     0
  0
CLASS
  1
LSCOMPOUNDCOMPONENT
  2
AcDbLSCompoundComponent
  3
AcDgnLS
 90
        0
 91
        0
280
     0
281
     0
  0
CLASS
  1
LSPOINTCOMPONENT
  2
AcDbLSPointComponent
  3
AcDgnLS
 90
        0
 91
        0
280
     0
281
     0
  0
CLASS
  1
LSSTROKEPATTERNCOMPONENT
  2
AcDbLSStrokePatternComponent
  3
AcDgnLS
 90
        0
 91
        0
280
     0
281
     0
  0
CLASS
  1
LSSYMBOLCOMPONENT
  2
AcDbLSSymbolComponent
  3
AcDgnLS
 90
        0
 91
        0
280
     0
281
     0
  0
CLASS
  1
TCH_COORD
  2
TDbSymbCoord
  3
"TCH_KERNAL|缺乏解释器天正图形看不见, 请下载天正插件|网址: www.tangent.com.cn"
 90
        1
 91
        0
280
     1
281
     1
  0
CLASS
  1
EXACTERMXREFMAP
  2
ExAcTermXrefMap
  3
EXAC_SERVICE
 90
     1025
 91
        0
280
     1
281
     0
  0
CLASS
  1
TCH_DRAWINGNAME
  2
TDbDrawingName
  3
"TCH_KERNAL|缺乏解释器天正图形看不见, 请下载天正插件|网址: www.tangent.com.cn"
 90
        1
 91
        0
280
     1
281
     1
  0
CLASS
  1
TCH_AXIS_LABEL
  2
TDbAxisLabelSet
  3
"TCH_KERNAL|缺乏解释器天正图形看不见, 请下载天正插件|网址: www.tangent.com.cn"
 90
        1
 91
        0
280
     1
281
     1
  0
CLASS
  1
AEC_NOTIFICATION_TRACKER
  2
AecDbNotificationTracker
  3
AecBase70|Product Desc: Autodesk Architectural Desktop 2007 |Company: Autodesk,Inc. |WEB Address: www.autodesk.com
 90
      129
 91
        0
280
     0
281
     0
  0
CLASS
  1
TCH_WALL
  2
TDbWall
  3
"TCH_KERNAL|缺乏解释器天正图形看不见, 请下载天正插件|网址: www.tangent.com.cn"
 90
        1
 91
        0
280
     1
281
     1
  0
CLASS
  1
TCH_NORTHTHUMB
  2
TDbSymbNorthThumb
  3
"TCH_KERNAL|缺乏解释器天正图形看不见, 请下载天正插件|网址: www.tangent.com.cn"
 90
        1
 91
        0
280
     1
281
     1
  0
CLASS
  1
TCH_CURTAIN_WALL
  2
TDbCurtainWall
  3
"TCH_KERNAL|缺乏解释器天正图形看不见, 请下载天正插件|网址: www.tangent.com.cn"
 90
        1
 91
        0
280
     1
281
     1
  0
CLASS
  1
TCH_COMMON_OPENING
  2
TDbOpening
  3
"TCH_KERNAL|缺乏解释器天正图形看不见, 请下载天正插件|网址: www.tangent.com.cn"
 90
        1
 91
        0
280
     1
281
     1
  0
CLASS
  1
TCH_SPACE
  2
TDbSpace
  3
"TCH_KERNAL|缺乏解释器天正图形看不见, 请下载天正插件|网址: www.tangent.com.cn"
 90
        1
 91
        0
280
     1
281
     1
  0
CLASS
  1
TCH_ERRORMSG
  2
TDbPromptMark
  3
"TCH_KERNAL|缺乏解释器天正图形看不见, 请下载天正插件|网址: www.tangent.com.cn"
 90
        1
 91
        0
280
     1
281
     1
  0
CLASS
  1
TCH_ARROW
  2
TDbSymbArrow
  3
"TCH_KERNAL|缺乏解释器天正图形看不见, 请下载天正插件|网址: www.tangent.com.cn"
 90
        1
 91
        0
280
     1
281
     1
  0
CLASS
  1
TCH_LINESTAIR
  2
TDbLineStair
  3
"TCH_KERNAL|缺乏解释器天正图形看不见, 请下载天正插件|网址: www.tangent.com.cn"
 90
        1
 91
        0
280
     1
281
     1
  0
CLASS
  1
TCH_HANDRAIL
  2
TDbHandRail
  3
"TCH_KERNAL|缺乏解释器天正图形看不见, 请下载天正插件|网址: www.tangent.com.cn"
 90
        1
 91
        0
280
     1
281
     1
  0
CLASS
  1
TCH_RECTSTAIR
  2
TDbRectStair
  3
"TCH_KERNAL|缺乏解释器天正图形看不见, 请下载天正插件|网址: www.tangent.com.cn"
 90
        1
 91
        0
280
     1
281
     1
  0
CLASS
  1
TCH_COLUMN
  2
TDbColumn
  3
"TCH_KERNAL|缺乏解释器天正图形看不见, 请下载天正插件|网址: www.tangent.com.cn"
 90
        1
 91
        0
280
     1
281
     1
  0
CLASS
  1
SPATIAL_FILTER
  2
AcDbSpatialFilter
  3
ObjectDBX Classes
 90
        0
 91
        0
280
     0
281
     0
  0
CLASS
  1
WIPEOUT
  2
AcDbWipeout
  3
WipeOut|Product Desc: Object Enabler for WipeOut entity | Company: Autodesk, Inc. | WEB Address: www.autodesk.com
 90
     2175
 91
        0
280
     0
281
     1
  0
CLASS
  1
BLOCKPOINTPARAMETER
  2
AcDbBlockPointParameter
  3
ObjectDBX Classes
 90
     1153
 91
        0
280
     0
281
     0
  0
CLASS
  1
BLOCKXYGRIP
  2
AcDbBlockXYGrip
  3
ObjectDBX Classes
 90
     1153
 91
        0
280
     0
281
     0
  0
CLASS
  1
BLOCKMOVEACTION
  2
AcDbBlockMoveAction
  3
ObjectDBX Classes
 90
     1153
 91
        0
280
     0
281
     0
  0
CLASS
  1
BLOCKARRAYACTION
  2
AcDbBlockArrayAction
  3
ObjectDBX Classes
 90
     1153
 91
        0
280
     0
281
     0
  0
CLASS
  1
BLOCKALIGNMENTPARAMETER
  2
AcDbBlockAlignmentParameter
  3
ObjectDBX Classes
 90
     1153
 91
        0
280
     0
281
     0
  0
CLASS
  1
BLOCKALIGNMENTGRIP
  2
AcDbBlockAlignmentGrip
  3
ObjectDBX Classes
 90
     1153
 91
        0
280
     0
281
     0
  0
CLASS
  1
TCH_MULTILEADER
  2
TDbSymbMultiLeader
  3
"TCH_KERNAL|缺乏解释器天正图形看不见, 请下载天正插件|网址: www.tangent.com.cn"
 90
        1
 91
        0
280
     1
281
     1
  0
CLASS
  1
TCH_PIPE
  2
TDbPipe
  3
"TCH_PIPEWIRE|缺乏解释器天正图形看不见, 请下载天正插件|网址: www.tangent.com.cn"
 90
        1
 91
        0
280
     1
281
     1
  0
CLASS
  1
TCH_PIPEFITTING
  2
TDbPipeFitting
  3
"TCH_PIPEWIRE|缺乏解释器天正图形看不见, 请下载天正插件|网址: www.tangent.com.cn"
 90
        1
 91
        0
280
     1
281
     1
  0
CLASS
  1
TCH_PIPEVALVE
  2
TDbPipeValve
  3
"TCH_PIPEWIRE|缺乏解释器天正图形看不见, 请下载天正插件|网址: www.tangent.com.cn"
 90
        1
 91
        0
280
     1
281
     1
  0
CLASS
  1
TCH_EQUIPMENT
  2
TDbEquipment
  3
"TCH_PIPEWIRE|缺乏解释器天正图形看不见, 请下载天正插件|网址: www.tangent.com.cn"
 90
        1
 91
        0
280
     1
281
     1
  0
CLASS
  1
BLOCKROTATIONPARAMETER
  2
AcDbBlockRotationParameter
  3
ObjectDBX Classes
 90
     1153
 91
        0
280
     0
281
     0
  0
CLASS
  1
BLOCKROTATIONGRIP
  2
AcDbBlockRotationGrip
  3
ObjectDBX Classes
 90
     1153
 91
        0
280
     0
281
     0
  0
CLASS
  1
BLOCKROTATEACTION
  2
AcDbBlockRotateAction
  3
ObjectDBX Classes
 90
     1153
 91
        0
280
     0
281
     0
  0
CLASS
  1
TCH_SYMB_SECTION
  2
TDbSymbSection
  3
"TCH_KERNAL|缺乏解释器天正图形看不见, 请下载天正插件|网址: www.tangent.com.cn"
 90
        1
 91
        0
280
     1
281
     1
  0
CLASS
  1
TCH_SLAB
  2
TDbSlab
  3
"TCH_KERNAL|缺乏解释器天正图形看不见, 请下载天正插件|网址: www.tangent.com.cn"
 90
        1
 91
        0
280
     1
281
     1
  0
CLASS
  1
BLOCKBASEPOINTPARAMETER
  2
AcDbBlockBasepointParameter
  3
ObjectDBX Classes
 90
     1153
 91
        0
280
     0
281
     0
  0
CLASS
  1
BLOCKSCALEACTION
  2
AcDbBlockScaleAction
  3
ObjectDBX Classes
 90
     1153
 91
        0
280
     0
281
     0
  0
CLASS
  1
BLOCKVISIBILITYPARAMETER
  2
AcDbBlockVisibilityParameter
  3
ObjectDBX Classes
 90
     1153
 91
        0
280
     0
281
     0
  0
CLASS
  1
BLOCKVISIBILITYGRIP
  2
AcDbBlockVisibilityGrip
  3
ObjectDBX Classes
 90
     1153
 91
        0
280
     0
281
     0
  0
CLASS
  1
BLOCKXYPARAMETER
  2
AcDbBlockXYParameter
  3
ObjectDBX Classes
 90
     1153
 91
        0
280
     0
281
     0
  0
ENDSEC
  0
SECTION
  2
TABLES
  0
TABLE
  2
VPORT
  5
29
102
{ACAD_XDICTIONARY
360
2E
102
}
330
0
100
AcDbSymbolTable
 70
     1
  0
VPORT
  5
2A
330
29
100
AcDbSymbolTableRecord
100
AcDbViewportTableRecord
  2
*Active
 70
     0
 10
0.0
 20
0.0
 11
1.0
 21
1.0
 12
-178332.5823054892
 22
294265.3008503981
 13
0.0
 23
0.0
 14
0.5
 24
0.5
 15
0.5
 25
0.5
 16
0.0
 26
0.0
 36
46082.56229313183
 17
237171.3977697419
 27
-150783.3801618274
 37
-6.894340875746142
 40
299642.3717961517
 41
2.001620745542949
 42
50.0
 43
0.0
 44
0.0
 50
0.0
 51
0.0
 71
     0
 72
  1000
 73
     1
 74
     3
 75
     0
 76
     0
 77
     0
 78
     0
281
     0
 65
     1
110
0.0
120
0.0
130
0.0
111
1.0
121
0.0
131
0.0
112
0.0
122
1.0
132
0.0
 79
     0
146
0.0
348
2B
 60
     3
 61
     5
292
     1
282
     1
141
0.0
142
0.0
 63
   250
421
  3355443
1001
ACAD_NAV_VCDISPLAY
1070
     3
  0
ENDTAB
  0
TABLE
  2
LTYPE
  5
24
330
0
100
AcDbSymbolTable
 70
     3
  0
LTYPE
  5
25
330
24
100
AcDbSymbolTableRecord
100
AcDbLinetypeTableRecord
  2
ByBlock
 70
     0
  3

 72
    65
 73
     0
 40
0.0
  0
LTYPE
  5
26
330
24
100
AcDbSymbolTableRecord
100
AcDbLinetypeTableRecord
  2
ByLayer
 70
     0
  3

 72
    65
 73
     0
 40
0.0
  0
LTYPE
  5
E
330
24
100
AcDbSymbolTableRecord
100
AcDbLinetypeTableRecord
  2
Continuous
 70
     0
  3
Solid line
 72
    65
 73
     0
 40
0.0
  0
LTYPE
  5
15D
330
24
100
AcDbSymbolTableRecord
100
AcDbLinetypeTableRecord
  2
DASH
 70
     0
  3
__ __ __ __ __ __ __ __ __ __ __ __ __ __ __ __
 72
    65
 73
     2
 40
0.35
 49
0.25
 74
     0
 49
-0.1
 74
     0
  0
LTYPE
  5
70
330
24
100
AcDbSymbolTableRecord
100
AcDbLinetypeTableRecord
  2
AD-Draln-B1$0$AD-Draln-B1$0$BOUNDRY
 70
     0
  3
----- - - ------
 72
    65
 73
     6
 40
13.4
 49
10.0
 74
     0
 49
-1.0
 74
     0
 49
0.2
 74
     0
 49
-1.0
 74
     0
 49
0.2
 74
     0
 49
-1.0
 74
     0
  0
ENDTAB
  0
TABLE
  2
LAYER
  5
1B
102
{ACAD_XDICTIONARY
360
1C
102
}
330
0
100
AcDbSymbolTable
 70
     7
  0
LAYER
  5
6
102
{ACAD_XDICTIONARY
360
7
102
}
330
1B
100
AcDbSymbolTableRecord
100
AcDbLayerTableRecord
  2
0
 70
     0
 62
     7
  6
Continuous
370
    -3
390
9
347
C
348
0
1001
AcAecLayerStandard
1000

1000

1001
_LayerManage
1070
     0
1070
     0
1070
     0
1001
AcCmTransparency
1071
 33554687
  0
LAYER
  5
167
102
{ACAD_XDICTIONARY
360
168
102
}
330
1B
100
AcDbSymbolTableRecord
100
AcDbLayerTableRecord
  2
A-DXS-WALL
 70
     0
 62
    60
  6
Continuous
370
    -3
390
9
347
C
348
0
1001
AcAecLayerStandard
1000

1000
地下室砼外墙、人防砼墙
1001
_LayerManage
1070
     0
1070
     0
1070
     0
1001
AcCmTransparency
1071
 33554687
  0
LAYER
  5
78
102
{ACAD_XDICTIONARY
360
79
102
}
330
1B
100
AcDbSymbolTableRecord
100
AcDbLayerTableRecord
  2
S-TL-WALL-L
 70
     0
 62
    40
  6
Continuous
370
    30
390
9
347
C
348
0
1001
AcAecLayerStandard
1000

1000
塔楼结构墙、柱
1001
_LayerManage
1070
     0
1070
     0
1070
     0
1001
AcCmTransparency
1071
 33554687
  0
LAYER
  5
72
102
{ACAD_XDICTIONARY
360
73
102
}
330
1B
100
AcDbSymbolTableRecord
100
AcDbLayerTableRecord
  2
S-TL-WALL
 70
     0
 62
   251
  6
Continuous
370
    -3
390
9
347
C
348
0
1001
AcAecLayerStandard
1000

1000
塔楼结构墙、柱填充层
1001
_LayerManage
1070
     0
1070
     0
1070
     0
1001
AcCmTransparency
1071
 33554687
  0
LAYER
  5
15A
102
{ACAD_XDICTIONARY
360
15B
102
}
330
1B
100
AcDbSymbolTableRecord
100
AcDbLayerTableRecord
  2
LINE-TL
 70
     0
 62
     2
  6
DASH
370
    -3
390
9
347
C
348
0
1001
AcAecLayerStandard
1000

1000
图块剪切边界线
1001
_LayerManage
1070
     0
1070
     0
1070
     0
1001
AcCmTransparency
1071
 33554687
  0
LAYER
  5
6D
102
{ACAD_XDICTIONARY
360
6E
102
}
330
1B
100
AcDbSymbolTableRecord
100
AcDbLayerTableRecord
  2
LINE-RED
 70
     0
 62
     1
  6
AD-Draln-B1$0$AD-Draln-B1$0$BOUNDRY
370
    -3
390
9
347
C
348
0
1001
AcAecLayerStandard
1000

1000

1001
AcCmTransparency
1071
 33554687
  0
LAYER
  5
162
102
{ACAD_XDICTIONARY
360
163
102
}
330
1B
100
AcDbSymbolTableRecord
100
AcDbLayerTableRecord
  2
LINE-BLDG
 70
     0
 62
     1
  6
AD-Draln-B1$0$AD-Draln-B1$0$BOUNDRY
370
    -3
390
9
347
C
348
0
1001
AcAecLayerStandard
1000

1000

1001
RAK
1000
{ACET-LAYISO
1070
     0
1070
     3
1000
BOUNDRY
1071
       -3
1071
        1
1005
9
1000
ACET-LAYISO}
1001
_LayerManage
1070
     0
1070
     0
1070
     0
1001
AcCmTransparency
1071
 33554687
  0
ENDTAB
  0
TABLE
  2
STYLE
  5
21
330
0
100
AcDbSymbolTable
 70
     3
  0
STYLE
  5
22
330
21
100
AcDbSymbolTableRecord
100
AcDbTextStyleTableRecord
  2
Standard
 70
     0
 40
0.0
 41
1.0
 50
0.0
 71
     0
 42
350.0
  3
gbenor.shx
  4
gbcbig.shx
  0
STYLE
  5
43
330
21
100
AcDbSymbolTableRecord
100
AcDbTextStyleTableRecord
  2
SZUL_HZ
 70
     0
 40
0.0
 41
0.8
 50
0.0
 71
     0
 42
400.0
  3
xcsg.shx
  4
HZTXT.shx
1001
_TCH
1040
1.0
1040
1.0
1070
     0
  0
STYLE
  5
32
330
21
100
AcDbSymbolTableRecord
100
AcDbTextStyleTableRecord
  2
SZUL_DIM
 70
     0
 40
0.0
 41
0.7
 50
0.0
 71
     0
 42
350.0
  3
simplex.shx
  4
hztxt.shx
  0
ENDTAB
  0
TABLE
  2
VIEW
  5
27
330
0
100
AcDbSymbolTable
 70
     0
  0
ENDTAB
  0
TABLE
  2
UCS
  5
28
330
0
100
AcDbSymbolTable
 70
     0
  0
ENDTAB
  0
TABLE
  2
APPID
  5
2F
330
0
100
AcDbSymbolTable
 70
    12
  0
APPID
  5
20
330
2F
100
AcDbSymbolTableRecord
100
AcDbRegAppTableRecord
  2
ACAD
 70
     0
  0
APPID
  5
44
330
2F
100
AcDbSymbolTableRecord
100
AcDbRegAppTableRecord
  2
_TCH
 70
     0
  0
APPID
  5
16
330
2F
100
AcDbSymbolTableRecord
100
AcDbRegAppTableRecord
  2
ACAD_PSEXT
 70
     0
  0
APPID
  5
165
330
2F
100
AcDbSymbolTableRecord
100
AcDbRegAppTableRecord
  2
RAK
 70
     0
  0
APPID
  5
F
330
2F
100
AcDbSymbolTableRecord
100
AcDbRegAppTableRecord
  2
AcAecLayerStandard
 70
     0
  0
APPID
  5
37
330
2F
100
AcDbSymbolTableRecord
100
AcDbRegAppTableRecord
  2
ACAD_DSTYLE_DIMJAG
 70
     0
  0
APPID
  5
38
330
2F
100
AcDbSymbolTableRecord
100
AcDbRegAppTableRecord
  2
ACAD_DSTYLE_DIMTALN
 70
     0
  0
APPID
  5
10
330
2F
100
AcDbSymbolTableRecord
100
AcDbRegAppTableRecord
  2
_LayerManage
 70
     0
  0
APPID
  5
2D
330
2F
100
AcDbSymbolTableRecord
100
AcDbRegAppTableRecord
  2
ACAD_NAV_VCDISPLAY
 70
     0
  0
APPID
  5
75
330
2F
100
AcDbSymbolTableRecord
100
AcDbRegAppTableRecord
  2
GradientColor1ACI
 70
     0
  0
APPID
  5
76
330
2F
100
AcDbSymbolTableRecord
100
AcDbRegAppTableRecord
  2
GradientColor2ACI
 70
     0
  0
APPID
  5
11
330
2F
100
AcDbSymbolTableRecord
100
AcDbRegAppTableRecord
  2
AcCmTransparency
 70
     0
  0
ENDTAB
  0
TABLE
  2
DIMSTYLE
  5
30
330
0
100
AcDbSymbolTable
 70
     1
100
AcDbDimStyleTable
 71
     1
340
31
  0
DIMSTYLE
105
31
330
30
100
AcDbSymbolTableRecord
100
AcDbDimStyleTableRecord
  2
STANDARD
 70
     0
 40
100.0
 41
1.0
 42
3.0
 43
0.0
 44
2.5
 73
     0
 74
     0
 77
     1
140
3.5
147
1.5
172
     1
174
     1
271
     0
272
     0
279
     2
340
32
342
33
1001
ACAD_DSTYLE_DIMJAG
1070
   388
1040
1.5
1001
ACAD_DSTYLE_DIMTALN
1070
   392
1070
     0
  0
ENDTAB
  0
TABLE
  2
BLOCK_RECORD
  5
1
330
0
100
AcDbSymbolTable
 70
     1
  0
BLOCK_RECORD
  5
2
102
{ACAD_XDICTIONARY
360
3
102
}
330
1
100
AcDbSymbolTableRecord
100
AcDbBlockTableRecord
  2
*Model_Space
340
13
 70
     0
280
     1
281
     0
  0
BLOCK_RECORD
  5
17
330
1
100
AcDbSymbolTableRecord
100
AcDbBlockTableRecord
  2
*Paper_Space
340
1A
 70
     0
280
     1
281
     0
  0
BLOCK_RECORD
  5
33
330
1
100
AcDbSymbolTableRecord
100
AcDbBlockTableRecord
  2
_ArchTick
340
0
 70
     0
280
     1
281
     0
  0
ENDTAB
  0
ENDSEC
  0
SECTION
  2
BLOCKS
  0
BLOCK
  5
5
330
2
100
AcDbEntity
  8
0
100
AcDbBlockBegin
  2
*Model_Space
 70
     0
 10
0.0
 20
0.0
 30
0.0
  3
*Model_Space
  1

  0
ENDBLK
  5
12
330
2
100
AcDbEntity
  8
0
100
AcDbBlockEnd
  0
BLOCK
  5
18
330
17
100
AcDbEntity
 67
     1
  8
0
100
AcDbBlockBegin
  2
*Paper_Space
 70
     0
 10
0.0
 20
0.0
 30
0.0
  3
*Paper_Space
  1

  0
ENDBLK
  5
19
330
17
100
AcDbEntity
 67
     1
  8
0
100
AcDbBlockEnd
  0
BLOCK
  5
34
330
33
100
AcDbEntity
  8
0
100
AcDbBlockBegin
  2
_ArchTick
 70
     0
 10
0.0
 20
0.0
 30
0.0
  3
_ArchTick
  1

  0
LWPOLYLINE
  5
35
330
33
100
AcDbEntity
  8
0
  6
ByBlock
 62
     0
100
AcDbPolyline
 90
        2
 70
     0
 43
0.4
 10
-0.5
 20
-0.5
 10
0.5
 20
0.5
  0
ENDBLK
  5
36
330
33
100
AcDbEntity
  8
0
100
AcDbBlockEnd
  0
ENDSEC
  0
SECTION
  2
ENTITIES
  0
LWPOLYLINE
  5
6C
330
2
100
AcDbEntity
  8
LINE-RED
 48
0.8
100
AcDbPolyline
 90
       28
 70
   129
 43
80.0
 10
-28438.46305305764
 20
132610.4646196873
 10
-61182.95210301396
 20
136612.6577507504
 10
-64030.58960542511
 20
136951.2868323131
 10
-65079.40655384838
 20
137088.1992446058
 10
-59017.63615583963
 20
168559.3672501212
 10
-75341.71991248589
 20
172269.3909035041
 10
-73672.06118270449
 20
179620.9769039522
 10
-50131.62590883366
 20
207992.5132935457
 10
-34598.4988077271
 20
238759.0003773104
 10
-50267.09412944302
 20
247474.5700453906
 10
-64585.92199235662
 20
274746.81360257
 10
-66237.83962893192
 20
275176.0572654917
 10
-90037.70507715895
 20
281365.9762994535
 10
-100318.2534767573
 20
267646.3626529733
 10
-101917.8904310648
 20
259826.5139579579
 10
-107907.8856314016
 20
233206.8275113075
 10
-114677.7643793101
 20
206776.4731865334
 10
-118257.8163630522
 20
193966.6835788704
 10
-138267.7609839501
 20
124326.9124832279
 10
-115958.1032330354
 20
68957.25894404345
 10
-109470.3244347579
 20
65196.0321143428
 10
-106420.132377804
 20
63422.73873289958
 10
-103365.0604662073
 20
61642.36107242203
 10
-99962.50275090973
 20
59653.02500391242
 10
-96899.84143603661
 20
57848.51435792494
 10
-93834.35115456649
 20
56033.95398884224
 10
-89395.84694540288
 20
53387.84942035565
 10
-84209.52198631104
 20
50255.91656371861
  0
HATCH
  5
71
330
2
100
AcDbEntity
  8
S-TL-WALL
100
AcDbHatch
 10
0.0
 20
0.0
 30
0.0
210
0.0
220
0.0
230
1.0
  2
SOLID
 70
     1
 71
     1
 91
        2
 92
        7
 72
     1
 73
     1
 93
        8
 10
-97221.89341795848
 20
91676.66227782117
 42
0.4142135693605726
 10
-99999.34926450192
 20
91142.11647870568
 42
0.0
 10
-101120.8036503602
 20
89486.11655522242
 42
0.414213555385719
 10
-100586.2578639969
 20
86708.66077493943
 42
0.0
 10
-91478.25356858792
 20
80540.65814190922
 42
0.4142135735999179
 10
-88700.79770581224
 20
81075.20396499467
 42
0.0
 10
-87579.34334392551
 20
82731.20390470694
 42
0.4142135511461749
 10
-88113.88914652097
 20
85508.6596610203
 42
0.0
 97
        8
330
7C
330
7E
330
80
330
82
330
84
330
86
330
88
330
77
 92
       22
 72
     1
 73
     1
 93
        8
 10
-88338.18015253914
 20
85177.45950308045
 42
-0.414213551146178
 10
-87910.54351046271
 20
82955.49489802976
 42
0.0
 10
-89031.99787234919
 20
81299.49495831752
 42
-0.4142135735999159
 10
-91253.96256256998
 20
80871.85829984914
 42
0.0
 10
-100361.9668579787
 20
87039.86093287936
 42
-0.4142135553857134
 10
-100789.6034870698
 20
89261.82555710566
 42
0.0
 10
-99668.14910121119
 20
90917.82548058898
 42
-0.4142135693605715
 10
-97446.18442397655
 20
91345.4621198813
 42
0.0
 97
        8
330
89
330
87
330
85
330
83
330
81
330
7F
330
7D
330
7B
 75
     1
 76
     1
 47
23.53454373974732
 98
        2
 10
-94522.10323315332
 20
89588.75894404252
 10
-94522.10323315332
 20
89588.75894404252
450
        0
451
        0
460
0.0
461
0.0
452
        0
462
1.0
453
        2
463
0.0
 63
     5
421
      255
463
1.0
 63
     2
421
 16776960
470
LINEAR
1001
GradientColor1ACI
1070
     5
1001
GradientColor2ACI
1070
     2
1001
ACAD
1010
0.0
1020
0.0
1030
0.0
  0
LINE
  5
77
102
{ACAD_REACTORS
330
71
102
}
330
2
100
AcDbEntity
  8
S-TL-WALL-L
  6
Continuous
100
AcDbLine
 10
-88113.88913601879
 20
85508.65965390814
 30
0.0
 11
-97221.8934074562
 21
91676.66227070897
 31
0.0
  0
LINE
  5
7B
102
{ACAD_REACTORS
330
71
102
}
330
2
100
AcDbEntity
  8
S-TL-WALL-L
  6
Continuous
100
AcDbLine
 10
-88338.18014203684
 20
85177.45949596829
 30
0.0
 11
-97446.18441347425
 21
91345.46211276912
 31
0.0
  0
ARC
  5
7C
102
{ACAD_REACTORS
330
71
102
}
330
2
100
AcDbEntity
  8
S-TL-WALL-L
  6
Continuous
100
AcDbCircle
 10
-98343.34844804878
 20
90020.66148812213
 30
0.0
 40
1999.999999999683
100
AcDbArc
 50
55.89387444083377
 51
145.8938756930501
  0
ARC
  5
7D
102
{ACAD_REACTORS
330
71
102
}
330
2
100
AcDbEntity
  8
S-TL-WALL-L
  6
Continuous
100
AcDbCircle
 10
-98343.34844804878
 20
90020.66148812213
 30
0.0
 40
1599.999999999683
100
AcDbArc
 50
55.89387444083377
 51
145.8938756930501
  0
LINE
  5
7E
102
{ACAD_REACTORS
330
71
102
}
330
2
100
AcDbEntity
  8
S-TL-WALL-L
  6
Continuous
100
AcDbLine
 10
-99999.34925513397
 20
91142.1164925392
 30
0.0
 11
-101120.803640992
 21
89486.11656905619
 31
0.0
  0
LINE
  5
7F
102
{ACAD_REACTORS
330
71
102
}
330
2
100
AcDbEntity
  8
S-TL-WALL-L
  6
Continuous
100
AcDbLine
 10
-99668.14909184325
 20
90917.82549442248
 30
0.0
 11
-100789.6034777012
 21
89261.82557093946
 31
0.0
  0
ARC
  5
80
102
{ACAD_REACTORS
330
71
102
}
330
2
100
AcDbEntity
  8
S-TL-WALL-L
  6
Continuous
100
AcDbCircle
 10
-99464.80283390716
 20
88364.66156463883
 30
0.0
 40
1999.999999999705
100
AcDbArc
 50
145.8938756930501
 51
235.8938744408338
  0
ARC
  5
81
102
{ACAD_REACTORS
330
71
102
}
330
2
100
AcDbEntity
  8
S-TL-WALL-L
  6
Continuous
100
AcDbCircle
 10
-99464.80283390716
 20
88364.66156463883
 30
0.0
 40
1599.999999999705
100
AcDbArc
 50
145.8938756930501
 51
235.8938744408338
  0
LINE
  5
82
102
{ACAD_REACTORS
330
71
102
}
330
2
100
AcDbEntity
  8
S-TL-WALL-L
  6
Continuous
100
AcDbLine
 10
-100586.2578744987
 20
86708.66078205131
 30
0.0
 11
-91478.25357908997
 21
80540.65814902124
 31
0.0
  0
LINE
  5
83
102
{ACAD_REACTORS
330
71
102
}
330
2
100
AcDbEntity
  8
S-TL-WALL-L
  6
Continuous
100
AcDbLine
 10
-100361.9668684807
 20
87039.86093999123
 30
0.0
 11
-91253.9625730719
 21
80871.85830696117
 31
0.0
  0
ARC
  5
84
102
{ACAD_REACTORS
330
71
102
}
330
2
100
AcDbEntity
  8
S-TL-WALL-L
  6
Continuous
100
AcDbCircle
 10
-90356.79853849797
 20
82196.6589316089
 30
0.0
 40
2000.00000000002
100
AcDbArc
 50
235.8938744408338
 51
325.8938762426197
  0
ARC
  5
85
102
{ACAD_REACTORS
330
71
102
}
330
2
100
AcDbEntity
  8
S-TL-WALL-L
  6
Continuous
100
AcDbCircle
 10
-90356.79853849797
 20
82196.6589316089
 30
0.0
 40
1600.00000000002
100
AcDbArc
 50
235.8938744408338
 51
325.8938762426197
  0
LINE
  5
86
102
{ACAD_REACTORS
330
71
102
}
330
2
100
AcDbEntity
  8
S-TL-WALL-L
  6
Continuous
100
AcDbLine
 10
-88700.79772059115
 20
81075.20394317109
 30
0.0
 11
-87579.34335870444
 21
82731.20388288379
 31
0.0
  0
LINE
  5
87
102
{ACAD_REACTORS
330
71
102
}
330
2
100
AcDbEntity
  8
S-TL-WALL-L
  6
Continuous
100
AcDbLine
 10
-89031.99788712836
 20
81299.49493649395
 30
0.0
 11
-87910.54352524163
 21
82955.49487620663
 31
0.0
  0
ARC
  5
88
102
{ACAD_REACTORS
330
71
102
}
330
2
100
AcDbEntity
  8
S-TL-WALL-L
  6
Continuous
100
AcDbCircle
 10
-89235.3441766116
 20
83852.65887132108
 30
0.0
 40
1999.999999999915
100
AcDbArc
 50
325.8938762426197
 51
55.89387444083377
  0
ARC
  5
89
102
{ACAD_REACTORS
330
71
102
}
330
2
100
AcDbEntity
  8
S-TL-WALL-L
  6
Continuous
100
AcDbCircle
 10
-89235.3441766116
 20
83852.65887132108
 30
0.0
 40
1599.999999999915
100
AcDbArc
 50
325.8938762426197
 51
55.89387444083377
  0
HATCH
  5
8A
330
2
100
AcDbEntity
  8
S-TL-WALL
100
AcDbHatch
 10
0.0
 20
0.0
 30
0.0
210
0.0
220
0.0
230
1.0
  2
SOLID
 70
     1
 71
     1
 91
        1
 92
        1
 93
        4
 72
     1
 10
-75453.12160871885
 20
129350.135454088
 11
-75116.68511611651
 21
129846.9357021213
 72
     1
 10
-75116.68511611651
 20
129846.9357021213
 11
-74619.88486808407
 21
129510.49920952
 72
     1
 10
-74619.88486808407
 20
129510.4992095199
 11
-74956.32136068548
 21
129013.6989614866
 72
     1
 10
-74956.32136068548
 20
129013.6989614866
 11
-75453.12160871885
 21
129350.135454088
 97
        1
330
8B
 75
     1
 76
     1
 98
        1
 10
-5553338.676643977
 20
-3925457.998613226
450
        0
451
        0
460
0.0
461
0.0
452
        0
462
1.0
453
        2
463
0.0
 63
     5
421
      255
463
1.0
 63
     2
421
 16776960
470
LINEAR
1001
GradientColor1ACI
1070
     5
1001
GradientColor2ACI
1070
     2
1001
ACAD
1010
0.0
1020
0.0
1030
0.0
  0
LWPOLYLINE
  5
8B
102
{ACAD_REACTORS
330
8A
102
}
330
2
100
AcDbEntity
  8
S-TL-WALL-L
  6
Continuous
100
AcDbPolyline
 90
        4
 70
     1
 43
0.0
 10
-75453.12160871885
 20
129350.135454088
 10
-75116.68511611651
 20
129846.9357021213
 10
-74619.88486808407
 20
129510.4992095199
 10
-74956.32136068548
 20
129013.6989614866
  0
HATCH
  5
8C
330
2
100
AcDbEntity
  8
S-TL-WALL
100
AcDbHatch
 10
0.0
 20
0.0
 30
0.0
210
0.0
220
0.0
230
1.0
  2
SOLID
 70
     1
 71
     1
 91
        1
 92
        1
 93
        4
 72
     1
 10
-69491.5186342677
 20
125312.8975439048
 11
-69155.0821416663
 21
125809.6977919382
 72
     1
 10
-69155.0821416663
 20
125809.6977919382
 11
-68658.28189363362
 21
125473.2612993368
 72
     1
 10
-68658.28189363362
 20
125473.2612993368
 11
-68994.71838623527
 21
124976.4610513034
 72
     1
 10
-68994.71838623527
 20
124976.4610513034
 11
-69491.5186342677
 21
125312.8975439048
 97
        1
330
8D
 75
     1
 76
     1
 98
        1
 10
-5547377.073669528
 20
-3929495.236523411
450
        0
451
        0
460
0.0
461
0.0
452
        0
462
1.0
453
        2
463
0.0
 63
     5
421
      255
463
1.0
 63
     2
421
 16776960
470
LINEAR
1001
GradientColor1ACI
1070
     5
1001
GradientColor2ACI
1070
     2
1001
ACAD
1010
0.0
1020
0.0
1030
0.0
  0
LWPOLYLINE
  5
8D
102
{ACAD_REACTORS
330
8C
102
}
330
2
100
AcDbEntity
  8
S-TL-WALL-L
  6
Continuous
100
AcDbPolyline
 90
        4
 70
     1
 43
0.0
 10
-69491.5186342677
 20
125312.8975439048
 10
-69155.0821416663
 20
125809.6977919382
 10
-68658.28189363362
 20
125473.2612993368
 10
-68994.71838623527
 20
124976.4610513034
  0
HATCH
  5
8E
330
2
100
AcDbEntity
  8
S-TL-WALL
100
AcDbHatch
 10
0.0
 20
0.0
 30
0.0
210
0.0
220
0.0
230
1.0
  2
SOLID
 70
     1
 71
     1
 91
        1
 92
        1
 93
        4
 72
     1
 10
-59307.11374375268
 20
118415.9495774037
 11
-58970.67725115138
 21
118912.7498254371
 72
     1
 10
-58970.67725115138
 20
118912.7498254371
 11
-58473.87700311895
 21
118576.3133328357
 72
     1
 10
-58473.87700311895
 20
118576.3133328357
 11
-58810.31349572024
 21
118079.5130848023
 72
     1
 10
-58810.31349572024
 20
118079.5130848023
 11
-59307.11374375268
 21
118415.9495774037
 97
        1
330
8F
 75
     1
 76
     1
 98
        1
 10
-5537192.66877901
 20
-3936392.184489912
450
        0
451
        0
460
0.0
461
0.0
452
        0
462
1.0
453
        2
463
0.0
 63
     5
421
      255
463
1.0
 63
     2
421
 16776960
470
LINEAR
1001
GradientColor1ACI
1070
     5
1001
GradientColor2ACI
1070
     2
1001
ACAD
1010
0.0
1020
0.0
1030
0.0
  0
LWPOLYLINE
  5
8F
102
{ACAD_REACTORS
330
8E
102
}
330
2
100
AcDbEntity
  8
S-TL-WALL-L
  6
Continuous
100
AcDbPolyline
 90
        4
 70
     1
 43
0.0
 10
-59307.11374375268
 20
118415.9495774037
 10
-58970.67725115138
 20
118912.7498254371
 10
-58473.87700311895
 20
118576.3133328357
 10
-58810.31349572024
 20
118079.5130848023
  0
HATCH
  5
90
330
2
100
AcDbEntity
  8
S-TL-WALL
100
AcDbHatch
 10
0.0
 20
0.0
 30
0.0
210
0.0
220
0.0
230
1.0
  2
SOLID
 70
     1
 71
     1
 91
        1
 92
        1
 93
        4
 72
     1
 10
-65268.71652264576
 20
122453.187354567
 11
-64932.2800300433
 21
122949.9876026004
 72
     1
 10
-64932.2800300433
 20
122949.9876026004
 11
-64435.4797820111
 21
122613.5511099989
 72
     1
 10
-64435.4797820111
 20
122613.5511099989
 11
-64771.91627461239
 21
122116.7508619656
 72
     1
 10
-64771.91627461239
 20
122116.7508619656
 11
-65268.71652264576
 21
122453.187354567
 97
        1
330
91
 75
     1
 76
     1
 98
        1
 10
-5543154.271557905
 20
-3932354.94671275
450
        0
451
        0
460
0.0
461
0.0
452
        0
462
1.0
453
        2
463
0.0
 63
     5
421
      255
463
1.0
 63
     2
421
 16776960
470
LINEAR
1001
GradientColor1ACI
1070
     5
1001
GradientColor2ACI
1070
     2
1001
ACAD
1010
0.0
1020
0.0
1030
0.0
  0
LWPOLYLINE
  5
91
102
{ACAD_REACTORS
330
90
102
}
330
2
100
AcDbEntity
  8
S-TL-WALL-L
  6
Continuous
100
AcDbPolyline
 90
        4
 70
     1
 43
0.0
 10
-65268.71652264576
 20
122453.187354567
 10
-64932.2800300433
 20
122949.9876026004
 10
-64435.4797820111
 20
122613.5511099989
 10
-64771.91627461239
 20
122116.7508619656
  0
HATCH
  5
92
330
2
100
AcDbEntity
  8
S-TL-WALL
100
AcDbHatch
 10
0.0
 20
0.0
 30
0.0
210
0.0
220
0.0
230
1.0
  2
SOLID
 70
     1
 71
     1
 91
        1
 92
        1
 93
        4
 72
     1
 10
-79546.43227002464
 20
123305.7324343338
 11
-79209.99577742218
 21
123802.5326823671
 72
     1
 10
-79209.99577742218
 20
123802.5326823671
 11
-78713.19552938975
 21
123466.0961897657
 72
     1
 10
-78713.19552938975
 20
123466.0961897657
 11
-79049.63202199116
 21
122969.2959417324
 72
     1
 10
-79049.63202199116
 20
122969.2959417324
 11
-79546.43227002464
 21
123305.7324343338
 97
        1
330
93
 75
     1
 76
     1
 98
        1
 10
-5557431.987305284
 20
-3931502.401632982
450
        0
451
        0
460
0.0
461
0.0
452
        0
462
1.0
453
        2
463
0.0
 63
     5
421
      255
463
1.0
 63
     2
421
 16776960
470
LINEAR
1001
GradientColor1ACI
1070
     5
1001
GradientColor2ACI
1070
     2
1001
ACAD
1010
0.0
1020
0.0
1030
0.0
  0
LWPOLYLINE
  5
93
102
{ACAD_REACTORS
330
92
102
}
330
2
100
AcDbEntity
  8
S-TL-WALL-L
  6
Continuous
100
AcDbPolyline
 90
        4
 70
     1
 43
0.0
 10
-79546.43227002464
 20
123305.7324343338
 10
-79209.99577742218
 20
123802.5326823671
 10
-78713.19552938975
 20
123466.0961897657
 10
-79049.63202199116
 20
122969.2959417324
  0
HATCH
  5
94
330
2
100
AcDbEntity
  8
S-TL-WALL
100
AcDbHatch
 10
0.0
 20
0.0
 30
0.0
210
0.0
220
0.0
230
1.0
  2
SOLID
 70
     1
 71
     1
 91
        1
 92
        1
 93
        4
 72
     1
 10
-72342.82867368738
 20
118427.4032917651
 11
-72006.39218108597
 21
118924.2035397985
 72
     1
 10
-72006.39218108597
 20
118924.2035397985
 11
-71509.59193305342
 21
118587.7670471971
 72
     1
 10
-71509.59193305342
 20
118587.7670471971
 11
-71846.02842565495
 21
118090.9667991637
 72
     1
 10
-71846.02842565495
 20
118090.9667991637
 11
-72342.82867368738
 21
118427.4032917651
 97
        1
330
95
 75
     1
 76
     1
 98
        1
 10
-5550228.383708945
 20
-3936380.730775551
450
        0
451
        0
460
0.0
461
0.0
452
        0
462
1.0
453
        2
463
0.0
 63
     5
421
      255
463
1.0
 63
     2
421
 16776960
470
LINEAR
1001
GradientColor1ACI
1070
     5
1001
GradientColor2ACI
1070
     2
1001
ACAD
1010
0.0
1020
0.0
1030
0.0
  0
LWPOLYLINE
  5
95
102
{ACAD_REACTORS
330
94
102
}
330
2
100
AcDbEntity
  8
S-TL-WALL-L
  6
Continuous
100
AcDbPolyline
 90
        4
 70
     1
 43
0.0
 10
-72342.82867368738
 20
118427.4032917651
 10
-72006.39218108597
 20
118924.2035397985
 10
-71509.59193305342
 20
118587.7670471971
 10
-71846.02842565495
 20
118090.9667991637
  0
HATCH
  5
96
330
2
100
AcDbEntity
  8
S-TL-WALL
100
AcDbHatch
 10
0.0
 20
0.0
 30
0.0
210
0.0
220
0.0
230
1.0
  2
SOLID
 70
     1
 71
     1
 91
        1
 92
        1
 93
        4
 72
     1
 10
-63400.4244050594
 20
112371.5465576495
 11
-63063.98791245612
 21
112868.3468056829
 72
     1
 10
-63063.98791245612
 20
112868.3468056829
 11
-62567.18766442369
 21
112531.9103130814
 72
     1
 10
-62567.18766442369
 20
112531.9103130814
 11
-62903.6241570251
 21
112035.1100650481
 72
     1
 10
-62903.6241570251
 20
112035.1100650481
 11
-63400.4244050594
 21
112371.5465576495
 97
        1
330
97
 75
     1
 76
     1
 98
        1
 10
-5541285.979440317
 20
-3942436.587509666
450
        0
451
        0
460
0.0
461
0.0
452
        0
462
1.0
453
        2
463
0.0
 63
     5
421
      255
463
1.0
 63
     2
421
 16776960
470
LINEAR
1001
GradientColor1ACI
1070
     5
1001
GradientColor2ACI
1070
     2
1001
ACAD
1010
0.0
1020
0.0
1030
0.0
  0
LWPOLYLINE
  5
97
102
{ACAD_REACTORS
330
96
102
}
330
2
100
AcDbEntity
  8
S-TL-WALL-L
  6
Continuous
100
AcDbPolyline
 90
        4
 70
     1
 43
0.0
 10
-63400.4244050594
 20
112371.5465576495
 10
-63063.98791245612
 20
112868.3468056829
 10
-62567.18766442369
 20
112531.9103130814
 10
-62903.6241570251
 20
112035.1100650481
  0
HATCH
  5
98
330
2
100
AcDbEntity
  8
S-TL-WALL
100
AcDbHatch
 10
0.0
 20
0.0
 30
0.0
210
0.0
220
0.0
230
1.0
  2
SOLID
 70
     1
 71
     1
 91
        1
 92
        1
 93
        4
 72
     1
 10
-70604.02777072749
 20
117249.8756191102
 11
-70267.59127812515
 21
117746.6758671435
 72
     1
 10
-70267.59127812515
 20
117746.6758671435
 11
-69770.79103009272
 21
117410.2393745421
 72
     1
 10
-69770.79103009272
 20
117410.2393745421
 11
-70107.22752269413
 21
116913.4391265088
 72
     1
 10
-70107.22752269413
 20
116913.4391265088
 11
-70604.02777072749
 21
117249.8756191102
 97
        1
330
99
 75
     1
 76
     1
 98
        1
 10
-5548489.582805988
 20
-3937558.258448206
450
        0
451
        0
460
0.0
461
0.0
452
        0
462
1.0
453
        2
463
0.0
 63
     5
421
      255
463
1.0
 63
     2
421
 16776960
470
LINEAR
1001
GradientColor1ACI
1070
     5
1001
GradientColor2ACI
1070
     2
1001
ACAD
1010
0.0
1020
0.0
1030
0.0
  0
LWPOLYLINE
  5
99
102
{ACAD_REACTORS
330
98
102
}
330
2
100
AcDbEntity
  8
S-TL-WALL-L
  6
Continuous
100
AcDbPolyline
 90
        4
 70
     1
 43
0.0
 10
-70604.02777072749
 20
117249.8756191102
 10
-70267.59127812515
 20
117746.6758671435
 10
-69770.79103009272
 20
117410.2393745421
 10
-70107.22752269413
 20
116913.4391265088
  0
HATCH
  5
9A
330
2
100
AcDbEntity
  8
S-TL-WALL
100
AcDbHatch
 10
0.0
 20
0.0
 30
0.0
210
0.0
220
0.0
230
1.0
  2
SOLID
 70
     1
 71
     1
 91
        1
 92
        1
 93
        4
 72
     1
 10
-83135.08827879614
 20
118006.5303119603
 11
-82798.65178619381
 21
118503.3305599936
 72
     1
 10
-82798.65178619381
 20
118503.3305599936
 11
-82301.85153816137
 21
118166.8940673922
 72
     1
 10
-82301.85153816137
 20
118166.8940673922
 11
-82638.28803076277
 21
117670.0938193588
 72
     1
 10
-82638.28803076277
 20
117670.0938193588
 11
-83135.08827879614
 21
118006.5303119603
 97
        1
330
9B
 75
     1
 76
     1
 98
        1
 10
-5561020.643314056
 20
-3936801.603755356
450
        0
451
        0
460
0.0
461
0.0
452
        0
462
1.0
453
        2
463
0.0
 63
     5
421
      255
463
1.0
 63
     2
421
 16776960
470
LINEAR
1001
GradientColor1ACI
1070
     5
1001
GradientColor2ACI
1070
     2
1001
ACAD
1010
0.0
1020
0.0
1030
0.0
  0
LWPOLYLINE
  5
9B
102
{ACAD_REACTORS
330
9A
102
}
330
2
100
AcDbEntity
  8
S-TL-WALL-L
  6
Continuous
100
AcDbPolyline
 90
        4
 70
     1
 43
0.0
 10
-83135.08827879614
 20
118006.5303119603
 10
-82798.65178619381
 20
118503.3305599936
 10
-82301.85153816137
 20
118166.8940673922
 10
-82638.28803076277
 20
117670.0938193588
  0
HATCH
  5
9C
330
2
100
AcDbEntity
  8
S-TL-WALL
100
AcDbHatch
 10
0.0
 20
0.0
 30
0.0
210
0.0
220
0.0
230
1.0
  2
SOLID
 70
     1
 71
     1
 91
        1
 92
        1
 93
        4
 72
     1
 10
-77333.30372653957
 20
111058.1998750488
 11
-76996.86723393723
 21
111555.0001230822
 72
     1
 10
-76996.86723393723
 20
111555.0001230822
 11
-76500.06698590479
 21
111218.5636304808
 72
     1
 10
-76500.06698590479
 20
111218.5636304808
 11
-76836.5034785062
 21
110721.7633824474
 72
     1
 10
-76836.5034785062
 20
110721.7633824474
 11
-77333.30372653957
 21
111058.1998750488
 97
        1
330
9D
 75
     1
 76
     1
 98
        1
 10
-5555218.858761799
 20
-3943749.934192268
450
        0
451
        0
460
0.0
461
0.0
452
        0
462
1.0
453
        2
463
0.0
 63
     5
421
      255
463
1.0
 63
     2
421
 16776960
470
LINEAR
1001
GradientColor1ACI
1070
     5
1001
GradientColor2ACI
1070
     2
1001
ACAD
1010
0.0
1020
0.0
1030
0.0
  0
LWPOLYLINE
  5
9D
102
{ACAD_REACTORS
330
9C
102
}
330
2
100
AcDbEntity
  8
S-TL-WALL-L
  6
Continuous
100
AcDbPolyline
 90
        4
 70
     1
 43
0.0
 10
-77333.30372653957
 20
111058.1998750488
 10
-76996.86723393723
 20
111555.0001230822
 10
-76500.06698590479
 20
111218.5636304808
 10
-76836.5034785062
 20
110721.7633824474
  0
HATCH
  5
9E
330
2
100
AcDbEntity
  8
S-TL-WALL
100
AcDbHatch
 10
0.0
 20
0.0
 30
0.0
210
0.0
220
0.0
230
1.0
  2
SOLID
 70
     1
 71
     1
 91
        1
 92
        1
 93
        4
 72
     1
 10
-66484.4260535794
 20
107817.5441670739
 11
-66147.98956097717
 21
108314.3444151073
 72
     1
 10
-66147.98956097717
 20
108314.3444151073
 11
-65651.18931294474
 21
107977.9079225059
 72
     1
 10
-65651.18931294474
 20
107977.9079225059
 11
-65987.62580554615
 21
107481.1076744725
 72
     1
 10
-65987.62580554615
 20
107481.1076744725
 11
-66484.4260535794
 21
107817.5441670739
 97
        1
330
9F
 75
     1
 76
     1
 98
        1
 10
-5544369.981088838
 20
-3946990.589900241
450
        0
451
        0
460
0.0
461
0.0
452
        0
462
1.0
453
        2
463
0.0
 63
     5
421
      255
463
1.0
 63
     2
421
 16776960
470
LINEAR
1001
GradientColor1ACI
1070
     5
1001
GradientColor2ACI
1070
     2
1001
ACAD
1010
0.0
1020
0.0
1030
0.0
  0
LWPOLYLINE
  5
9F
102
{ACAD_REACTORS
330
9E
102
}
330
2
100
AcDbEntity
  8
S-TL-WALL-L
  6
Continuous
100
AcDbPolyline
 90
        4
 70
     1
 43
0.0
 10
-66484.4260535794
 20
107817.5441670739
 10
-66147.98956097717
 20
108314.3444151073
 10
-65651.18931294474
 20
107977.9079225059
 10
-65987.62580554615
 20
107481.1076744725
  0
HATCH
  5
A0
330
2
100
AcDbEntity
  8
S-TL-WALL
100
AcDbHatch
 10
0.0
 20
0.0
 30
0.0
210
0.0
220
0.0
230
1.0
  2
SOLID
 70
     1
 71
     1
 91
        1
 92
        1
 93
        4
 72
     1
 10
-74585.19326950106
 20
111371.0728764455
 11
-74248.75677689872
 21
111867.8731244788
 72
     1
 10
-74248.75677689872
 20
111867.8731244788
 11
-73751.95652886628
 21
111531.4366318774
 72
     1
 10
-73751.95652886628
 20
111531.4366318774
 11
-74088.3930214677
 21
111034.6363838441
 72
     1
 10
-74088.3930214677
 20
111034.6363838441
 11
-74585.19326950106
 21
111371.0728764455
 97
        1
330
A1
 75
     1
 76
     1
 98
        1
 10
-5552470.74830476
 20
-3943437.061190871
450
        0
451
        0
460
0.0
461
0.0
452
        0
462
1.0
453
        2
463
0.0
 63
     5
421
      255
463
1.0
 63
     2
421
 16776960
470
LINEAR
1001
GradientColor1ACI
1070
     5
1001
GradientColor2ACI
1070
     2
1001
ACAD
1010
0.0
1020
0.0
1030
0.0
  0
LWPOLYLINE
  5
A1
102
{ACAD_REACTORS
330
A0
102
}
330
2
100
AcDbEntity
  8
S-TL-WALL-L
  6
Continuous
100
AcDbPolyline
 90
        4
 70
     1
 43
0.0
 10
-74585.19326950106
 20
111371.0728764455
 10
-74248.75677689872
 20
111867.8731244788
 10
-73751.95652886628
 20
111531.4366318774
 10
-74088.3930214677
 20
111034.6363838441
  0
HATCH
  5
A2
330
2
100
AcDbEntity
  8
S-TL-WALL
100
AcDbHatch
 10
0.0
 20
0.0
 30
0.0
210
0.0
220
0.0
230
1.0
  2
SOLID
 70
     1
 71
     1
 91
        1
 92
        1
 93
        4
 72
     1
 10
-85434.07116541974
 20
114611.7288247789
 11
-85097.63467281752
 21
115108.5290728123
 72
     1
 10
-85097.63467281752
 20
115108.5290728123
 11
-84600.83442478495
 21
114772.0925802109
 72
     1
 10
-84600.83442478495
 20
114772.0925802109
 11
-84937.27091738637
 21
114275.2923321775
 72
     1
 10
-84937.27091738637
 20
114275.2923321775
 11
-85434.07116541974
 21
114611.7288247789
 97
        1
330
A3
 75
     1
 76
     1
 98
        1
 10
-5563319.626200677
 20
-3940196.405242537
450
        0
451
        0
460
0.0
461
0.0
452
        0
462
1.0
453
        2
463
0.0
 63
     5
421
      255
463
1.0
 63
     2
421
 16776960
470
LINEAR
1001
GradientColor1ACI
1070
     5
1001
GradientColor2ACI
1070
     2
1001
ACAD
1010
0.0
1020
0.0
1030
0.0
  0
LWPOLYLINE
  5
A3
102
{ACAD_REACTORS
330
A2
102
}
330
2
100
AcDbEntity
  8
S-TL-WALL-L
  6
Continuous
100
AcDbPolyline
 90
        4
 70
     1
 43
0.0
 10
-85434.07116541974
 20
114611.7288247789
 10
-85097.63467281752
 20
115108.5290728123
 10
-84600.83442478495
 20
114772.0925802109
 10
-84937.27091738637
 20
114275.2923321775
  0
HATCH
  5
A4
330
2
100
AcDbEntity
  8
S-TL-WALL
100
AcDbHatch
 10
0.0
 20
0.0
 30
0.0
210
0.0
220
0.0
230
1.0
  2
SOLID
 70
     1
 71
     1
 91
        1
 92
        1
 93
        4
 72
     1
 10
-68278.75367320582
 20
105167.943046126
 11
-67942.31718060429
 21
105664.7432941594
 72
     1
 10
-67942.31718060429
 20
105664.7432941594
 11
-67445.51693257163
 21
105328.306801558
 72
     1
 10
-67445.51693257163
 20
105328.306801558
 11
-67781.95342517327
 21
104831.5065535246
 72
     1
 10
-67781.95342517327
 20
104831.5065535246
 11
-68278.75367320582
 21
105167.943046126
 97
        1
330
A5
 75
     1
 76
     1
 98
        1
 10
-5546164.308708465
 20
-3949640.19102119
450
        0
451
        0
460
0.0
461
0.0
452
        0
462
1.0
453
        2
463
0.0
 63
     5
421
      255
463
1.0
 63
     2
421
 16776960
470
LINEAR
1001
GradientColor1ACI
1070
     5
1001
GradientColor2ACI
1070
     2
1001
ACAD
1010
0.0
1020
0.0
1030
0.0
  0
LWPOLYLINE
  5
A5
102
{ACAD_REACTORS
330
A4
102
}
330
2
100
AcDbEntity
  8
S-TL-WALL-L
  6
Continuous
100
AcDbPolyline
 90
        4
 70
     1
 43
0.0
 10
-68278.75367320582
 20
105167.943046126
 10
-67942.31718060429
 20
105664.7432941594
 10
-67445.51693257163
 20
105328.306801558
 10
-67781.95342517327
 20
104831.5065535246
  0
HATCH
  5
A6
330
2
100
AcDbEntity
  8
S-TL-WALL
100
AcDbHatch
 10
0.0
 20
0.0
 30
0.0
210
0.0
220
0.0
230
1.0
  2
SOLID
 70
     1
 71
     1
 91
        1
 92
        1
 93
        4
 72
     1
 10
-71362.75485537443
 20
100613.9407724798
 11
-71026.31836277208
 21
101110.7410205132
 72
     1
 10
-71026.31836277208
 20
101110.7410205132
 11
-70529.51811473965
 21
100774.3045279118
 72
     1
 10
-70529.51811473965
 20
100774.3045279118
 11
-70865.95460734105
 21
100277.5042798784
 72
     1
 10
-70865.95460734105
 20
100277.5042798784
 11
-71362.75485537443
 21
100613.9407724798
 97
        1
330
A7
 75
     1
 76
     1
 98
        1
 10
-5549248.309890632
 20
-3954194.193294836
450
        0
451
        0
460
0.0
461
0.0
452
        0
462
1.0
453
        2
463
0.0
 63
     5
421
      255
463
1.0
 63
     2
421
 16776960
470
LINEAR
1001
GradientColor1ACI
1070
     5
1001
GradientColor2ACI
1070
     2
1001
ACAD
1010
0.0
1020
0.0
1030
0.0
  0
LWPOLYLINE
  5
A7
102
{ACAD_REACTORS
330
A6
102
}
330
2
100
AcDbEntity
  8
S-TL-WALL-L
  6
Continuous
100
AcDbPolyline
 90
        4
 70
     1
 43
0.0
 10
-71362.75485537443
 20
100613.9407724798
 10
-71026.31836277208
 20
101110.7410205132
 10
-70529.51811473965
 20
100774.3045279118
 10
-70865.95460734105
 20
100277.5042798784
  0
HATCH
  5
A8
330
2
100
AcDbEntity
  8
S-TL-WALL
100
AcDbHatch
 10
0.0
 20
0.0
 30
0.0
210
0.0
220
0.0
230
1.0
  2
SOLID
 70
     1
 71
     1
 91
        1
 92
        1
 93
        4
 72
     1
 10
-74446.75603944293
 20
96059.93850220977
 11
-74110.3195468407
 21
96556.73875024312
 72
     1
 10
-74110.3195468407
 20
96556.73875024312
 11
-73613.51929880827
 21
96220.30225764174
 72
     1
 10
-73613.51929880827
 20
96220.30225764174
 11
-73949.95579140968
 21
95723.50200960835
 72
     1
 10
-73949.95579140968
 20
95723.50200960835
 11
-74446.75603944293
 21
96059.93850220977
 97
        1
330
A9
 75
     1
 76
     1
 98
        1
 10
-5552332.311074701
 20
-3958748.195565105
450
        0
451
        0
460
0.0
461
0.0
452
        0
462
1.0
453
        2
463
0.0
 63
     5
421
      255
463
1.0
 63
     2
421
 16776960
470
LINEAR
1001
GradientColor1ACI
1070
     5
1001
GradientColor2ACI
1070
     2
1001
ACAD
1010
0.0
1020
0.0
1030
0.0
  0
LWPOLYLINE
  5
A9
102
{ACAD_REACTORS
330
A8
102
}
330
2
100
AcDbEntity
  8
S-TL-WALL-L
  6
Continuous
100
AcDbPolyline
 90
        4
 70
     1
 43
0.0
 10
-74446.75603944293
 20
96059.93850220977
 10
-74110.3195468407
 20
96556.73875024312
 10
-73613.51929880827
 20
96220.30225764174
 10
-73949.95579140968
 20
95723.50200960835
  0
HATCH
  5
AA
330
2
100
AcDbEntity
  8
S-TL-WALL
100
AcDbHatch
 10
0.0
 20
0.0
 30
0.0
210
0.0
220
0.0
230
1.0
  2
SOLID
 70
     1
 71
     1
 91
        1
 92
        1
 93
        4
 72
     1
 10
-76241.08370489496
 20
93410.33738039948
 11
-75904.64721229262
 21
93907.13762843287
 72
     1
 10
-75904.64721229262
 20
93907.13762843287
 11
-75407.84696426018
 21
93570.70113583144
 72
     1
 10
-75407.84696426018
 20
93570.70113583144
 11
-75744.28345686159
 21
93073.90088779808
 72
     1
 10
-75744.28345686159
 20
93073.90088779808
 11
-76241.08370489496
 21
93410.33738039948
 97
        1
330
AB
 75
     1
 76
     1
 98
        1
 10
-5554126.638740154
 20
-3961397.796686916
450
        0
451
        0
460
0.0
461
0.0
452
        0
462
1.0
453
        2
463
0.0
 63
     5
421
      255
463
1.0
 63
     2
421
 16776960
470
LINEAR
1001
GradientColor1ACI
1070
     5
1001
GradientColor2ACI
1070
     2
1001
ACAD
1010
0.0
1020
0.0
1030
0.0
  0
LWPOLYLINE
  5
AB
102
{ACAD_REACTORS
330
AA
102
}
330
2
100
AcDbEntity
  8
S-TL-WALL-L
  6
Continuous
100
AcDbPolyline
 90
        4
 70
     1
 43
0.0
 10
-76241.08370489496
 20
93410.33738039948
 10
-75904.64721229262
 20
93907.13762843287
 10
-75407.84696426018
 20
93570.70113583144
 10
-75744.28345686159
 20
93073.90088779808
  0
HATCH
  5
AC
330
2
100
AcDbEntity
  8
S-TL-WALL
100
AcDbHatch
 10
0.0
 20
0.0
 30
0.0
210
0.0
220
0.0
230
1.0
  2
SOLID
 70
     1
 71
     1
 91
        1
 92
        1
 93
        4
 72
     1
 10
-79156.86615686174
 20
89104.73551874471
 11
-78820.4296642594
 21
89601.53576677809
 72
     1
 10
-78820.4296642594
 20
89601.53576677809
 11
-78323.62941622696
 21
89265.09927417667
 72
     1
 10
-78323.62941622696
 20
89265.09927417667
 11
-78660.06590882837
 21
88768.2990261433
 72
     1
 10
-78660.06590882837
 20
88768.2990261433
 11
-79156.86615686174
 21
89104.73551874472
 97
        1
330
AD
 75
     1
 76
     1
 98
        1
 10
-5557042.421192121
 20
-3965703.398548571
450
        0
451
        0
460
0.0
461
0.0
452
        0
462
1.0
453
        2
463
0.0
 63
     5
421
      255
463
1.0
 63
     2
421
 16776960
470
LINEAR
1001
GradientColor1ACI
1070
     5
1001
GradientColor2ACI
1070
     2
1001
ACAD
1010
0.0
1020
0.0
1030
0.0
  0
LWPOLYLINE
  5
AD
102
{ACAD_REACTORS
330
AC
102
}
330
2
100
AcDbEntity
  8
S-TL-WALL-L
  6
Continuous
100
AcDbPolyline
 90
        4
 70
     1
 43
0.0
 10
-79156.86615686174
 20
89104.73551874471
 10
-78820.4296642594
 20
89601.53576677809
 10
-78323.62941622696
 20
89265.09927417667
 10
-78660.06590882837
 20
88768.2990261433
  0
HATCH
  5
AE
330
2
100
AcDbEntity
  8
S-TL-WALL
100
AcDbHatch
 10
0.0
 20
0.0
 30
0.0
210
0.0
220
0.0
230
1.0
  2
SOLID
 70
     1
 71
     1
 91
        1
 92
        1
 93
        4
 72
     1
 10
-88461.99983683657
 20
110140.5263047949
 11
-88125.56334423433
 21
110637.3265528283
 72
     1
 10
-88125.56334423433
 20
110637.3265528283
 11
-87628.76309620191
 21
110300.8900602269
 72
     1
 10
-87628.76309620191
 20
110300.8900602269
 11
-87965.19958880331
 21
109804.0898121935
 72
     1
 10
-87965.19958880331
 20
109804.0898121935
 11
-88461.99983683657
 21
110140.5263047949
 97
        1
330
AF
 75
     1
 76
     1
 98
        1
 10
-5566347.554872095
 20
-3944667.607762521
450
        0
451
        0
460
0.0
461
0.0
452
        0
462
1.0
453
        2
463
0.0
 63
     5
421
      255
463
1.0
 63
     2
421
 16776960
470
LINEAR
1001
GradientColor1ACI
1070
     5
1001
GradientColor2ACI
1070
     2
1001
ACAD
1010
0.0
1020
0.0
1030
0.0
  0
LWPOLYLINE
  5
AF
102
{ACAD_REACTORS
330
AE
102
}
330
2
100
AcDbEntity
  8
S-TL-WALL-L
  6
Continuous
100
AcDbPolyline
 90
        4
 70
     1
 43
0.0
 10
-88461.99983683657
 20
110140.5263047949
 10
-88125.56334423433
 20
110637.3265528283
 10
-87628.76309620191
 20
110300.8900602269
 10
-87965.19958880331
 20
109804.0898121935
  0
HATCH
  5
B0
330
2
100
AcDbEntity
  8
S-TL-WALL
100
AcDbHatch
 10
0.0
 20
0.0
 30
0.0
210
0.0
220
0.0
230
1.0
  2
SOLID
 70
     1
 71
     1
 91
        1
 92
        1
 93
        4
 72
     1
 10
-78566.35841869246
 20
105492.2699609329
 11
-78229.9219260893
 21
105989.0702089663
 72
     1
 10
-78229.9219260893
 20
105989.0702089663
 11
-77733.12167805663
 21
105652.6337163648
 72
     1
 10
-77733.12167805663
 20
105652.6337163648
 11
-78069.55817065816
 21
105155.8334683315
 72
     1
 10
-78069.55817065816
 20
105155.8334683315
 11
-78566.35841869246
 21
105492.2699609329
 97
        1
330
B1
 75
     1
 76
     1
 98
        1
 10
-5556451.913453951
 20
-3949315.864106384
450
        0
451
        0
460
0.0
461
0.0
452
        0
462
1.0
453
        2
463
0.0
 63
     5
421
      255
463
1.0
 63
     2
421
 16776960
470
LINEAR
1001
GradientColor1ACI
1070
     5
1001
GradientColor2ACI
1070
     2
1001
ACAD
1010
0.0
1020
0.0
1030
0.0
  0
LWPOLYLINE
  5
B1
102
{ACAD_REACTORS
330
B0
102
}
330
2
100
AcDbEntity
  8
S-TL-WALL-L
  6
Continuous
100
AcDbPolyline
 90
        4
 70
     1
 43
0.0
 10
-78566.35841869246
 20
105492.2699609329
 10
-78229.9219260893
 20
105989.0702089663
 10
-77733.12167805663
 20
105652.6337163648
 10
-78069.55817065816
 20
105155.8334683315
  0
HATCH
  5
B2
330
2
100
AcDbEntity
  8
S-TL-WALL
100
AcDbHatch
 10
0.0
 20
0.0
 30
0.0
210
0.0
220
0.0
230
1.0
  2
SOLID
 70
     1
 71
     1
 91
        1
 92
        1
 93
        4
 72
     1
 10
-82547.52333636638
 20
99613.46688863772
 11
-82211.08684376403
 21
100110.2671366711
 72
     1
 10
-82211.08684376403
 20
100110.2671366711
 11
-81714.28659573159
 21
99773.83064406973
 72
     1
 10
-81714.28659573159
 20
99773.83064406973
 11
-82050.72308833301
 21
99277.03039603633
 72
     1
 10
-82050.72308833301
 20
99277.03039603633
 11
-82547.52333636638
 21
99613.46688863772
 97
        1
330
B3
 75
     1
 76
     1
 98
        1
 10
-5560433.078371626
 20
-3955194.667178679
450
        0
451
        0
460
0.0
461
0.0
452
        0
462
1.0
453
        2
463
0.0
 63
     5
421
      255
463
1.0
 63
     2
421
 16776960
470
LINEAR
1001
GradientColor1ACI
1070
     5
1001
GradientColor2ACI
1070
     2
1001
ACAD
1010
0.0
1020
0.0
1030
0.0
  0
LWPOLYLINE
  5
B3
102
{ACAD_REACTORS
330
B2
102
}
330
2
100
AcDbEntity
  8
S-TL-WALL-L
  6
Continuous
100
AcDbPolyline
 90
        4
 70
     1
 43
0.0
 10
-82547.52333636638
 20
99613.46688863772
 10
-82211.08684376403
 20
100110.2671366711
 10
-81714.28659573159
 20
99773.83064406973
 10
-82050.72308833301
 20
99277.03039603633
  0
HATCH
  5
B4
330
2
100
AcDbEntity
  8
S-TL-WALL
100
AcDbHatch
 10
0.0
 20
0.0
 30
0.0
210
0.0
220
0.0
230
1.0
  2
SOLID
 70
     1
 71
     1
 91
        1
 92
        1
 93
        4
 72
     1
 10
-86360.46940651324
 20
93983.06407812379
 11
-86024.03291391079
 21
94479.86432615715
 72
     1
 10
-86024.03291391079
 20
94479.86432615715
 11
-85527.23266587822
 21
94143.42783355577
 72
     1
 10
-85527.23266587822
 20
94143.42783355577
 11
-85863.66915847975
 21
93646.6275855224
 72
     1
 10
-85863.66915847975
 20
93646.6275855224
 11
-86360.46940651324
 21
93983.06407812379
 97
        1
330
B5
 75
     1
 76
     1
 98
        1
 10
-5564246.024441771
 20
-3960825.069989192
450
        0
451
        0
460
0.0
461
0.0
452
        0
462
1.0
453
        2
463
0.0
 63
     5
421
      255
463
1.0
 63
     2
421
 16776960
470
LINEAR
1001
GradientColor1ACI
1070
     5
1001
GradientColor2ACI
1070
     2
1001
ACAD
1010
0.0
1020
0.0
1030
0.0
  0
LWPOLYLINE
  5
B5
102
{ACAD_REACTORS
330
B4
102
}
330
2
100
AcDbEntity
  8
S-TL-WALL-L
  6
Continuous
100
AcDbPolyline
 90
        4
 70
     1
 43
0.0
 10
-86360.46940651324
 20
93983.06407812379
 10
-86024.03291391079
 20
94479.86432615715
 10
-85527.23266587822
 20
94143.42783355577
 10
-85863.66915847975
 20
93646.6275855224
  0
HATCH
  5
B6
330
2
100
AcDbEntity
  8
S-TL-WALL
100
AcDbHatch
 10
0.0
 20
0.0
 30
0.0
210
0.0
220
0.0
230
1.0
  2
SOLID
 70
     1
 71
     0
 91
        2
 92
        1
 93
        4
 72
     1
 10
-87602.47079271506
 20
94824.15522132026
 11
-93398.47361344247
 21
98749.24758557513
 72
     1
 10
-93398.47361344155
 20
98749.24758557465
 11
-86495.91763195905
 21
108941.9325780319
 72
     1
 10
-86495.91763196021
 20
108941.9325780324
 11
-80699.91481123269
 21
105016.8402137775
 72
     1
 10
-80699.91481123174
 20
105016.8402137775
 11
-87602.47079271401
 21
94824.15522132026
 97
        0
 92
       16
 93
        4
 72
     1
 10
-93120.72757797558
 20
98802.70186241764
 11
-86442.46337200209
 21
108664.1871907669
 72
     1
 10
-86442.46337200209
 20
108664.187190766
 11
-80977.66091568079
 21
104963.3860109234
 72
     1
 10
-80977.66091568079
 20
104963.3860109239
 11
-87655.92512165438
 21
95101.90068257465
 72
     1
 10
-87655.92512165438
 20
95101.90068257509
 11
-93120.72757797558
 21
98802.70186241764
 97
        0
 75
     1
 76
     1
 98
        1
 10
3909987.405016342
 20
-5335966.784292224
450
        0
451
        0
460
0.0
461
0.0
452
        0
462
1.0
453
        2
463
0.0
 63
     5
421
      255
463
1.0
 63
     2
421
 16776960
470
LINEAR
1001
GradientColor1ACI
1070
     5
1001
GradientColor2ACI
1070
     2
1001
ACAD
1010
0.0
1020
0.0
1030
0.0
  0
LWPOLYLINE
  5
B7
330
2
100
AcDbEntity
  8
S-TL-WALL-L
  6
Continuous
100
AcDbPolyline
 90
        4
 70
     1
 43
0.0
 10
-87602.47079271506
 20
94824.15522132026
 10
-93398.47361344155
 20
98749.24758557465
 10
-86495.91773530511
 20
108941.9326480185
 10
-80699.91491457688
 20
105016.8402837636
  0
LWPOLYLINE
  5
B8
330
2
100
AcDbEntity
  8
S-TL-WALL-L
  6
Continuous
100
AcDbPolyline
 90
        4
 70
     1
 43
0.0
 10
-87655.925371355
 20
95101.90079712728
 10
-93120.7280267259
 20
98802.70216631473
 10
-86442.46315666517
 20
108664.1870722114
 10
-80977.66050129253
 20
104963.385703024
  0
HATCH
  5
B9
330
2
100
AcDbEntity
  8
S-TL-WALL
100
AcDbHatch
 10
0.0
 20
0.0
 30
0.0
210
0.0
220
0.0
230
1.0
  2
SOLID
 70
     1
 71
     1
 91
        1
 92
        1
 93
        4
 72
     1
 10
-89046.61574651903
 20
71647.5630136519
 11
-88485.88825885075
 21
72475.56342703989
 72
     1
 10
-88485.88825885075
 20
72475.56342703989
 11
-87657.88784546263
 21
71914.83593937152
 72
     1
 10
-87657.88784546263
 20
71914.83593937152
 11
-88218.61533313114
 21
71086.83552598349
 72
     1
 10
-88218.61533313114
 20
71086.83552598349
 11
-89046.61574651903
 21
71647.5630136519
 97
        1
330
BA
 75
     1
 76
     1
 98
        1
 10
-9218855.874132252
 20
-6686365.993759085
450
        0
451
        0
460
0.0
461
0.0
452
        0
462
1.0
453
        2
463
0.0
 63
     5
421
      255
463
1.0
 63
     2
421
 16776960
470
LINEAR
1001
GradientColor1ACI
1070
     5
1001
GradientColor2ACI
1070
     2
1001
ACAD
1010
0.0
1020
0.0
1030
0.0
  0
LWPOLYLINE
  5
BA
102
{ACAD_REACTORS
330
B9
102
}
330
2
100
AcDbEntity
  8
S-TL-WALL-L
  6
Continuous
100
AcDbPolyline
 90
        4
 70
     1
 43
0.0
 10
-89046.61574651903
 20
71647.5630136519
 10
-88485.88825885075
 20
72475.56342703989
 10
-87657.88784546263
 20
71914.83593937152
 10
-88218.61533313114
 20
71086.83552598349
  0
HATCH
  5
BB
330
2
100
AcDbEntity
  8
S-TL-WALL
100
AcDbHatch
 10
0.0
 20
0.0
 30
0.0
210
0.0
220
0.0
230
1.0
  2
SOLID
 70
     1
 71
     1
 91
        1
 92
        1
 93
        4
 72
     1
 10
-110985.391914614
 20
86504.65202848941
 11
-110424.6644269457
 21
87332.65244187744
 72
     1
 10
-110424.6644269457
 20
87332.65244187744
 11
-109596.6640135576
 21
86771.92495420904
 72
     1
 10
-109596.6640135576
 20
86771.92495420904
 11
-110157.3915012261
 21
85943.924540821
 72
     1
 10
-110157.3915012261
 20
85943.92454082104
 11
-110985.391914614
 21
86504.65202848941
 97
        1
330
BC
 75
     1
 76
     1
 98
        1
 10
-9240794.650300347
 20
-6671508.904744245
450
        0
451
        0
460
0.0
461
0.0
452
        0
462
1.0
453
        2
463
0.0
 63
     5
421
      255
463
1.0
 63
     2
421
 16776960
470
LINEAR
1001
GradientColor1ACI
1070
     5
1001
GradientColor2ACI
1070
     2
1001
ACAD
1010
0.0
1020
0.0
1030
0.0
  0
LWPOLYLINE
  5
BC
102
{ACAD_REACTORS
330
BB
102
}
330
2
100
AcDbEntity
  8
S-TL-WALL-L
  6
Continuous
100
AcDbPolyline
 90
        4
 70
     1
 43
0.0
 10
-110985.391914614
 20
86504.65202848941
 10
-110424.6644269457
 20
87332.65244187744
 10
-109596.6640135576
 20
86771.92495420904
 10
-110157.3915012261
 20
85943.92454082104
  0
HATCH
  5
BD
330
2
100
AcDbEntity
  8
S-TL-WALL
100
AcDbHatch
 10
0.0
 20
0.0
 30
0.0
210
0.0
220
0.0
230
1.0
  2
SOLID
 70
     1
 71
     1
 91
        1
 92
        1
 93
        4
 72
     1
 10
-111588.6151833557
 20
92897.60057803572
 11
-110661.0760439341
 21
93271.3266071561
 72
     1
 10
-110661.0760439341
 20
93271.3266071561
 11
-110287.3500148137
 21
92343.78746773632
 72
     1
 10
-110287.3500148137
 20
92343.78746773632
 11
-111214.8891542354
 21
91970.06143861591
 72
     1
 10
-111214.8891542354
 20
91970.06143861591
 11
-111588.6151833557
 21
92897.60057803572
 97
        1
330
BE
 75
     1
 76
     1
 98
        1
 10
-11459123.20487997
 20
-414668.2214280496
450
        0
451
        0
460
0.0
461
0.0
452
        0
462
1.0
453
        2
463
0.0
 63
     5
421
      255
463
1.0
 63
     2
421
 16776960
470
LINEAR
1001
GradientColor1ACI
1070
     5
1001
GradientColor2ACI
1070
     2
1001
ACAD
1010
0.0
1020
0.0
1030
0.0
  0
LWPOLYLINE
  5
BE
102
{ACAD_REACTORS
330
BD
102
}
330
2
100
AcDbEntity
  8
S-TL-WALL-L
  6
Continuous
100
AcDbPolyline
 90
        4
 70
     1
 43
0.0
 10
-111588.6151833557
 20
92897.60057803572
 10
-110661.0760439341
 20
93271.3266071561
 10
-110287.3500148137
 20
92343.78746773632
 10
-111214.8891542354
 20
91970.06143861591
  0
HATCH
  5
BF
330
2
100
AcDbEntity
  8
S-TL-WALL
100
AcDbHatch
 10
0.0
 20
0.0
 30
0.0
210
0.0
220
0.0
230
1.0
  2
SOLID
 70
     1
 71
     1
 91
        1
 92
        1
 93
        4
 72
     1
 10
-105006.2827019809
 20
95549.76788405424
 11
-104078.7435625593
 21
95923.49391317466
 72
     1
 10
-104078.7435625593
 20
95923.49391317466
 11
-103705.0175334389
 21
94995.95477375484
 72
     1
 10
-103705.0175334389
 20
94995.95477375484
 11
-104632.5566728605
 21
94622.22874463446
 72
     1
 10
-104632.5566728605
 20
94622.22874463446
 11
-105006.2827019809
 21
95549.76788405424
 97
        1
330
C0
 75
     1
 76
     1
 98
        1
 10
-11452540.87239859
 20
-412016.0541220314
450
        0
451
        0
460
0.0
461
0.0
452
        0
462
1.0
453
        2
463
0.0
 63
     5
421
      255
463
1.0
 63
     2
421
 16776960
470
LINEAR
1001
GradientColor1ACI
1070
     5
1001
GradientColor2ACI
1070
     2
1001
ACAD
1010
0.0
1020
0.0
1030
0.0
  0
LWPOLYLINE
  5
C0
102
{ACAD_REACTORS
330
BF
102
}
330
2
100
AcDbEntity
  8
S-TL-WALL-L
  6
Continuous
100
AcDbPolyline
 90
        4
 70
     1
 43
0.0
 10
-105006.2827019809
 20
95549.76788405424
 10
-104078.7435625593
 20
95923.49391317466
 10
-103705.0175334389
 20
94995.95477375484
 10
-104632.5566728605
 20
94622.22874463446
  0
HATCH
  5
C1
330
2
100
AcDbEntity
  8
S-TL-WALL
100
AcDbHatch
 10
0.0
 20
0.0
 30
0.0
210
0.0
220
0.0
230
1.0
  2
SOLID
 70
     1
 71
     1
 91
        1
 92
        1
 93
        4
 72
     1
 10
-103672.4663378246
 20
81552.28930030347
 11
-103111.7388501564
 21
82380.2897136915
 72
     1
 10
-103111.7388501564
 20
82380.2897136915
 11
-102283.7384367684
 21
81819.56222602309
 72
     1
 10
-102283.7384367684
 20
81819.56222602309
 11
-102844.4659244368
 21
80991.56181263506
 72
     1
 10
-102844.4659244368
 20
80991.56181263506
 11
-103672.4663378246
 21
81552.28930030347
 97
        1
330
C2
 75
     1
 76
     1
 98
        1
 10
-9233481.724723556
 20
-6676461.267472433
450
        0
451
        0
460
0.0
461
0.0
452
        0
462
1.0
453
        2
463
0.0
 63
     5
421
      255
463
1.0
 63
     2
421
 16776960
470
LINEAR
1001
GradientColor1ACI
1070
     5
1001
GradientColor2ACI
1070
     2
1001
ACAD
1010
0.0
1020
0.0
1030
0.0
  0
LWPOLYLINE
  5
C2
102
{ACAD_REACTORS
330
C1
102
}
330
2
100
AcDbEntity
  8
S-TL-WALL-L
  6
Continuous
100
AcDbPolyline
 90
        4
 70
     1
 43
0.0
 10
-103672.4663378246
 20
81552.28930030347
 10
-103111.7388501564
 20
82380.2897136915
 10
-102283.7384367684
 20
81819.56222602309
 10
-102844.4659244368
 20
80991.56181263506
  0
HATCH
  5
C3
330
2
100
AcDbEntity
  8
S-TL-WALL
100
AcDbHatch
 10
0.0
 20
0.0
 30
0.0
210
0.0
220
0.0
230
1.0
  2
SOLID
 70
     1
 71
     1
 91
        1
 92
        1
 93
        4
 72
     1
 10
-96359.5407610355
 20
76599.92657211935
 11
-95798.81327336709
 21
77427.92698550739
 72
     1
 10
-95798.81327336709
 20
77427.92698550739
 11
-94970.81285997907
 21
76867.199497839
 72
     1
 10
-94970.81285997907
 20
76867.199497839
 11
-95531.54034764748
 21
76039.19908445099
 72
     1
 10
-95531.54034764748
 20
76039.19908445099
 11
-96359.5407610355
 21
76599.92657211935
 97
        1
330
C4
 75
     1
 76
     1
 98
        1
 10
-9226168.799146766
 20
-6681413.630200617
450
        0
451
        0
460
0.0
461
0.0
452
        0
462
1.0
453
        2
463
0.0
 63
     5
421
      255
463
1.0
 63
     2
421
 16776960
470
LINEAR
1001
GradientColor1ACI
1070
     5
1001
GradientColor2ACI
1070
     2
1001
ACAD
1010
0.0
1020
0.0
1030
0.0
  0
LWPOLYLINE
  5
C4
102
{ACAD_REACTORS
330
C3
102
}
330
2
100
AcDbEntity
  8
S-TL-WALL-L
  6
Continuous
100
AcDbPolyline
 90
        4
 70
     1
 43
0.0
 10
-96359.5407610355
 20
76599.92657211935
 10
-95798.81327336709
 20
77427.92698550739
 10
-94970.81285997907
 20
76867.199497839
 10
-95531.54034764748
 20
76039.19908445099
  0
HATCH
  5
C5
330
2
100
AcDbEntity
  8
S-TL-WALL
100
AcDbHatch
 10
0.0
 20
0.0
 30
0.0
210
0.0
220
0.0
230
1.0
  2
SOLID
 70
     1
 71
     1
 91
        1
 92
        1
 93
        4
 72
     1
 10
-79514.2491611341
 20
85723.56787565865
 11
-78953.5216734657
 21
86551.56828904669
 72
     1
 10
-78953.5216734657
 20
86551.56828904665
 11
-78125.52126007768
 21
85990.84080137828
 72
     1
 10
-78125.52126007768
 20
85990.84080137828
 11
-78686.24874774608
 21
85162.84038799025
 72
     1
 10
-78686.24874774608
 20
85162.84038799025
 11
-79514.2491611341
 21
85723.56787565865
 97
        1
330
C6
 75
     1
 76
     1
 98
        1
 10
-9209323.507546868
 20
-6672289.988897079
450
        0
451
        0
460
0.0
461
0.0
452
        0
462
1.0
453
        2
463
0.0
 63
     5
421
      255
463
1.0
 63
     2
421
 16776960
470
LINEAR
1001
GradientColor1ACI
1070
     5
1001
GradientColor2ACI
1070
     2
1001
ACAD
1010
0.0
1020
0.0
1030
0.0
  0
LWPOLYLINE
  5
C6
102
{ACAD_REACTORS
330
C5
102
}
330
2
100
AcDbEntity
  8
S-TL-WALL-L
  6
Continuous
100
AcDbPolyline
 90
        4
 70
     1
 43
0.0
 10
-79514.2491611341
 20
85723.56787565865
 10
-78953.5216734657
 20
86551.56828904665
 10
-78125.52126007768
 20
85990.84080137828
 10
-78686.24874774608
 20
85162.84038799025
  0
HATCH
  5
C7
330
2
100
AcDbEntity
  8
S-TL-WALL
100
AcDbHatch
 10
0.0
 20
0.0
 30
0.0
210
0.0
220
0.0
230
1.0
  2
SOLID
 70
     1
 71
     1
 91
        1
 92
        1
 93
        4
 72
     1
 10
-97123.85718529075
 20
97648.91585633673
 11
-96563.12969762236
 21
98476.91626972476
 72
     1
 10
-96563.12969762236
 20
98476.91626972476
 11
-95735.12928423435
 21
97916.18878205635
 72
     1
 10
-95735.12928423435
 20
97916.18878205635
 11
-96295.85677190274
 21
97088.18836866836
 72
     1
 10
-96295.85677190274
 20
97088.18836866836
 11
-97123.85718529075
 21
97648.91585633673
 97
        1
330
C8
 75
     1
 76
     1
 98
        1
 10
-9226933.115571021
 20
-6660364.6409164
450
        0
451
        0
460
0.0
461
0.0
452
        0
462
1.0
453
        2
463
0.0
 63
     5
421
      255
463
1.0
 63
     2
421
 16776960
470
LINEAR
1001
GradientColor1ACI
1070
     5
1001
GradientColor2ACI
1070
     2
1001
ACAD
1010
0.0
1020
0.0
1030
0.0
  0
LWPOLYLINE
  5
C8
102
{ACAD_REACTORS
330
C7
102
}
330
2
100
AcDbEntity
  8
S-TL-WALL-L
  6
Continuous
100
AcDbPolyline
 90
        4
 70
     1
 43
0.0
 10
-97123.85718529075
 20
97648.91585633673
 10
-96563.12969762236
 20
98476.91626972476
 10
-95735.12928423435
 20
97916.18878205635
 10
-96295.85677190274
 20
97088.18836866836
  0
HATCH
  5
C9
330
2
100
AcDbEntity
  8
S-TL-WALL
100
AcDbHatch
 10
0.0
 20
0.0
 30
0.0
210
0.0
220
0.0
230
1.0
  2
SOLID
 70
     1
 71
     1
 91
        1
 92
        1
 93
        4
 72
     1
 10
-91253.98784390519
 20
93673.7998627774
 11
-90693.2603562368
 21
94501.80027616539
 72
     1
 10
-90693.2603562368
 20
94501.80027616539
 11
-89865.25994284878
 21
93941.072788497
 72
     1
 10
-89865.25994284878
 20
93941.072788497
 11
-90425.98743051719
 21
93113.07237510899
 72
     1
 10
-90425.98743051719
 20
93113.07237510899
 11
-91253.98784390519
 21
93673.7998627774
 97
        1
330
CA
 75
     1
 76
     1
 98
        1
 10
-9221063.246229642
 20
-6664339.75690996
450
        0
451
        0
460
0.0
461
0.0
452
        0
462
1.0
453
        2
463
0.0
 63
     5
421
      255
463
1.0
 63
     2
421
 16776960
470
LINEAR
1001
GradientColor1ACI
1070
     5
1001
GradientColor2ACI
1070
     2
1001
ACAD
1010
0.0
1020
0.0
1030
0.0
  0
LWPOLYLINE
  5
CA
102
{ACAD_REACTORS
330
C9
102
}
330
2
100
AcDbEntity
  8
S-TL-WALL-L
  6
Continuous
100
AcDbPolyline
 90
        4
 70
     1
 43
0.0
 10
-91253.98784390519
 20
93673.7998627774
 10
-90693.2603562368
 20
94501.80027616539
 10
-89865.25994284878
 20
93941.072788497
 10
-90425.98743051719
 20
93113.07237510899
  0
HATCH
  5
CB
330
2
100
AcDbEntity
  8
S-TL-WALL
100
AcDbHatch
 10
0.0
 20
0.0
 30
0.0
210
0.0
220
0.0
230
1.0
  2
SOLID
 70
     1
 71
     1
 91
        1
 92
        1
 93
        4
 72
     1
 10
-85384.11850251964
 20
89698.68386921799
 11
-84823.39101485113
 21
90526.68428260602
 72
     1
 10
-84823.39101485113
 20
90526.68428260602
 11
-83995.39060146324
 21
89965.95679493763
 72
     1
 10
-83995.39060146324
 20
89965.95679493763
 11
-84556.11808913163
 21
89137.95638154965
 72
     1
 10
-84556.11808913163
 20
89137.95638154965
 11
-85384.11850251964
 21
89698.68386921799
 97
        1
330
CC
 75
     1
 76
     1
 98
        1
 10
-9215193.376888251
 20
-6668314.87290352
450
        0
451
        0
460
0.0
461
0.0
452
        0
462
1.0
453
        2
463
0.0
 63
     5
421
      255
463
1.0
 63
     2
421
 16776960
470
LINEAR
1001
GradientColor1ACI
1070
     5
1001
GradientColor2ACI
1070
     2
1001
ACAD
1010
0.0
1020
0.0
1030
0.0
  0
LWPOLYLINE
  5
CC
102
{ACAD_REACTORS
330
CB
102
}
330
2
100
AcDbEntity
  8
S-TL-WALL-L
  6
Continuous
100
AcDbPolyline
 90
        4
 70
     1
 43
0.0
 10
-85384.11850251964
 20
89698.68386921799
 10
-84823.39101485113
 20
90526.68428260602
 10
-83995.39060146324
 20
89965.95679493763
 10
-84556.11808913163
 20
89137.95638154965
  0
HATCH
  5
CD
330
2
100
AcDbEntity
  8
S-TL-WALL
100
AcDbHatch
 10
0.0
 20
0.0
 30
0.0
210
0.0
220
0.0
230
1.0
  2
SOLID
 70
     1
 71
     1
 91
        1
 92
        1
 93
        4
 72
     1
 10
-85869.16039209588
 20
76339.56475218154
 11
-85308.4329044276
 21
77167.56516556957
 72
     1
 10
-85308.4329044276
 20
77167.56516556957
 11
-84480.43249103948
 21
76606.83767790119
 72
     1
 10
-84480.43249103948
 20
76606.83767790119
 11
-85041.15997870787
 21
75778.83726451316
 72
     1
 10
-85041.15997870787
 20
75778.83726451316
 11
-85869.16039209588
 21
76339.56475218154
 97
        1
330
CE
 75
     1
 76
     1
 98
        1
 10
-9215678.418777827
 20
-6681673.992020555
450
        0
451
        0
460
0.0
461
0.0
452
        0
462
1.0
453
        2
463
0.0
 63
     5
421
      255
463
1.0
 63
     2
421
 16776960
470
LINEAR
1001
GradientColor1ACI
1070
     5
1001
GradientColor2ACI
1070
     2
1001
ACAD
1010
0.0
1020
0.0
1030
0.0
  0
LWPOLYLINE
  5
CE
102
{ACAD_REACTORS
330
CD
102
}
330
2
100
AcDbEntity
  8
S-TL-WALL-L
  6
Continuous
100
AcDbPolyline
 90
        4
 70
     1
 43
0.0
 10
-85869.16039209588
 20
76339.56475218154
 10
-85308.4329044276
 20
77167.56516556957
 10
-84480.43249103948
 20
76606.83767790119
 10
-85041.15997870787
 20
75778.83726451316
  0
HATCH
  5
CF
330
2
100
AcDbEntity
  8
S-TL-WALL
100
AcDbHatch
 10
0.0
 20
0.0
 30
0.0
210
0.0
220
0.0
230
1.0
  2
SOLID
 70
     1
 71
     1
 91
        1
 92
        1
 93
        4
 72
     1
 10
-82691.70503767169
 20
81031.56649070934
 11
-82130.9775500033
 21
81859.56690409735
 72
     1
 10
-82130.9775500033
 20
81859.56690409735
 11
-81302.97713661528
 21
81298.83941642896
 72
     1
 10
-81302.97713661528
 20
81298.83941642896
 11
-81863.70462428367
 21
80470.83900304095
 72
     1
 10
-81863.70462428367
 20
80470.83900304095
 11
-82691.70503767169
 21
81031.56649070934
 97
        1
330
D0
 75
     1
 76
     1
 98
        1
 10
-9212500.963423407
 20
-6676981.990282026
450
        0
451
        0
460
0.0
461
0.0
452
        0
462
1.0
453
        2
463
0.0
 63
     5
421
      255
463
1.0
 63
     2
421
 16776960
470
LINEAR
1001
GradientColor1ACI
1070
     5
1001
GradientColor2ACI
1070
     2
1001
ACAD
1010
0.0
1020
0.0
1030
0.0
  0
LWPOLYLINE
  5
D0
102
{ACAD_REACTORS
330
CF
102
}
330
2
100
AcDbEntity
  8
S-TL-WALL-L
  6
Continuous
100
AcDbPolyline
 90
        4
 70
     1
 43
0.0
 10
-82691.70503767169
 20
81031.56649070934
 10
-82130.9775500033
 20
81859.56690409735
 10
-81302.97713661528
 20
81298.83941642896
 10
-81863.70462428367
 20
80470.83900304095
  0
HATCH
  5
D1
330
2
100
AcDbEntity
  8
S-TL-WALL
100
AcDbHatch
 10
0.0
 20
0.0
 30
0.0
210
0.0
220
0.0
230
1.0
  2
SOLID
 70
     1
 71
     1
 91
        1
 92
        1
 93
        4
 72
     1
 10
-79514.24968324832
 20
85723.568229239
 11
-78953.52219558003
 21
86551.568642627
 72
     1
 10
-78953.52219558003
 20
86551.568642627
 11
-78125.52178219214
 21
85990.84115495861
 72
     1
 10
-78125.52178219214
 20
85990.84115495861
 11
-78686.24926986042
 21
85162.84074157059
 72
     1
 10
-78686.24926986042
 20
85162.84074157059
 11
-79514.24968324832
 21
85723.568229239
 97
        1
330
D2
 75
     1
 76
     1
 98
        1
 10
-9209323.508068983
 20
-6672289.988543497
450
        0
451
        0
460
0.0
461
0.0
452
        0
462
1.0
453
        2
463
0.0
 63
     5
421
      255
463
1.0
 63
     2
421
 16776960
470
LINEAR
1001
GradientColor1ACI
1070
     5
1001
GradientColor2ACI
1070
     2
1001
ACAD
1010
0.0
1020
0.0
1030
0.0
  0
LWPOLYLINE
  5
D2
102
{ACAD_REACTORS
330
D1
102
}
330
2
100
AcDbEntity
  8
S-TL-WALL-L
  6
Continuous
100
AcDbPolyline
 90
        4
 70
     1
 43
0.0
 10
-79514.24968324832
 20
85723.568229239
 10
-78953.52219558003
 20
86551.568642627
 10
-78125.52178219214
 20
85990.84115495861
 10
-78686.24926986042
 20
85162.84074157059
  0
HATCH
  5
D3
330
2
100
AcDbEntity
  8
S-TL-WALL
100
AcDbHatch
 10
0.0
 20
0.0
 30
0.0
210
0.0
220
0.0
230
1.0
  2
SOLID
 70
     1
 71
     1
 91
        1
 92
        1
 93
        4
 72
     1
 10
-108584.1519599314
 20
180792.2759705591
 11
-108004.1812516224
 21
180638.54250802
 72
     1
 10
-108004.1812516224
 20
180638.54250802
 11
-108157.9147141611
 21
180058.5717997118
 72
     1
 10
-108157.9147141611
 20
180058.5717997118
 11
-108737.8854224698
 21
180212.3052622503
 72
     1
 10
-108737.8854224698
 20
180212.3052622503
 11
-108584.1519599314
 21
180792.2759705591
 97
        1
330
D4
 75
     1
 76
     1
 98
        1
 10
-5743366.906997446
 20
4014579.236887174
450
        0
451
        0
460
0.0
461
0.0
452
        0
462
1.0
453
        2
463
0.0
 63
     5
421
      255
463
1.0
 63
     2
421
 16776960
470
LINEAR
1001
GradientColor1ACI
1070
     5
1001
GradientColor2ACI
1070
     2
1001
ACAD
1010
0.0
1020
0.0
1030
0.0
  0
LWPOLYLINE
  5
D4
102
{ACAD_REACTORS
330
D3
102
}
330
2
100
AcDbEntity
  8
S-TL-WALL-L
  6
Continuous
100
AcDbPolyline
 90
        4
 70
     1
 43
0.0
 10
-108584.1519599314
 20
180792.2759705591
 10
-108004.1812516224
 20
180638.54250802
 10
-108157.9147141611
 20
180058.5717997118
 10
-108737.8854224698
 20
180212.3052622503
  0
HATCH
  5
D5
330
2
100
AcDbEntity
  8
S-TL-WALL
100
AcDbHatch
 10
0.0
 20
0.0
 30
0.0
210
0.0
220
0.0
230
1.0
  2
SOLID
 70
     1
 71
     1
 91
        1
 92
        1
 93
        4
 72
     1
 10
-109993.382013575
 20
175475.8865888947
 11
-109413.4113052661
 21
175322.1531263557
 72
     1
 10
-109413.4113052661
 20
175322.1531263557
 11
-109567.1447678047
 21
174742.1824180474
 72
     1
 10
-109567.1447678047
 20
174742.1824180474
 11
-110147.1154761136
 21
174895.915880586
 72
     1
 10
-110147.1154761136
 20
174895.915880586
 11
-109993.382013575
 21
175475.8865888947
 97
        1
330
D6
 75
     1
 76
     1
 98
        1
 10
-5744776.137051088
 20
4009262.847505509
450
        0
451
        0
460
0.0
461
0.0
452
        0
462
1.0
453
        2
463
0.0
 63
     5
421
      255
463
1.0
 63
     2
421
 16776960
470
LINEAR
1001
GradientColor1ACI
1070
     5
1001
GradientColor2ACI
1070
     2
1001
ACAD
1010
0.0
1020
0.0
1030
0.0
  0
LWPOLYLINE
  5
D6
102
{ACAD_REACTORS
330
D5
102
}
330
2
100
AcDbEntity
  8
S-TL-WALL-L
  6
Continuous
100
AcDbPolyline
 90
        4
 70
     1
 43
0.0
 10
-109993.382013575
 20
175475.8865888947
 10
-109413.4113052661
 20
175322.1531263557
 10
-109567.1447678047
 20
174742.1824180474
 10
-110147.1154761136
 20
174895.915880586
  0
HATCH
  5
D7
330
2
100
AcDbEntity
  8
S-TL-WALL
100
AcDbHatch
 10
0.0
 20
0.0
 30
0.0
210
0.0
220
0.0
230
1.0
  2
SOLID
 70
     1
 71
     1
 91
        1
 92
        1
 93
        4
 72
     1
 10
-112094.399365884
 20
167549.6114214896
 11
-111514.4286575752
 21
167395.8779589505
 72
     1
 10
-111514.4286575752
 20
167395.8779589505
 11
-111668.1621201139
 21
166815.9072506423
 72
     1
 10
-111668.1621201139
 20
166815.9072506423
 11
-112248.1328284226
 21
166969.6407131809
 72
     1
 10
-112248.1328284226
 20
166969.6407131809
 11
-112094.399365884
 21
167549.6114214896
 97
        1
330
D8
 75
     1
 76
     1
 98
        1
 10
-5746877.154403399
 20
4001336.572338104
450
        0
451
        0
460
0.0
461
0.0
452
        0
462
1.0
453
        2
463
0.0
 63
     5
421
      255
463
1.0
 63
     2
421
 16776960
470
LINEAR
1001
GradientColor1ACI
1070
     5
1001
GradientColor2ACI
1070
     2
1001
ACAD
1010
0.0
1020
0.0
1030
0.0
  0
LWPOLYLINE
  5
D8
102
{ACAD_REACTORS
330
D7
102
}
330
2
100
AcDbEntity
  8
S-TL-WALL-L
  6
Continuous
100
AcDbPolyline
 90
        4
 70
     1
 43
0.0
 10
-112094.399365884
 20
167549.6114214896
 10
-111514.4286575752
 20
167395.8779589505
 10
-111668.1621201139
 20
166815.9072506423
 10
-112248.1328284226
 20
166969.6407131809
  0
HATCH
  5
D9
330
2
100
AcDbEntity
  8
S-TL-WALL
100
AcDbHatch
 10
0.0
 20
0.0
 30
0.0
210
0.0
220
0.0
230
1.0
  2
SOLID
 70
     1
 71
     1
 91
        1
 92
        1
 93
        4
 72
     1
 10
-112914.3111660916
 20
164456.4343105107
 11
-112334.3404577829
 21
164302.7008479717
 72
     1
 10
-112334.3404577829
 20
164302.7008479717
 11
-112488.0739203216
 21
163722.7301396634
 72
     1
 10
-112488.0739203216
 20
163722.7301396634
 11
-113068.0446286301
 21
163876.463602202
 72
     1
 10
-113068.0446286301
 20
163876.463602202
 11
-112914.3111660916
 21
164456.4343105107
 97
        1
330
DA
 75
     1
 76
     1
 98
        1
 10
-5747697.066203608
 20
3998243.395227127
450
        0
451
        0
460
0.0
461
0.0
452
        0
462
1.0
453
        2
463
0.0
 63
     5
421
      255
463
1.0
 63
     2
421
 16776960
470
LINEAR
1001
GradientColor1ACI
1070
     5
1001
GradientColor2ACI
1070
     2
1001
ACAD
1010
0.0
1020
0.0
1030
0.0
  0
LWPOLYLINE
  5
DA
102
{ACAD_REACTORS
330
D9
102
}
330
2
100
AcDbEntity
  8
S-TL-WALL-L
  6
Continuous
100
AcDbPolyline
 90
        4
 70
     1
 43
0.0
 10
-112914.3111660916
 20
164456.4343105107
 10
-112334.3404577829
 20
164302.7008479717
 10
-112488.0739203216
 20
163722.7301396634
 10
-113068.0446286301
 20
163876.463602202
  0
HATCH
  5
DB
330
2
100
AcDbEntity
  8
S-TL-WALL
100
AcDbHatch
 10
0.0
 20
0.0
 30
0.0
210
0.0
220
0.0
230
1.0
  2
SOLID
 70
     1
 71
     1
 91
        1
 92
        1
 93
        4
 72
     1
 10
-115015.3239335975
 20
156530.1579735358
 11
-114435.3532252886
 21
156376.4245109963
 72
     1
 10
-114435.3532252886
 20
156376.4245109963
 11
-114589.0866878271
 21
155796.4538026885
 72
     1
 10
-114589.0866878271
 20
155796.4538026885
 11
-115169.0573961361
 21
155950.187265227
 72
     1
 10
-115169.0573961361
 20
155950.187265227
 11
-115015.3239335975
 21
156530.1579735358
 97
        1
330
DC
 75
     1
 76
     1
 98
        1
 10
-5749798.078971113
 20
3990317.118890151
450
        0
451
        0
460
0.0
461
0.0
452
        0
462
1.0
453
        2
463
0.0
 63
     5
421
      255
463
1.0
 63
     2
421
 16776960
470
LINEAR
1001
GradientColor1ACI
1070
     5
1001
GradientColor2ACI
1070
     2
1001
ACAD
1010
0.0
1020
0.0
1030
0.0
  0
LWPOLYLINE
  5
DC
102
{ACAD_REACTORS
330
DB
102
}
330
2
100
AcDbEntity
  8
S-TL-WALL-L
  6
Continuous
100
AcDbPolyline
 90
        4
 70
     1
 43
0.0
 10
-115015.3239335975
 20
156530.1579735358
 10
-114435.3532252886
 20
156376.4245109963
 10
-114589.0866878271
 20
155796.4538026885
 10
-115169.0573961361
 20
155950.187265227
  0
HATCH
  5
DD
330
2
100
AcDbEntity
  8
S-TL-WALL
100
AcDbHatch
 10
0.0
 20
0.0
 30
0.0
210
0.0
220
0.0
230
1.0
  2
SOLID
 70
     1
 71
     1
 91
        1
 92
        1
 93
        4
 72
     1
 10
-117141.9826059982
 20
148507.2352291536
 11
-116562.0118976894
 21
148353.5017666141
 72
     1
 10
-116562.0118976894
 20
148353.5017666141
 11
-116715.7453602279
 21
147773.5310583063
 72
     1
 10
-116715.7453602279
 20
147773.5310583063
 11
-117295.7160685368
 21
147927.2645208449
 72
     1
 10
-117295.7160685368
 20
147927.2645208449
 11
-117141.9826059982
 21
148507.2352291536
 97
        1
330
DE
 75
     1
 76
     1
 98
        1
 10
-5751924.737643513
 20
3982294.196145767
450
        0
451
        0
460
0.0
461
0.0
452
        0
462
1.0
453
        2
463
0.0
 63
     5
421
      255
463
1.0
 63
     2
421
 16776960
470
LINEAR
1001
GradientColor1ACI
1070
     5
1001
GradientColor2ACI
1070
     2
1001
ACAD
1010
0.0
1020
0.0
1030
0.0
  0
LWPOLYLINE
  5
DE
102
{ACAD_REACTORS
330
DD
102
}
330
2
100
AcDbEntity
  8
S-TL-WALL-L
  6
Continuous
100
AcDbPolyline
 90
        4
 70
     1
 43
0.0
 10
-117141.9826059982
 20
148507.2352291536
 10
-116562.0118976894
 20
148353.5017666141
 10
-116715.7453602279
 20
147773.5310583063
 10
-117295.7160685368
 20
147927.2645208449
  0
HATCH
  5
DF
330
2
100
AcDbEntity
  8
S-TL-WALL
100
AcDbHatch
 10
0.0
 20
0.0
 30
0.0
210
0.0
220
0.0
230
1.0
  2
SOLID
 70
     1
 71
     1
 91
        1
 92
        1
 93
        4
 72
     1
 10
-111148.9519534771
 20
146918.6561162523
 11
-110568.9812451683
 21
146764.9226537132
 72
     1
 10
-110568.9812451683
 20
146764.9226537132
 11
-110722.7147077068
 21
146184.9519454049
 72
     1
 10
-110722.7147077068
 20
146184.9519454049
 11
-111302.6854160155
 21
146338.6854079435
 72
     1
 10
-111302.6854160155
 20
146338.6854079435
 11
-111148.9519534771
 21
146918.6561162523
 97
        1
330
E0
 75
     1
 76
     1
 98
        1
 10
-5745931.706990989
 20
3980705.617032867
450
        0
451
        0
460
0.0
461
0.0
452
        0
462
1.0
453
        2
463
0.0
 63
     5
421
      255
463
1.0
 63
     2
421
 16776960
470
LINEAR
1001
GradientColor1ACI
1070
     5
1001
GradientColor2ACI
1070
     2
1001
ACAD
1010
0.0
1020
0.0
1030
0.0
  0
LWPOLYLINE
  5
E0
102
{ACAD_REACTORS
330
DF
102
}
330
2
100
AcDbEntity
  8
S-TL-WALL-L
  6
Continuous
100
AcDbPolyline
 90
        4
 70
     1
 43
0.0
 10
-111148.9519534771
 20
146918.6561162523
 10
-110568.9812451683
 20
146764.9226537132
 10
-110722.7147077068
 20
146184.9519454049
 10
-111302.6854160155
 20
146338.6854079435
  0
HATCH
  5
E1
330
2
100
AcDbEntity
  8
S-TL-WALL
100
AcDbHatch
 10
0.0
 20
0.0
 30
0.0
210
0.0
220
0.0
230
1.0
  2
SOLID
 70
     1
 71
     1
 91
        1
 92
        1
 93
        4
 72
     1
 10
-107959.1130577798
 20
146073.1220722897
 11
-107379.1423494712
 21
145919.3886097506
 72
     1
 10
-107379.1423494712
 20
145919.3886097506
 11
-107532.8758120098
 21
145339.4179014424
 72
     1
 10
-107532.8758120098
 20
145339.4179014424
 11
-108112.8465203183
 21
145493.1513639809
 72
     1
 10
-108112.8465203183
 20
145493.1513639809
 11
-107959.1130577798
 21
146073.1220722897
 97
        1
330
E2
 75
     1
 76
     1
 98
        1
 10
-5742741.868095296
 20
3979860.082988904
450
        0
451
        0
460
0.0
461
0.0
452
        0
462
1.0
453
        2
463
0.0
 63
     5
421
      255
463
1.0
 63
     2
421
 16776960
470
LINEAR
1001
GradientColor1ACI
1070
     5
1001
GradientColor2ACI
1070
     2
1001
ACAD
1010
0.0
1020
0.0
1030
0.0
  0
LWPOLYLINE
  5
E2
102
{ACAD_REACTORS
330
E1
102
}
330
2
100
AcDbEntity
  8
S-TL-WALL-L
  6
Continuous
100
AcDbPolyline
 90
        4
 70
     1
 43
0.0
 10
-107959.1130577798
 20
146073.1220722897
 10
-107379.1423494712
 20
145919.3886097506
 10
-107532.8758120098
 20
145339.4179014424
 10
-108112.8465203183
 20
145493.1513639809
  0
HATCH
  5
E3
330
2
100
AcDbEntity
  8
S-TL-WALL
100
AcDbHatch
 10
0.0
 20
0.0
 30
0.0
210
0.0
220
0.0
230
1.0
  2
SOLID
 70
     1
 71
     1
 91
        1
 92
        1
 93
        4
 72
     1
 10
-105806.8433620006
 20
154192.7165920357
 11
-105226.8726536919
 21
154038.9831294971
 72
     1
 10
-105226.8726536919
 20
154038.9831294971
 11
-105380.6061162304
 21
153459.0124211884
 72
     1
 10
-105380.6061162304
 20
153459.0124211884
 11
-105960.5768245391
 21
153612.745883727
 72
     1
 10
-105960.5768245391
 20
153612.745883727
 11
-105806.8433620006
 21
154192.7165920357
 97
        1
330
E4
 75
     1
 76
     1
 98
        1
 10
-5740589.598399515
 20
3987979.677508652
450
        0
451
        0
460
0.0
461
0.0
452
        0
462
1.0
453
        2
463
0.0
 63
     5
421
      255
463
1.0
 63
     2
421
 16776960
470
LINEAR
1001
GradientColor1ACI
1070
     5
1001
GradientColor2ACI
1070
     2
1001
ACAD
1010
0.0
1020
0.0
1030
0.0
  0
LWPOLYLINE
  5
E4
102
{ACAD_REACTORS
330
E3
102
}
330
2
100
AcDbEntity
  8
S-TL-WALL-L
  6
Continuous
100
AcDbPolyline
 90
        4
 70
     1
 43
0.0
 10
-105806.8433620006
 20
154192.7165920357
 10
-105226.8726536919
 20
154038.9831294971
 10
-105380.6061162304
 20
153459.0124211884
 10
-105960.5768245391
 20
153612.745883727
  0
HATCH
  5
E5
330
2
100
AcDbEntity
  8
S-TL-WALL
100
AcDbHatch
 10
0.0
 20
0.0
 30
0.0
210
0.0
220
0.0
230
1.0
  2
SOLID
 70
     1
 71
     1
 91
        1
 92
        1
 93
        4
 72
     1
 10
-104717.6506913005
 20
179767.3783000014
 11
-104137.6799829915
 21
179613.6448374618
 72
     1
 10
-104137.6799829915
 20
179613.6448374618
 11
-104291.4134455301
 21
179033.6741291541
 72
     1
 10
-104291.4134455301
 20
179033.6741291541
 11
-104871.384153839
 21
179187.4075916926
 72
     1
 10
-104871.384153839
 20
179187.4075916926
 11
-104717.6506913005
 21
179767.3783000014
 97
        1
330
E6
 75
     1
 76
     1
 98
        1
 10
-5739500.405728815
 20
4013554.339216615
450
        0
451
        0
460
0.0
461
0.0
452
        0
462
1.0
453
        2
463
0.0
 63
     5
421
      255
463
1.0
 63
     2
421
 16776960
470
LINEAR
1001
GradientColor1ACI
1070
     5
1001
GradientColor2ACI
1070
     2
1001
ACAD
1010
0.0
1020
0.0
1030
0.0
  0
LWPOLYLINE
  5
E6
102
{ACAD_REACTORS
330
E5
102
}
330
2
100
AcDbEntity
  8
S-TL-WALL-L
  6
Continuous
100
AcDbPolyline
 90
        4
 70
     1
 43
0.0
 10
-104717.6506913005
 20
179767.3783000014
 10
-104137.6799829915
 20
179613.6448374618
 10
-104291.4134455301
 20
179033.6741291541
 10
-104871.384153839
 20
179187.4075916926
  0
HATCH
  5
E7
330
2
100
AcDbEntity
  8
S-TL-WALL
100
AcDbHatch
 10
0.0
 20
0.0
 30
0.0
210
0.0
220
0.0
230
1.0
  2
SOLID
 70
     1
 71
     1
 91
        1
 92
        1
 93
        4
 72
     1
 10
-98869.64259538331
 20
178217.2404729328
 11
-98289.67188707444
 21
178063.5070103942
 72
     1
 10
-98289.67188707434
 20
178063.5070103942
 11
-98443.4053496129
 21
177483.5363020855
 72
     1
 10
-98443.4053496129
 20
177483.5363020855
 11
-99023.37605792165
 21
177637.269764624
 72
     1
 10
-99023.37605792176
 20
177637.269764624
 11
-98869.64259538331
 21
178217.2404729328
 97
        1
330
E8
 75
     1
 76
     1
 98
        1
 10
-5733652.397632897
 20
4012004.201389547
450
        0
451
        0
460
0.0
461
0.0
452
        0
462
1.0
453
        2
463
0.0
 63
     5
421
      255
463
1.0
 63
     2
421
 16776960
470
LINEAR
1001
GradientColor1ACI
1070
     5
1001
GradientColor2ACI
1070
     2
1001
ACAD
1010
0.0
1020
0.0
1030
0.0
  0
LWPOLYLINE
  5
E8
102
{ACAD_REACTORS
330
E7
102
}
330
2
100
AcDbEntity
  8
S-TL-WALL-L
  6
Continuous
100
AcDbPolyline
 90
        4
 70
     1
 43
0.0
 10
-98869.64259538331
 20
178217.2404729328
 10
-98289.67188707434
 20
178063.5070103942
 10
-98443.4053496129
 20
177483.5363020855
 10
-99023.37605792176
 20
177637.269764624
  0
HATCH
  5
E9
330
2
100
AcDbEntity
  8
S-TL-WALL
100
AcDbHatch
 10
0.0
 20
0.0
 30
0.0
210
0.0
220
0.0
230
1.0
  2
SOLID
 70
     1
 71
     1
 91
        1
 92
        1
 93
        4
 72
     1
 10
-100278.8642643679
 20
172900.8488687384
 11
-99698.8935560592
 21
172747.1154061989
 72
     1
 10
-99698.8935560592
 20
172747.1154061989
 11
-99852.62701859765
 21
172167.144697891
 72
     1
 10
-99852.62701859765
 20
172167.144697891
 11
-100432.5977269065
 21
172320.8781604296
 72
     1
 10
-100432.5977269065
 20
172320.8781604296
 11
-100278.8642643679
 21
172900.8488687384
 97
        1
330
EA
 75
     1
 76
     1
 98
        1
 10
-5735061.619301883
 20
4006687.809785354
450
        0
451
        0
460
0.0
461
0.0
452
        0
462
1.0
453
        2
463
0.0
 63
     5
421
      255
463
1.0
 63
     2
421
 16776960
470
LINEAR
1001
GradientColor1ACI
1070
     5
1001
GradientColor2ACI
1070
     2
1001
ACAD
1010
0.0
1020
0.0
1030
0.0
  0
LWPOLYLINE
  5
EA
102
{ACAD_REACTORS
330
E9
102
}
330
2
100
AcDbEntity
  8
S-TL-WALL-L
  6
Continuous
100
AcDbPolyline
 90
        4
 70
     1
 43
0.0
 10
-100278.8642643679
 20
172900.8488687384
 10
-99698.8935560592
 20
172747.1154061989
 10
-99852.62701859765
 20
172167.144697891
 10
-100432.5977269065
 20
172320.8781604296
  0
HATCH
  5
EB
330
2
100
AcDbEntity
  8
S-TL-WALL
100
AcDbHatch
 10
0.0
 20
0.0
 30
0.0
210
0.0
220
0.0
230
1.0
  2
SOLID
 70
     1
 71
     1
 91
        1
 92
        1
 93
        4
 72
     1
 10
-111148.8655030101
 20
155505.2716581039
 11
-110568.8947947014
 21
155351.5381955648
 72
     1
 10
-110568.8947947014
 20
155351.5381955648
 11
-110722.6282572398
 21
154771.5674872566
 72
     1
 10
-110722.6282572398
 20
154771.5674872566
 11
-111302.5989655486
 21
154925.3009497952
 72
     1
 10
-111302.5989655486
 20
154925.3009497952
 11
-111148.8655030101
 21
155505.2716581039
 97
        1
330
EC
 75
     1
 76
     1
 98
        1
 10
-5745931.620540525
 20
3989292.232574718
450
        0
451
        0
460
0.0
461
0.0
452
        0
462
1.0
453
        2
463
0.0
 63
     5
421
      255
463
1.0
 63
     2
421
 16776960
470
LINEAR
1001
GradientColor1ACI
1070
     5
1001
GradientColor2ACI
1070
     2
1001
ACAD
1010
0.0
1020
0.0
1030
0.0
  0
LWPOLYLINE
  5
EC
102
{ACAD_REACTORS
330
EB
102
}
330
2
100
AcDbEntity
  8
S-TL-WALL-L
  6
Continuous
100
AcDbPolyline
 90
        4
 70
     1
 43
0.0
 10
-111148.8655030101
 20
155505.2716581039
 10
-110568.8947947014
 20
155351.5381955648
 10
-110722.6282572398
 20
154771.5674872566
 10
-111302.5989655486
 20
154925.3009497952
  0
HATCH
  5
ED
330
2
100
AcDbEntity
  8
S-TL-WALL
100
AcDbHatch
 10
0.0
 20
0.0
 30
0.0
210
0.0
220
0.0
230
1.0
  2
SOLID
 70
     1
 71
     1
 91
        1
 92
        1
 93
        4
 72
     1
 10
-106126.8758480658
 20
174450.9735379009
 11
-105546.9051397571
 21
174297.2400753614
 72
     1
 10
-105546.9051397571
 20
174297.2400753614
 11
-105700.6386022957
 21
173717.2693670536
 72
     1
 10
-105700.6386022957
 20
173717.2693670536
 11
-106280.6093106043
 21
173871.0028295922
 72
     1
 10
-106280.6093106043
 20
173871.0028295922
 11
-106126.8758480658
 21
174450.9735379009
 97
        1
330
EE
 75
     1
 76
     1
 98
        1
 10
-5740909.63088558
 20
4008237.934454515
450
        0
451
        0
460
0.0
461
0.0
452
        0
462
1.0
453
        2
463
0.0
 63
     5
421
      255
463
1.0
 63
     2
421
 16776960
470
LINEAR
1001
GradientColor1ACI
1070
     5
1001
GradientColor2ACI
1070
     2
1001
ACAD
1010
0.0
1020
0.0
1030
0.0
  0
LWPOLYLINE
  5
EE
102
{ACAD_REACTORS
330
ED
102
}
330
2
100
AcDbEntity
  8
S-TL-WALL-L
  6
Continuous
100
AcDbPolyline
 90
        4
 70
     1
 43
0.0
 10
-106126.8758480658
 20
174450.9735379009
 10
-105546.9051397571
 20
174297.2400753614
 10
-105700.6386022957
 20
173717.2693670536
 10
-106280.6093106043
 20
173871.0028295922
  0
HATCH
  5
EF
330
2
100
AcDbEntity
  8
S-TL-WALL
100
AcDbHatch
 10
0.0
 20
0.0
 30
0.0
210
0.0
220
0.0
230
1.0
  2
SOLID
 70
     1
 71
     1
 91
        1
 92
        1
 93
        4
 72
     1
 10
-108081.221930188
 20
163175.322122687
 11
-107501.2512218791
 21
163021.5886601484
 72
     1
 10
-107501.2512218791
 20
163021.5886601484
 11
-107654.9846844176
 21
162441.6179518397
 72
     1
 10
-107654.9846844176
 20
162441.6179518397
 11
-108234.9553927265
 21
162595.3514143782
 72
     1
 10
-108234.9553927265
 20
162595.3514143782
 11
-108081.221930188
 21
163175.322122687
 97
        1
330
F0
 75
     1
 76
     1
 98
        1
 10
-5742863.976967703
 20
3996962.283039303
450
        0
451
        0
460
0.0
461
0.0
452
        0
462
1.0
453
        2
463
0.0
 63
     5
421
      255
463
1.0
 63
     2
421
 16776960
470
LINEAR
1001
GradientColor1ACI
1070
     5
1001
GradientColor2ACI
1070
     2
1001
ACAD
1010
0.0
1020
0.0
1030
0.0
  0
LWPOLYLINE
  5
F0
102
{ACAD_REACTORS
330
EF
102
}
330
2
100
AcDbEntity
  8
S-TL-WALL-L
  6
Continuous
100
AcDbPolyline
 90
        4
 70
     1
 43
0.0
 10
-108081.221930188
 20
163175.322122687
 10
-107501.2512218791
 20
163021.5886601484
 10
-107654.9846844176
 20
162441.6179518397
 10
-108234.9553927265
 20
162595.3514143782
  0
HATCH
  5
F1
330
2
100
AcDbEntity
  8
S-TL-WALL
100
AcDbHatch
 10
0.0
 20
0.0
 30
0.0
210
0.0
220
0.0
230
1.0
  2
SOLID
 70
     1
 71
     1
 91
        1
 92
        1
 93
        4
 72
     1
 10
-107261.3101299805
 20
166268.4992336663
 11
-106681.3394216715
 21
166114.7657711268
 72
     1
 10
-106681.3394216715
 20
166114.7657711268
 11
-106835.0728842102
 21
165534.795062819
 72
     1
 10
-106835.0728842102
 20
165534.795062819
 11
-107415.0435925189
 21
165688.5285253576
 72
     1
 10
-107415.0435925189
 20
165688.5285253576
 11
-107261.3101299805
 21
166268.4992336663
 97
        1
330
F2
 75
     1
 76
     1
 98
        1
 10
-5742044.065167495
 20
4000055.460150281
450
        0
451
        0
460
0.0
461
0.0
452
        0
462
1.0
453
        2
463
0.0
 63
     5
421
      255
463
1.0
 63
     2
421
 16776960
470
LINEAR
1001
GradientColor1ACI
1070
     5
1001
GradientColor2ACI
1070
     2
1001
ACAD
1010
0.0
1020
0.0
1030
0.0
  0
LWPOLYLINE
  5
F2
102
{ACAD_REACTORS
330
F1
102
}
330
2
100
AcDbEntity
  8
S-TL-WALL-L
  6
Continuous
100
AcDbPolyline
 90
        4
 70
     1
 43
0.0
 10
-107261.3101299805
 20
166268.4992336663
 10
-106681.3394216715
 20
166114.7657711268
 10
-106835.0728842102
 20
165534.795062819
 10
-107415.0435925189
 20
165688.5285253576
  0
HATCH
  5
F3
330
2
100
AcDbEntity
  8
S-TL-WALL
100
AcDbHatch
 10
0.0
 20
0.0
 30
0.0
210
0.0
220
0.0
230
1.0
  2
SOLID
 70
     1
 71
     1
 91
        1
 92
        1
 93
        4
 72
     1
 10
-95950.16794806891
 20
159959.7305312506
 11
-95370.19723976017
 21
159805.9970687111
 72
     1
 10
-95370.19723976017
 20
159805.9970687111
 11
-95523.93070229873
 21
159226.0263604032
 72
     1
 10
-95523.93070229873
 20
159226.0263604032
 11
-96103.90141060737
 21
159379.7598229418
 72
     1
 10
-96103.90141060737
 20
159379.7598229418
 11
-95950.16794806891
 21
159959.7305312506
 97
        1
330
F4
 75
     1
 76
     1
 98
        1
 10
-5730732.922985581
 20
3993746.691447864
450
        0
451
        0
460
0.0
461
0.0
452
        0
462
1.0
453
        2
463
0.0
 63
     5
421
      255
463
1.0
 63
     2
421
 16776960
470
LINEAR
1001
GradientColor1ACI
1070
     5
1001
GradientColor2ACI
1070
     2
1001
ACAD
1010
0.0
1020
0.0
1030
0.0
  0
LWPOLYLINE
  5
F4
102
{ACAD_REACTORS
330
F3
102
}
330
2
100
AcDbEntity
  8
S-TL-WALL-L
  6
Continuous
100
AcDbPolyline
 90
        4
 70
     1
 43
0.0
 10
-95950.16794806891
 20
159959.7305312506
 10
-95370.19723976017
 20
159805.9970687111
 10
-95523.93070229873
 20
159226.0263604032
 10
-96103.90141060737
 20
159379.7598229418
  0
HATCH
  5
F5
330
2
100
AcDbEntity
  8
S-TL-WALL
100
AcDbHatch
 10
0.0
 20
0.0
 30
0.0
210
0.0
220
0.0
230
1.0
  2
SOLID
 70
     1
 71
     1
 91
        1
 92
        1
 93
        4
 72
     1
 10
-95130.25614786123
 20
163052.907642229
 11
-94550.28543955259
 21
162899.1741796904
 72
     1
 10
-94550.28543955247
 20
162899.1741796904
 11
-94704.01890209105
 21
162319.2034713816
 72
     1
 10
-94704.01890209105
 20
162319.2034713816
 11
-95283.98961039979
 21
162472.9369339202
 72
     1
 10
-95283.98961039979
 20
162472.9369339202
 11
-95130.25614786123
 21
163052.907642229
 97
        1
330
F6
 75
     1
 76
     1
 98
        1
 10
-5729913.011185376
 20
3996839.868558844
450
        0
451
        0
460
0.0
461
0.0
452
        0
462
1.0
453
        2
463
0.0
 63
     5
421
      255
463
1.0
 63
     2
421
 16776960
470
LINEAR
1001
GradientColor1ACI
1070
     5
1001
GradientColor2ACI
1070
     2
1001
ACAD
1010
0.0
1020
0.0
1030
0.0
  0
LWPOLYLINE
  5
F6
102
{ACAD_REACTORS
330
F5
102
}
330
2
100
AcDbEntity
  8
S-TL-WALL-L
  6
Continuous
100
AcDbPolyline
 90
        4
 70
     1
 43
0.0
 10
-95130.25614786123
 20
163052.907642229
 10
-94550.28543955247
 20
162899.1741796904
 10
-94704.01890209105
 20
162319.2034713816
 10
-95283.98961039979
 20
162472.9369339202
  0
HATCH
  5
F7
330
2
100
AcDbEntity
  8
S-TL-WALL
100
AcDbHatch
 10
0.0
 20
0.0
 30
0.0
210
0.0
220
0.0
230
1.0
  2
SOLID
 70
     1
 71
     0
 91
        2
 92
        1
 93
        4
 72
     1
 10
-103512.4087947334
 20
170654.3540943381
 11
-95634.4722620869
 21
168566.1409424068
 72
     1
 10
-95634.47226208806
 20
168566.1409424063
 11
-99272.83141427391
 21
154840.1676564426
 72
     1
 10
-99272.83141427286
 20
154840.1676564435
 11
-107150.7679469193
 21
156928.3808083748
 72
     1
 10
-107150.7679469193
 20
156928.3808083743
 11
-103512.4087947335
 21
170654.3540943381
 97
        0
 92
       18
 72
     0
 73
     1
 93
        4
 10
-95879.04085050684
 20
168424.062001361
 10
-99414.91048860441
 20
155084.7357113794
 10
-106906.1993585004
 20
157070.4597494206
 10
-103370.3297204027
 20
170409.7860394013
 97
        0
 75
     1
 76
     1
 98
        1
 10
-5667633.261489
 20
3978561.722726695
450
        0
451
        0
460
0.0
461
0.0
452
        0
462
1.0
453
        2
463
0.0
 63
     5
421
      255
463
1.0
 63
     2
421
 16776960
470
LINEAR
1001
GradientColor1ACI
1070
     5
1001
GradientColor2ACI
1070
     2
1001
ACAD
1010
0.0
1020
0.0
1030
0.0
  0
LWPOLYLINE
  5
F8
330
2
100
AcDbEntity
  8
S-TL-WALL-L
  6
Continuous
100
AcDbPolyline
 90
        4
 70
     1
 43
0.0
 10
-103512.4087947334
 20
170654.3540943381
 10
-95634.47226208806
 20
168566.1409424063
 10
-99272.83141427286
 20
154840.1676564435
 10
-107150.7679469193
 20
156928.3808083743
  0
LWPOLYLINE
  5
F9
330
2
100
AcDbEntity
  8
S-TL-WALL-L
  6
Continuous
100
AcDbPolyline
 90
        4
 70
     1
 43
0.0
 10
-103370.3297204027
 20
170409.7860394013
 10
-95879.04032662962
 20
168424.0618624962
 10
-99414.91048860441
 20
155084.7357113794
 10
-106906.1998823777
 20
157070.4598882855
  0
HATCH
  5
FA
330
2
100
AcDbEntity
  8
S-TL-WALL
100
AcDbHatch
 10
0.0
 20
0.0
 30
0.0
210
0.0
220
0.0
230
1.0
  2
SOLID
 70
     1
 71
     1
 91
        1
 92
        1
 93
        4
 72
     1
 10
-95921.45816224519
 20
177435.7620385685
 11
-96501.42887055393
 21
177589.495501107
 72
     1
 10
-96501.4288705537
 20
177589.495501107
 11
-96655.16233309332
 21
177009.5247927992
 72
     1
 10
-96655.16233309332
 20
177009.5247927992
 11
-96075.19162478459
 21
176855.7913302602
 72
     1
 10
-96075.19162478459
 20
176855.7913302602
 11
-95921.45816224508
 21
177435.7620385685
 97
        1
330
FB
 75
     1
 76
     1
 98
        1
 10
6698036.7788196
 20
716722.9140354779
450
        0
451
        0
460
0.0
461
0.0
452
        0
462
1.0
453
        2
463
0.0
 63
     5
421
      255
463
1.0
 63
     2
421
 16776960
470
LINEAR
1001
GradientColor1ACI
1070
     5
1001
GradientColor2ACI
1070
     2
1001
ACAD
1010
0.0
1020
0.0
1030
0.0
  0
LWPOLYLINE
  5
FB
102
{ACAD_REACTORS
330
FA
102
}
330
2
100
AcDbEntity
  8
S-TL-WALL-L
  6
Continuous
100
AcDbPolyline
 90
        4
 70
     1
 43
0.0
 10
-95921.45816224519
 20
177435.7620385685
 10
-96501.4288705537
 20
177589.495501107
 10
-96655.16233309332
 20
177009.5247927992
 10
-96075.19162478459
 20
176855.7913302602
  0
HATCH
  5
FC
330
2
100
AcDbEntity
  8
S-TL-WALL
100
AcDbHatch
 10
0.0
 20
0.0
 30
0.0
210
0.0
220
0.0
230
1.0
  2
SOLID
 70
     1
 71
     1
 91
        1
 92
        1
 93
        4
 72
     1
 10
-90073.45006632499
 20
175885.6242115004
 11
-90653.42077463373
 21
176039.3576740394
 72
     1
 10
-90653.42077463373
 20
176039.3576740394
 11
-90807.15423717323
 21
175459.3869657307
 72
     1
 10
-90807.15423717323
 20
175459.3869657307
 11
-90227.1835288645
 21
175305.6535031921
 72
     1
 10
-90227.1835288645
 20
175305.6535031921
 11
-90073.45006632499
 21
175885.6242115004
 97
        1
330
FD
 75
     1
 76
     1
 98
        1
 10
6703884.786915518
 20
715172.7762084096
450
        0
451
        0
460
0.0
461
0.0
452
        0
462
1.0
453
        2
463
0.0
 63
     5
421
      255
463
1.0
 63
     2
421
 16776960
470
LINEAR
1001
GradientColor1ACI
1070
     5
1001
GradientColor2ACI
1070
     2
1001
ACAD
1010
0.0
1020
0.0
1030
0.0
  0
LWPOLYLINE
  5
FD
102
{ACAD_REACTORS
330
FC
102
}
330
2
100
AcDbEntity
  8
S-TL-WALL-L
  6
Continuous
100
AcDbPolyline
 90
        4
 70
     1
 43
0.0
 10
-90073.45006632499
 20
175885.6242115004
 10
-90653.42077463373
 20
176039.3576740394
 10
-90807.15423717323
 20
175459.3869657307
 10
-90227.1835288645
 20
175305.6535031921
  0
HATCH
  5
FE
330
2
100
AcDbEntity
  8
S-TL-WALL
100
AcDbHatch
 10
0.0
 20
0.0
 30
0.0
210
0.0
220
0.0
230
1.0
  2
SOLID
 70
     1
 71
     1
 91
        1
 92
        1
 93
        4
 72
     1
 10
-86206.94879769612
 20
174860.7265409417
 11
-86786.91950600462
 21
175014.4600034808
 72
     1
 10
-86786.91950600462
 20
175014.4600034808
 11
-86940.65296854402
 21
174434.489295172
 72
     1
 10
-86940.65296854402
 20
174434.489295172
 11
-86360.68226023551
 21
174280.7558326334
 72
     1
 10
-86360.68226023551
 20
174280.7558326334
 11
-86206.94879769612
 21
174860.7265409417
 97
        1
330
FF
 75
     1
 76
     1
 98
        1
 10
6707751.288184153
 20
714147.8785378509
450
        0
451
        0
460
0.0
461
0.0
452
        0
462
1.0
453
        2
463
0.0
 63
     5
421
      255
463
1.0
 63
     2
421
 16776960
470
LINEAR
1001
GradientColor1ACI
1070
     5
1001
GradientColor2ACI
1070
     2
1001
ACAD
1010
0.0
1020
0.0
1030
0.0
  0
LWPOLYLINE
  5
FF
102
{ACAD_REACTORS
330
FE
102
}
330
2
100
AcDbEntity
  8
S-TL-WALL-L
  6
Continuous
100
AcDbPolyline
 90
        4
 70
     1
 43
0.0
 10
-86206.94879769612
 20
174860.7265409417
 10
-86786.91950600462
 20
175014.4600034808
 10
-86940.65296854402
 20
174434.489295172
 10
-86360.68226023551
 20
174280.7558326334
  0
HATCH
  5
100
330
2
100
AcDbEntity
  8
S-TL-WALL
100
AcDbHatch
 10
0.0
 20
0.0
 30
0.0
210
0.0
220
0.0
230
1.0
  2
SOLID
 70
     1
 71
     1
 91
        1
 92
        1
 93
        4
 72
     1
 10
-91482.67522309042
 20
170569.2194494004
 11
-92062.64593139916
 21
170722.952911939
 72
     1
 10
-92062.64593139916
 20
170722.952911939
 11
-92216.37939393867
 21
170142.9822036312
 72
     1
 10
-92216.37939393867
 20
170142.9822036312
 11
-91636.4086856298
 21
169989.2487410921
 72
     1
 10
-91636.4086856298
 20
169989.2487410921
 11
-91482.67522309042
 21
170569.2194494004
 97
        1
330
101
 75
     1
 76
     1
 98
        1
 10
6702475.561758756
 20
709856.3714463096
450
        0
451
        0
460
0.0
461
0.0
452
        0
462
1.0
453
        2
463
0.0
 63
     5
421
      255
463
1.0
 63
     2
421
 16776960
470
LINEAR
1001
GradientColor1ACI
1070
     5
1001
GradientColor2ACI
1070
     2
1001
ACAD
1010
0.0
1020
0.0
1030
0.0
  0
LWPOLYLINE
  5
101
102
{ACAD_REACTORS
330
100
102
}
330
2
100
AcDbEntity
  8
S-TL-WALL-L
  6
Continuous
100
AcDbPolyline
 90
        4
 70
     1
 43
0.0
 10
-91482.67522309042
 20
170569.2194494004
 10
-92062.64593139916
 20
170722.952911939
 10
-92216.37939393867
 20
170142.9822036312
 10
-91636.4086856298
 20
169989.2487410921
  0
HATCH
  5
102
330
2
100
AcDbEntity
  8
S-TL-WALL
100
AcDbHatch
 10
0.0
 20
0.0
 30
0.0
210
0.0
220
0.0
230
1.0
  2
SOLID
 70
     1
 71
     1
 91
        1
 92
        1
 93
        4
 72
     1
 10
-96504.60511821959
 20
151623.5017290045
 11
-97084.57582652833
 21
151777.2351915431
 72
     1
 10
-97084.57582652833
 20
151777.2351915431
 11
-97238.30928906773
 21
151197.2644832353
 72
     1
 10
-97238.30928906773
 20
151197.2644832353
 11
-96658.33858075899
 21
151043.5310206962
 72
     1
 10
-96658.33858075899
 20
151043.5310206962
 11
-96504.60511821949
 21
151623.5017290045
 97
        1
330
103
 75
     1
 76
     1
 98
        1
 10
6697453.631863627
 20
690910.6537259138
450
        0
451
        0
460
0.0
461
0.0
452
        0
462
1.0
453
        2
463
0.0
 63
     5
421
      255
463
1.0
 63
     2
421
 16776960
470
LINEAR
1001
GradientColor1ACI
1070
     5
1001
GradientColor2ACI
1070
     2
1001
ACAD
1010
0.0
1020
0.0
1030
0.0
  0
LWPOLYLINE
  5
103
102
{ACAD_REACTORS
330
102
102
}
330
2
100
AcDbEntity
  8
S-TL-WALL-L
  6
Continuous
100
AcDbPolyline
 90
        4
 70
     1
 43
0.0
 10
-96504.60511821959
 20
151623.5017290045
 10
-97084.57582652833
 20
151777.2351915431
 10
-97238.30928906773
 20
151197.2644832353
 10
-96658.33858075899
 20
151043.5310206962
  0
HATCH
  5
104
330
2
100
AcDbEntity
  8
S-TL-WALL
100
AcDbHatch
 10
0.0
 20
0.0
 30
0.0
210
0.0
220
0.0
230
1.0
  2
SOLID
 70
     1
 71
     1
 91
        1
 92
        1
 93
        4
 72
     1
 10
-96799.04001490093
 20
171978.4480936126
 11
-97379.01072320967
 21
172132.1815561517
 72
     1
 10
-97379.0107232098
 20
172132.1815561517
 11
-97532.7441857493
 21
171552.210847843
 72
     1
 10
-97532.74418574918
 20
171552.210847843
 11
-96952.77347744044
 21
171398.4773853044
 72
     1
 10
-96952.77347744044
 20
171398.4773853044
 11
-96799.04001490093
 21
171978.4480936126
 97
        1
330
105
 75
     1
 76
     1
 98
        1
 10
6697159.196966945
 20
711265.600090522
450
        0
451
        0
460
0.0
461
0.0
452
        0
462
1.0
453
        2
463
0.0
 63
     5
421
      255
463
1.0
 63
     2
421
 16776960
470
LINEAR
1001
GradientColor1ACI
1070
     5
1001
GradientColor2ACI
1070
     2
1001
ACAD
1010
0.0
1020
0.0
1030
0.0
  0
LWPOLYLINE
  5
105
102
{ACAD_REACTORS
330
104
102
}
330
2
100
AcDbEntity
  8
S-TL-WALL-L
  6
Continuous
100
AcDbPolyline
 90
        4
 70
     1
 43
0.0
 10
-96799.04001490093
 20
171978.4480936126
 10
-97379.0107232098
 20
172132.1815561517
 10
-97532.74418574918
 20
171552.210847843
 10
-96952.77347744044
 20
171398.4773853044
  0
HATCH
  5
106
330
2
100
AcDbEntity
  8
S-TL-WALL
100
AcDbHatch
 10
0.0
 20
0.0
 30
0.0
210
0.0
220
0.0
230
1.0
  2
SOLID
 70
     1
 71
     1
 91
        1
 92
        1
 93
        4
 72
     1
 10
-101795.3792961991
 20
153129.3934761476
 11
-102375.3500045079
 21
153283.1269386862
 72
     1
 10
-102375.350004508
 20
153283.1269386862
 11
-102529.0834670475
 21
152703.1562303784
 72
     1
 10
-102529.0834670475
 20
152703.1562303784
 11
-101949.1127587388
 21
152549.4227678394
 72
     1
 10
-101949.1127587388
 20
152549.4227678394
 11
-101795.3792961993
 21
153129.3934761476
 97
        1
330
107
 75
     1
 76
     1
 98
        1
 10
6692162.857685647
 20
692416.5454730567
450
        0
451
        0
460
0.0
461
0.0
452
        0
462
1.0
453
        2
463
0.0
 63
     5
421
      255
463
1.0
 63
     2
421
 16776960
470
LINEAR
1001
GradientColor1ACI
1070
     5
1001
GradientColor2ACI
1070
     2
1001
ACAD
1010
0.0
1020
0.0
1030
0.0
  0
LWPOLYLINE
  5
107
102
{ACAD_REACTORS
330
106
102
}
330
2
100
AcDbEntity
  8
S-TL-WALL-L
  6
Continuous
100
AcDbPolyline
 90
        4
 70
     1
 43
0.0
 10
-101795.3792961991
 20
153129.3934761476
 10
-102375.350004508
 20
153283.1269386862
 10
-102529.0834670475
 20
152703.1562303784
 10
-101949.1127587388
 20
152549.4227678394
  0
HATCH
  5
108
330
2
100
AcDbEntity
  8
S-TL-WALL
100
AcDbHatch
 10
0.0
 20
0.0
 30
0.0
210
0.0
220
0.0
230
1.0
  2
SOLID
 70
     1
 71
     1
 91
        1
 92
        1
 93
        4
 72
     1
 10
-103947.6489919802
 20
145009.7989564016
 11
-104527.6197002891
 21
145163.5324189406
 72
     1
 10
-104527.6197002891
 20
145163.5324189406
 11
-104681.3531628286
 21
144583.5617106319
 72
     1
 10
-104681.3531628286
 20
144583.5617106319
 11
-104101.3824545197
 21
144429.8282480933
 72
     1
 10
-104101.3824545197
 20
144429.8282480933
 11
-103947.6489919802
 21
145009.7989564016
 97
        1
330
109
 75
     1
 76
     1
 98
        1
 10
6690010.587989866
 20
684296.9509533111
450
        0
451
        0
460
0.0
461
0.0
452
        0
462
1.0
453
        2
463
0.0
 63
     5
421
      255
463
1.0
 63
     2
421
 16776960
470
LINEAR
1001
GradientColor1ACI
1070
     5
1001
GradientColor2ACI
1070
     2
1001
ACAD
1010
0.0
1020
0.0
1030
0.0
  0
LWPOLYLINE
  5
109
102
{ACAD_REACTORS
330
108
102
}
330
2
100
AcDbEntity
  8
S-TL-WALL-L
  6
Continuous
100
AcDbPolyline
 90
        4
 70
     1
 43
0.0
 10
-103947.6489919802
 20
145009.7989564016
 10
-104527.6197002891
 20
145163.5324189406
 10
-104681.3531628286
 20
144583.5617106319
 10
-104101.3824545197
 20
144429.8282480933
  0
HATCH
  5
10A
330
2
100
AcDbEntity
  8
S-TL-WALL
100
AcDbHatch
 10
0.0
 20
0.0
 30
0.0
210
0.0
220
0.0
230
1.0
  2
SOLID
 70
     1
 71
     1
 91
        1
 92
        1
 93
        4
 72
     1
 10
-100757.8100962832
 20
144164.2649124376
 11
-101337.7808045919
 21
144317.9983749766
 72
     1
 10
-101337.7808045919
 20
144317.9983749766
 11
-101491.5142671314
 21
143738.0276666679
 72
     1
 10
-101491.5142671314
 20
143738.0276666679
 11
-100911.5435588227
 21
143584.2942041293
 72
     1
 10
-100911.5435588227
 20
143584.2942041293
 11
-100757.8100962832
 21
144164.2649124376
 97
        1
330
10B
 75
     1
 76
     1
 98
        1
 10
6693200.426885562
 20
683451.4169093471
450
        0
451
        0
460
0.0
461
0.0
452
        0
462
1.0
453
        2
463
0.0
 63
     5
421
      255
463
1.0
 63
     2
421
 16776960
470
LINEAR
1001
GradientColor1ACI
1070
     5
1001
GradientColor2ACI
1070
     2
1001
ACAD
1010
0.0
1020
0.0
1030
0.0
  0
LWPOLYLINE
  5
10B
102
{ACAD_REACTORS
330
10A
102
}
330
2
100
AcDbEntity
  8
S-TL-WALL-L
  6
Continuous
100
AcDbPolyline
 90
        4
 70
     1
 43
0.0
 10
-100757.8100962832
 20
144164.2649124376
 10
-101337.7808045919
 20
144317.9983749766
 10
-101491.5142671314
 20
143738.0276666679
 10
-100911.5435588227
 20
143584.2942041293
  0
HATCH
  5
10C
330
2
100
AcDbEntity
  8
S-TL-WALL
100
AcDbHatch
 10
0.0
 20
0.0
 30
0.0
210
0.0
220
0.0
230
1.0
  2
SOLID
 70
     1
 71
     1
 91
        1
 92
        1
 93
        4
 72
     1
 10
-94764.77944376025
 20
142575.6857995363
 11
-95344.75015206901
 21
142729.4192620753
 72
     1
 10
-95344.75015206888
 20
142729.4192620753
 11
-95498.48361460838
 21
142149.4485537666
 72
     1
 10
-95498.48361460838
 20
142149.4485537666
 11
-94918.51290629965
 21
141995.715091228
 72
     1
 10
-94918.51290629965
 20
141995.715091228
 11
-94764.77944376002
 21
142575.6857995363
 97
        1
330
10D
 75
     1
 76
     1
 98
        1
 10
6699193.457538086
 20
681862.8377964455
450
        0
451
        0
460
0.0
461
0.0
452
        0
462
1.0
453
        2
463
0.0
 63
     5
421
      255
463
1.0
 63
     2
421
 16776960
470
LINEAR
1001
GradientColor1ACI
1070
     5
1001
GradientColor2ACI
1070
     2
1001
ACAD
1010
0.0
1020
0.0
1030
0.0
  0
LWPOLYLINE
  5
10D
102
{ACAD_REACTORS
330
10C
102
}
330
2
100
AcDbEntity
  8
S-TL-WALL-L
  6
Continuous
100
AcDbPolyline
 90
        4
 70
     1
 43
0.0
 10
-94764.77944376025
 20
142575.6857995363
 10
-95344.75015206888
 20
142729.4192620753
 10
-95498.48361460838
 20
142149.4485537666
 10
-94918.51290629965
 20
141995.715091228
  0
HATCH
  5
10E
330
2
100
AcDbEntity
  8
S-TL-WALL
100
AcDbHatch
 10
0.0
 20
0.0
 30
0.0
210
0.0
220
0.0
230
1.0
  2
SOLID
 70
     1
 71
     1
 91
        1
 92
        1
 93
        4
 72
     1
 10
-92638.14668763496
 20
150598.6154135726
 11
-93218.1173959437
 21
150752.3488761116
 72
     1
 10
-93218.1173959437
 20
150752.3488761116
 11
-93371.85085848332
 21
150172.3781678029
 72
     1
 10
-93371.8508584832
 20
150172.3781678029
 11
-92791.88015017446
 21
150018.6447052643
 72
     1
 10
-92791.88015017446
 20
150018.6447052643
 11
-92638.14668763496
 21
150598.6154135726
 97
        1
330
10F
 75
     1
 76
     1
 98
        1
 10
6701320.090294212
 20
689885.7674104819
450
        0
451
        0
460
0.0
461
0.0
452
        0
462
1.0
453
        2
463
0.0
 63
     5
421
      255
463
1.0
 63
     2
421
 16776960
470
LINEAR
1001
GradientColor1ACI
1070
     5
1001
GradientColor2ACI
1070
     2
1001
ACAD
1010
0.0
1020
0.0
1030
0.0
  0
LWPOLYLINE
  5
10F
102
{ACAD_REACTORS
330
10E
102
}
330
2
100
AcDbEntity
  8
S-TL-WALL-L
  6
Continuous
100
AcDbPolyline
 90
        4
 70
     1
 43
0.0
 10
-92638.14668763496
 20
150598.6154135726
 10
-93218.1173959437
 20
150752.3488761116
 10
-93371.8508584832
 20
150172.3781678029
 10
-92791.88015017446
 20
150018.6447052643
  0
HATCH
  5
110
330
2
100
AcDbEntity
  8
S-TL-WALL
100
AcDbHatch
 10
0.0
 20
0.0
 30
0.0
210
0.0
220
0.0
230
1.0
  2
SOLID
 70
     1
 71
     1
 91
        1
 92
        1
 93
        4
 72
     1
 10
-90537.10800385543
 20
158524.8848808938
 11
-91117.07871216427
 21
158678.6183434329
 72
     1
 10
-91117.07871216404
 20
158678.6183434329
 11
-91270.81217470367
 21
158098.6476351241
 72
     1
 10
-91270.81217470367
 20
158098.6476351241
 11
-90690.84146639481
 21
157944.9141725856
 72
     1
 10
-90690.84146639481
 20
157944.9141725856
 11
-90537.10800385543
 21
158524.8848808938
 97
        1
330
111
 75
     1
 76
     1
 98
        1
 10
6703421.128977991
 20
697812.0368778032
450
        0
451
        0
460
0.0
461
0.0
452
        0
462
1.0
453
        2
463
0.0
 63
     5
421
      255
463
1.0
 63
     2
421
 16776960
470
LINEAR
1001
GradientColor1ACI
1070
     5
1001
GradientColor2ACI
1070
     2
1001
ACAD
1010
0.0
1020
0.0
1030
0.0
  0
LWPOLYLINE
  5
111
102
{ACAD_REACTORS
330
110
102
}
330
2
100
AcDbEntity
  8
S-TL-WALL-L
  6
Continuous
100
AcDbPolyline
 90
        4
 70
     1
 43
0.0
 10
-90537.10800385543
 20
158524.8848808938
 10
-91117.07871216404
 20
158678.6183434329
 10
-91270.81217470367
 20
158098.6476351241
 10
-90690.84146639481
 20
157944.9141725856
  0
HATCH
  5
112
330
2
100
AcDbEntity
  8
S-TL-WALL
100
AcDbHatch
 10
0.0
 20
0.0
 30
0.0
210
0.0
220
0.0
230
1.0
  2
SOLID
 70
     1
 71
     1
 91
        1
 92
        1
 93
        4
 72
     1
 10
-89717.19620364599
 20
161618.0619918727
 11
-90297.16691195472
 21
161771.7954544113
 72
     1
 10
-90297.16691195472
 20
161771.7954544113
 11
-90450.90037449435
 21
161191.8247461034
 72
     1
 10
-90450.90037449435
 20
161191.8247461034
 11
-89870.92966618549
 21
161038.0912835644
 72
     1
 10
-89870.92966618572
 20
161038.0912835644
 11
-89717.19620364611
 21
161618.0619918727
 97
        1
330
113
 75
     1
 76
     1
 98
        1
 10
6704241.0407782
 20
700905.2139887822
450
        0
451
        0
460
0.0
461
0.0
452
        0
462
1.0
453
        2
463
0.0
 63
     5
421
      255
463
1.0
 63
     2
421
 16776960
470
LINEAR
1001
GradientColor1ACI
1070
     5
1001
GradientColor2ACI
1070
     2
1001
ACAD
1010
0.0
1020
0.0
1030
0.0
  0
LWPOLYLINE
  5
113
102
{ACAD_REACTORS
330
112
102
}
330
2
100
AcDbEntity
  8
S-TL-WALL-L
  6
Continuous
100
AcDbPolyline
 90
        4
 70
     1
 43
0.0
 10
-89717.19620364599
 20
161618.0619918727
 10
-90297.16691195472
 20
161771.7954544113
 10
-90450.90037449435
 20
161191.8247461034
 10
-89870.92966618572
 20
161038.0912835644
  0
HATCH
  5
114
330
2
100
AcDbEntity
  8
S-TL-WALL
100
AcDbHatch
 10
0.0
 20
0.0
 30
0.0
210
0.0
220
0.0
230
1.0
  2
SOLID
 70
     1
 71
     1
 91
        1
 92
        1
 93
        4
 72
     1
 10
-87616.16208202086
 20
169544.3327142167
 11
-88196.1327903296
 21
169698.0661767558
 72
     1
 10
-88196.1327903296
 20
169698.0661767558
 11
-88349.8662528691
 21
169118.0954684471
 72
     1
 10
-88349.8662528691
 20
169118.0954684471
 11
-87769.89554456037
 21
168964.3620059085
 72
     1
 10
-87769.89554456037
 20
168964.3620059085
 11
-87616.16208202086
 21
169544.3327142167
 97
        1
330
115
 75
     1
 76
     1
 98
        1
 10
6706342.074899826
 20
708831.484711126
450
        0
451
        0
460
0.0
461
0.0
452
        0
462
1.0
453
        2
463
0.0
 63
     5
421
      255
463
1.0
 63
     2
421
 16776960
470
LINEAR
1001
GradientColor1ACI
1070
     5
1001
GradientColor2ACI
1070
     2
1001
ACAD
1010
0.0
1020
0.0
1030
0.0
  0
LWPOLYLINE
  5
115
102
{ACAD_REACTORS
330
114
102
}
330
2
100
AcDbEntity
  8
S-TL-WALL-L
  6
Continuous
100
AcDbPolyline
 90
        4
 70
     1
 43
0.0
 10
-87616.16208202086
 20
169544.3327142167
 10
-88196.1327903296
 20
169698.0661767558
 10
-88349.8662528691
 20
169118.0954684471
 10
-87769.89554456037
 20
168964.3620059085
  0
HATCH
  5
116
330
2
100
AcDbEntity
  8
S-TL-WALL
100
AcDbHatch
 10
0.0
 20
0.0
 30
0.0
210
0.0
220
0.0
230
1.0
  2
SOLID
 70
     1
 71
     1
 91
        1
 92
        1
 93
        4
 72
     1
 10
-90456.58203059769
 20
247473.9167037788
 11
-89876.61132228895
 21
247320.1832412393
 72
     1
 10
-89876.61132228895
 20
247320.1832412393
 11
-90030.34478482753
 21
246740.2125329315
 72
     1
 10
-90030.34478482753
 20
246740.2125329315
 11
-90610.31549313614
 21
246893.9459954701
 72
     1
 10
-90610.31549313614
 20
246893.9459954701
 11
-90456.58203059769
 21
247473.9167037788
 97
        1
330
117
 75
     1
 76
     1
 98
        1
 10
-5725239.337069448
 20
4081260.877618431
450
        0
451
        0
460
0.0
461
0.0
452
        0
462
1.0
453
        2
463
0.0
 63
     5
421
      255
463
1.0
 63
     2
421
 16776960
470
LINEAR
1001
GradientColor1ACI
1070
     5
1001
GradientColor2ACI
1070
     2
1001
ACAD
1010
0.0
1020
0.0
1030
0.0
  0
LWPOLYLINE
  5
117
102
{ACAD_REACTORS
330
116
102
}
330
2
100
AcDbEntity
  8
S-TL-WALL-L
  6
Continuous
100
AcDbPolyline
 90
        4
 70
     1
 43
0.0
 10
-90456.58203059769
 20
247473.9167037788
 10
-89876.61132228895
 20
247320.1832412393
 10
-90030.34478482753
 20
246740.2125329315
 10
-90610.31549313614
 20
246893.9459954701
  0
HATCH
  5
118
330
2
100
AcDbEntity
  8
S-TL-WALL
100
AcDbHatch
 10
0.0
 20
0.0
 30
0.0
210
0.0
220
0.0
230
1.0
  2
SOLID
 70
     1
 71
     1
 91
        1
 92
        1
 93
        4
 72
     1
 10
-91865.81208423941
 20
242157.5273221141
 11
-91285.8413759308
 21
242003.7938595745
 72
     1
 10
-91285.8413759308
 20
242003.7938595745
 11
-91439.57483846936
 21
241423.8231512666
 72
     1
 10
-91439.57483846936
 20
241423.8231512666
 11
-92019.5455467781
 21
241577.5566138052
 72
     1
 10
-92019.5455467781
 20
241577.5566138052
 11
-91865.81208423941
 21
242157.5273221141
 97
        1
330
119
 75
     1
 76
     1
 98
        1
 10
-5726648.567123089
 20
4075944.488236766
450
        0
451
        0
460
0.0
461
0.0
452
        0
462
1.0
453
        2
463
0.0
 63
     5
421
      255
463
1.0
 63
     2
421
 16776960
470
LINEAR
1001
GradientColor1ACI
1070
     5
1001
GradientColor2ACI
1070
     2
1001
ACAD
1010
0.0
1020
0.0
1030
0.0
  0
LWPOLYLINE
  5
119
102
{ACAD_REACTORS
330
118
102
}
330
2
100
AcDbEntity
  8
S-TL-WALL-L
  6
Continuous
100
AcDbPolyline
 90
        4
 70
     1
 43
0.0
 10
-91865.81208423941
 20
242157.5273221141
 10
-91285.8413759308
 20
242003.7938595745
 10
-91439.57483846936
 20
241423.8231512666
 10
-92019.5455467781
 20
241577.5566138052
  0
HATCH
  5
11A
330
2
100
AcDbEntity
  8
S-TL-WALL
100
AcDbHatch
 10
0.0
 20
0.0
 30
0.0
210
0.0
220
0.0
230
1.0
  2
SOLID
 70
     1
 71
     1
 91
        1
 92
        1
 93
        4
 72
     1
 10
-93966.82943654582
 20
234231.2521547083
 11
-93386.85872823708
 21
234077.5186921688
 72
     1
 10
-93386.85872823708
 20
234077.5186921688
 11
-93540.59219077541
 21
233497.5479838611
 72
     1
 10
-93540.59219077541
 20
233497.5479838611
 11
-94120.56289908438
 21
233651.2814463997
 72
     1
 10
-94120.56289908438
 20
233651.2814463997
 11
-93966.82943654582
 21
234231.2521547083
 97
        1
330
11B
 75
     1
 76
     1
 98
        1
 10
-5728749.584475397
 20
4068018.21306936
450
        0
451
        0
460
0.0
461
0.0
452
        0
462
1.0
453
        2
463
0.0
 63
     5
421
      255
463
1.0
 63
     2
421
 16776960
470
LINEAR
1001
GradientColor1ACI
1070
     5
1001
GradientColor2ACI
1070
     2
1001
ACAD
1010
0.0
1020
0.0
1030
0.0
  0
LWPOLYLINE
  5
11B
102
{ACAD_REACTORS
330
11A
102
}
330
2
100
AcDbEntity
  8
S-TL-WALL-L
  6
Continuous
100
AcDbPolyline
 90
        4
 70
     1
 43
0.0
 10
-93966.82943654582
 20
234231.2521547083
 10
-93386.85872823708
 20
234077.5186921688
 10
-93540.59219077541
 20
233497.5479838611
 10
-94120.56289908438
 20
233651.2814463997
  0
HATCH
  5
11C
330
2
100
AcDbEntity
  8
S-TL-WALL
100
AcDbHatch
 10
0.0
 20
0.0
 30
0.0
210
0.0
220
0.0
230
1.0
  2
SOLID
 70
     1
 71
     1
 91
        1
 92
        1
 93
        4
 72
     1
 10
-94786.74123675245
 20
231138.075043729
 11
-94206.77052844371
 21
230984.3415811895
 72
     1
 10
-94206.77052844371
 20
230984.3415811895
 11
-94360.50399098228
 21
230404.3708728817
 72
     1
 10
-94360.50399098228
 20
230404.3708728817
 11
-94940.47469929091
 21
230558.1043354203
 72
     1
 10
-94940.47469929091
 20
230558.1043354203
 11
-94786.74123675245
 21
231138.075043729
 97
        1
330
11D
 75
     1
 76
     1
 98
        1
 10
-5729569.496275602
 20
4064925.035958381
450
        0
451
        0
460
0.0
461
0.0
452
        0
462
1.0
453
        2
463
0.0
 63
     5
421
      255
463
1.0
 63
     2
421
 16776960
470
LINEAR
1001
GradientColor1ACI
1070
     5
1001
GradientColor2ACI
1070
     2
1001
ACAD
1010
0.0
1020
0.0
1030
0.0
  0
LWPOLYLINE
  5
11D
102
{ACAD_REACTORS
330
11C
102
}
330
2
100
AcDbEntity
  8
S-TL-WALL-L
  6
Continuous
100
AcDbPolyline
 90
        4
 70
     1
 43
0.0
 10
-94786.74123675245
 20
231138.075043729
 10
-94206.77052844371
 20
230984.3415811895
 10
-94360.50399098228
 20
230404.3708728817
 10
-94940.47469929091
 20
230558.1043354203
  0
HATCH
  5
11E
330
2
100
AcDbEntity
  8
S-TL-WALL
100
AcDbHatch
 10
0.0
 20
0.0
 30
0.0
210
0.0
220
0.0
230
1.0
  2
SOLID
 70
     1
 71
     1
 91
        1
 92
        1
 93
        4
 72
     1
 10
-96887.7540042555
 20
223211.7987067527
 11
-96307.78329594651
 21
223058.0652442141
 72
     1
 10
-96307.78329594651
 20
223058.0652442141
 11
-96461.51675848519
 21
222478.0945359054
 72
     1
 10
-96461.51675848519
 20
222478.0945359054
 11
-97041.48746679406
 21
222631.827998444
 72
     1
 10
-97041.48746679406
 20
222631.827998444
 11
-96887.7540042555
 21
223211.7987067527
 97
        1
330
11F
 75
     1
 76
     1
 98
        1
 10
-5731670.509043108
 20
4056998.759621404
450
        0
451
        0
460
0.0
461
0.0
452
        0
462
1.0
453
        2
463
0.0
 63
     5
421
      255
463
1.0
 63
     2
421
 16776960
470
LINEAR
1001
GradientColor1ACI
1070
     5
1001
GradientColor2ACI
1070
     2
1001
ACAD
1010
0.0
1020
0.0
1030
0.0
  0
LWPOLYLINE
  5
11F
102
{ACAD_REACTORS
330
11E
102
}
330
2
100
AcDbEntity
  8
S-TL-WALL-L
  6
Continuous
100
AcDbPolyline
 90
        4
 70
     1
 43
0.0
 10
-96887.7540042555
 20
223211.7987067527
 10
-96307.78329594651
 20
223058.0652442141
 10
-96461.51675848519
 20
222478.0945359054
 10
-97041.48746679406
 20
222631.827998444
  0
HATCH
  5
120
330
2
100
AcDbEntity
  8
S-TL-WALL
100
AcDbHatch
 10
0.0
 20
0.0
 30
0.0
210
0.0
220
0.0
230
1.0
  2
SOLID
 70
     1
 71
     1
 91
        1
 92
        1
 93
        4
 72
     1
 10
-98732.56799533088
 20
216252.1555942721
 11
-98152.59728702214
 21
216098.4221317325
 72
     1
 10
-98152.59728702214
 20
216098.4221317325
 11
-98306.3307495607
 21
215518.4514234247
 72
     1
 10
-98306.3307495607
 20
215518.4514234247
 11
-98886.30145786933
 21
215672.1848859633
 72
     1
 10
-98886.30145786933
 20
215672.1848859633
 11
-98732.56799533088
 21
216252.1555942721
 97
        1
330
121
 75
     1
 76
     1
 98
        1
 10
-5733515.323034182
 20
4050039.116508925
450
        0
451
        0
460
0.0
461
0.0
452
        0
462
1.0
453
        2
463
0.0
 63
     5
421
      255
463
1.0
 63
     2
421
 16776960
470
LINEAR
1001
GradientColor1ACI
1070
     5
1001
GradientColor2ACI
1070
     2
1001
ACAD
1010
0.0
1020
0.0
1030
0.0
  0
LWPOLYLINE
  5
121
102
{ACAD_REACTORS
330
120
102
}
330
2
100
AcDbEntity
  8
S-TL-WALL-L
  6
Continuous
100
AcDbPolyline
 90
        4
 70
     1
 43
0.0
 10
-98732.56799533088
 20
216252.1555942721
 10
-98152.59728702214
 20
216098.4221317325
 10
-98306.3307495607
 20
215518.4514234247
 10
-98886.30145786933
 20
215672.1848859633
  0
HATCH
  5
122
330
2
100
AcDbEntity
  8
S-TL-WALL
100
AcDbHatch
 10
0.0
 20
0.0
 30
0.0
210
0.0
220
0.0
230
1.0
  2
SOLID
 70
     1
 71
     1
 91
        1
 92
        1
 93
        4
 72
     1
 10
-92739.53734280969
 20
214663.5764813726
 11
-92159.56663450095
 21
214509.843018834
 72
     1
 10
-92159.56663450095
 20
214509.843018834
 11
-92313.30009703963
 21
213929.8723105254
 72
     1
 10
-92313.30009703963
 20
213929.8723105254
 11
-92893.27080534826
 21
214083.6057730638
 72
     1
 10
-92893.27080534826
 20
214083.6057730638
 11
-92739.53734280969
 21
214663.5764813726
 97
        1
330
123
 75
     1
 76
     1
 98
        1
 10
-5727522.292381661
 20
4048450.537396024
450
        0
451
        0
460
0.0
461
0.0
452
        0
462
1.0
453
        2
463
0.0
 63
     5
421
      255
463
1.0
 63
     2
421
 16776960
470
LINEAR
1001
GradientColor1ACI
1070
     5
1001
GradientColor2ACI
1070
     2
1001
ACAD
1010
0.0
1020
0.0
1030
0.0
  0
LWPOLYLINE
  5
123
102
{ACAD_REACTORS
330
122
102
}
330
2
100
AcDbEntity
  8
S-TL-WALL-L
  6
Continuous
100
AcDbPolyline
 90
        4
 70
     1
 43
0.0
 10
-92739.53734280969
 20
214663.5764813726
 10
-92159.56663450095
 20
214509.843018834
 10
-92313.30009703963
 20
213929.8723105254
 10
-92893.27080534826
 20
214083.6057730638
  0
HATCH
  5
124
330
2
100
AcDbEntity
  8
S-TL-WALL
100
AcDbHatch
 10
0.0
 20
0.0
 30
0.0
210
0.0
220
0.0
230
1.0
  2
SOLID
 70
     1
 71
     1
 91
        1
 92
        1
 93
        4
 72
     1
 10
-89549.69844711255
 20
213818.0424374113
 11
-88969.7277388038
 21
213664.3089748723
 72
     1
 10
-88969.7277388038
 20
213664.3089748723
 11
-89123.46120134237
 21
213084.3382665641
 72
     1
 10
-89123.46120134237
 20
213084.3382665641
 11
-89703.43190965111
 21
213238.0717291027
 72
     1
 10
-89703.43190965111
 20
213238.0717291027
 11
-89549.69844711255
 21
213818.0424374113
 97
        1
330
125
 75
     1
 76
     1
 98
        1
 10
-5724332.453485962
 20
4047605.003352064
450
        0
451
        0
460
0.0
461
0.0
452
        0
462
1.0
453
        2
463
0.0
 63
     5
421
      255
463
1.0
 63
     2
421
 16776960
470
LINEAR
1001
GradientColor1ACI
1070
     5
1001
GradientColor2ACI
1070
     2
1001
ACAD
1010
0.0
1020
0.0
1030
0.0
  0
LWPOLYLINE
  5
125
102
{ACAD_REACTORS
330
124
102
}
330
2
100
AcDbEntity
  8
S-TL-WALL-L
  6
Continuous
100
AcDbPolyline
 90
        4
 70
     1
 43
0.0
 10
-89549.69844711255
 20
213818.0424374113
 10
-88969.7277388038
 20
213664.3089748723
 10
-89123.46120134237
 20
213084.3382665641
 10
-89703.43190965111
 20
213238.0717291027
  0
HATCH
  5
126
330
2
100
AcDbEntity
  8
S-TL-WALL
100
AcDbHatch
 10
0.0
 20
0.0
 30
0.0
210
0.0
220
0.0
230
1.0
  2
SOLID
 70
     1
 71
     1
 91
        1
 92
        1
 93
        4
 72
     1
 10
-87679.27343265768
 20
220874.3573252563
 11
-87099.30272434894
 21
220720.6238627174
 72
     1
 10
-87099.30272434894
 20
220720.6238627174
 11
-87253.0361868875
 21
220140.653154409
 72
     1
 10
-87253.0361868875
 20
220140.653154409
 11
-87833.00689519624
 21
220294.3866169476
 72
     1
 10
-87833.00689519624
 20
220294.3866169476
 11
-87679.27343265768
 21
220874.3573252563
 97
        1
330
127
 75
     1
 76
     1
 98
        1
 10
-5722462.028471507
 20
4054661.318239907
450
        0
451
        0
460
0.0
461
0.0
452
        0
462
1.0
453
        2
463
0.0
 63
     5
421
      255
463
1.0
 63
     2
421
 16776960
470
LINEAR
1001
GradientColor1ACI
1070
     5
1001
GradientColor2ACI
1070
     2
1001
ACAD
1010
0.0
1020
0.0
1030
0.0
  0
LWPOLYLINE
  5
127
102
{ACAD_REACTORS
330
126
102
}
330
2
100
AcDbEntity
  8
S-TL-WALL-L
  6
Continuous
100
AcDbPolyline
 90
        4
 70
     1
 43
0.0
 10
-87679.27343265768
 20
220874.3573252563
 10
-87099.30272434894
 20
220720.6238627174
 10
-87253.0361868875
 20
220140.653154409
 10
-87833.00689519624
 20
220294.3866169476
  0
HATCH
  5
128
330
2
100
AcDbEntity
  8
S-TL-WALL
100
AcDbHatch
 10
0.0
 20
0.0
 30
0.0
210
0.0
220
0.0
230
1.0
  2
SOLID
 70
     1
 71
     1
 91
        1
 92
        1
 93
        4
 72
     1
 10
-86590.08076196579
 20
246449.0190332221
 11
-86010.11005365718
 21
246295.2855706835
 72
     1
 10
-86010.11005365718
 20
246295.2855706835
 11
-86163.84351619574
 21
245715.3148623747
 72
     1
 10
-86163.84351619574
 20
245715.3148623747
 11
-86743.81422450448
 21
245869.0483249133
 72
     1
 10
-86743.81422450448
 20
245869.0483249133
 11
-86590.08076196579
 21
246449.0190332221
 97
        1
330
129
 75
     1
 76
     1
 98
        1
 10
-5721372.835800815
 20
4080235.979947875
450
        0
451
        0
460
0.0
461
0.0
452
        0
462
1.0
453
        2
463
0.0
 63
     5
421
      255
463
1.0
 63
     2
421
 16776960
470
LINEAR
1001
GradientColor1ACI
1070
     5
1001
GradientColor2ACI
1070
     2
1001
ACAD
1010
0.0
1020
0.0
1030
0.0
  0
LWPOLYLINE
  5
129
102
{ACAD_REACTORS
330
128
102
}
330
2
100
AcDbEntity
  8
S-TL-WALL-L
  6
Continuous
100
AcDbPolyline
 90
        4
 70
     1
 43
0.0
 10
-86590.08076196579
 20
246449.0190332221
 10
-86010.11005365718
 20
246295.2855706835
 10
-86163.84351619574
 20
245715.3148623747
 10
-86743.81422450448
 20
245869.0483249133
  0
HATCH
  5
12A
330
2
100
AcDbEntity
  8
S-TL-WALL
100
AcDbHatch
 10
0.0
 20
0.0
 30
0.0
210
0.0
220
0.0
230
1.0
  2
SOLID
 70
     1
 71
     1
 91
        1
 92
        1
 93
        4
 72
     1
 10
-80742.07266604769
 20
244898.8812061563
 11
-80162.10195773895
 21
244745.1477436168
 72
     1
 10
-80162.10195773895
 20
244745.1477436168
 11
-80315.83542027751
 21
244165.177035309
 72
     1
 10
-80315.83542027751
 20
244165.177035309
 11
-80895.80612858627
 21
244318.9104978475
 72
     1
 10
-80895.80612858627
 20
244318.9104978475
 11
-80742.07266604769
 21
244898.8812061563
 97
        1
330
12B
 75
     1
 76
     1
 98
        1
 10
-5715524.827704898
 20
4078685.842120808
450
        0
451
        0
460
0.0
461
0.0
452
        0
462
1.0
453
        2
463
0.0
 63
     5
421
      255
463
1.0
 63
     2
421
 16776960
470
LINEAR
1001
GradientColor1ACI
1070
     5
1001
GradientColor2ACI
1070
     2
1001
ACAD
1010
0.0
1020
0.0
1030
0.0
  0
LWPOLYLINE
  5
12B
102
{ACAD_REACTORS
330
12A
102
}
330
2
100
AcDbEntity
  8
S-TL-WALL-L
  6
Continuous
100
AcDbPolyline
 90
        4
 70
     1
 43
0.0
 10
-80742.07266604769
 20
244898.8812061563
 10
-80162.10195773895
 20
244745.1477436168
 10
-80315.83542027751
 20
244165.177035309
 10
-80895.80612858627
 20
244318.9104978475
  0
HATCH
  5
12C
330
2
100
AcDbEntity
  8
S-TL-WALL
100
AcDbHatch
 10
0.0
 20
0.0
 30
0.0
210
0.0
220
0.0
230
1.0
  2
SOLID
 70
     1
 71
     1
 91
        1
 92
        1
 93
        4
 72
     1
 10
-82151.2943350315
 20
239582.4896019608
 11
-81571.32362672276
 21
239428.7561394214
 72
     1
 10
-81571.32362672276
 20
239428.7561394214
 11
-81725.05708926122
 21
238848.7854311136
 72
     1
 10
-81725.05708926122
 20
238848.7854311136
 11
-82305.02779757006
 21
239002.5188936522
 72
     1
 10
-82305.02779757006
 20
239002.5188936522
 11
-82151.2943350315
 21
239582.4896019608
 97
        1
330
12D
 75
     1
 76
     1
 98
        1
 10
-5716934.049373882
 20
4073369.450516612
450
        0
451
        0
460
0.0
461
0.0
452
        0
462
1.0
453
        2
463
0.0
 63
     5
421
      255
463
1.0
 63
     2
421
 16776960
470
LINEAR
1001
GradientColor1ACI
1070
     5
1001
GradientColor2ACI
1070
     2
1001
ACAD
1010
0.0
1020
0.0
1030
0.0
  0
LWPOLYLINE
  5
12D
102
{ACAD_REACTORS
330
12C
102
}
330
2
100
AcDbEntity
  8
S-TL-WALL-L
  6
Continuous
100
AcDbPolyline
 90
        4
 70
     1
 43
0.0
 10
-82151.2943350315
 20
239582.4896019608
 10
-81571.32362672276
 20
239428.7561394214
 10
-81725.05708926122
 20
238848.7854311136
 10
-82305.02779757006
 20
239002.5188936522
  0
HATCH
  5
12E
330
2
100
AcDbEntity
  8
S-TL-WALL
100
AcDbHatch
 10
0.0
 20
0.0
 30
0.0
210
0.0
220
0.0
230
1.0
  2
SOLID
 70
     1
 71
     1
 91
        1
 92
        1
 93
        4
 72
     1
 10
-93021.29557366713
 20
222186.9123913227
 11
-92441.32486535862
 21
222033.1789287836
 72
     1
 10
-92441.32486535862
 20
222033.1789287836
 11
-92595.05832789708
 21
221453.2082204753
 72
     1
 10
-92595.05832789708
 20
221453.2082204753
 11
-93175.02903620582
 21
221606.9416830139
 72
     1
 10
-93175.02903620582
 20
221606.9416830139
 11
-93021.29557366713
 21
222186.9123913227
 97
        1
330
12F
 75
     1
 76
     1
 98
        1
 10
-5727804.050612515
 20
4055973.873305974
450
        0
451
        0
460
0.0
461
0.0
452
        0
462
1.0
453
        2
463
0.0
 63
     5
421
      255
463
1.0
 63
     2
421
 16776960
470
LINEAR
1001
GradientColor1ACI
1070
     5
1001
GradientColor2ACI
1070
     2
1001
ACAD
1010
0.0
1020
0.0
1030
0.0
  0
LWPOLYLINE
  5
12F
102
{ACAD_REACTORS
330
12E
102
}
330
2
100
AcDbEntity
  8
S-TL-WALL-L
  6
Continuous
100
AcDbPolyline
 90
        4
 70
     1
 43
0.0
 10
-93021.29557366713
 20
222186.9123913227
 10
-92441.32486535862
 20
222033.1789287836
 10
-92595.05832789708
 20
221453.2082204753
 10
-93175.02903620582
 20
221606.9416830139
  0
HATCH
  5
130
330
2
100
AcDbEntity
  8
S-TL-WALL
100
AcDbHatch
 10
0.0
 20
0.0
 30
0.0
210
0.0
220
0.0
230
1.0
  2
SOLID
 70
     1
 71
     1
 91
        1
 92
        1
 93
        4
 72
     1
 10
-87999.30591872948
 20
241132.6142711216
 11
-87419.33521042074
 21
240978.880808582
 72
     1
 10
-87419.33521042074
 20
240978.880808582
 11
-87573.06867295932
 21
240398.9101002743
 72
     1
 10
-87573.06867295932
 20
240398.9101002743
 11
-88153.03938126806
 21
240552.6435628129
 72
     1
 10
-88153.03938126806
 20
240552.6435628129
 11
-87999.30591872948
 21
241132.6142711216
 97
        1
330
131
 75
     1
 76
     1
 98
        1
 10
-5722782.06095758
 20
4074919.575185774
450
        0
451
        0
460
0.0
461
0.0
452
        0
462
1.0
453
        2
463
0.0
 63
     5
421
      255
463
1.0
 63
     2
421
 16776960
470
LINEAR
1001
GradientColor1ACI
1070
     5
1001
GradientColor2ACI
1070
     2
1001
ACAD
1010
0.0
1020
0.0
1030
0.0
  0
LWPOLYLINE
  5
131
102
{ACAD_REACTORS
330
130
102
}
330
2
100
AcDbEntity
  8
S-TL-WALL-L
  6
Continuous
100
AcDbPolyline
 90
        4
 70
     1
 43
0.0
 10
-87999.30591872948
 20
241132.6142711216
 10
-87419.33521042074
 20
240978.880808582
 10
-87573.06867295932
 20
240398.9101002743
 10
-88153.03938126806
 20
240552.6435628129
  0
HATCH
  5
132
330
2
100
AcDbEntity
  8
S-TL-WALL
100
AcDbHatch
 10
0.0
 20
0.0
 30
0.0
210
0.0
220
0.0
230
1.0
  2
SOLID
 70
     1
 71
     1
 91
        1
 92
        1
 93
        4
 72
     1
 10
-89953.65200084794
 20
229856.9628559068
 11
-89373.68129253908
 21
229703.2293933682
 72
     1
 10
-89373.68129253908
 20
229703.2293933682
 11
-89527.41475507753
 21
229123.2586850593
 72
     1
 10
-89527.41475507753
 20
229123.2586850593
 11
-90107.38546338652
 21
229276.9921475979
 72
     1
 10
-90107.38546338652
 20
229276.9921475979
 11
-89953.65200084794
 21
229856.9628559068
 97
        1
330
133
 75
     1
 76
     1
 98
        1
 10
-5724736.407039697
 20
4063643.923770558
450
        0
451
        0
460
0.0
461
0.0
452
        0
462
1.0
453
        2
463
0.0
 63
     5
421
      255
463
1.0
 63
     2
421
 16776960
470
LINEAR
1001
GradientColor1ACI
1070
     5
1001
GradientColor2ACI
1070
     2
1001
ACAD
1010
0.0
1020
0.0
1030
0.0
  0
LWPOLYLINE
  5
133
102
{ACAD_REACTORS
330
132
102
}
330
2
100
AcDbEntity
  8
S-TL-WALL-L
  6
Continuous
100
AcDbPolyline
 90
        4
 70
     1
 43
0.0
 10
-89953.65200084794
 20
229856.9628559068
 10
-89373.68129253908
 20
229703.2293933682
 10
-89527.41475507753
 20
229123.2586850593
 10
-90107.38546338652
 20
229276.9921475979
  0
HATCH
  5
134
330
2
100
AcDbEntity
  8
S-TL-WALL
100
AcDbHatch
 10
0.0
 20
0.0
 30
0.0
210
0.0
220
0.0
230
1.0
  2
SOLID
 70
     1
 71
     1
 91
        1
 92
        1
 93
        4
 72
     1
 10
-89133.74020064118
 20
232950.139966886
 11
-88553.76949233244
 21
232796.4065043474
 72
     1
 10
-88553.76949233244
 20
232796.4065043474
 11
-88707.50295487113
 21
232216.4357960387
 72
     1
 10
-88707.50295487113
 20
232216.4357960387
 11
-89287.47366317976
 21
232370.1692585773
 72
     1
 10
-89287.47366317976
 20
232370.1692585773
 11
-89133.74020064118
 21
232950.139966886
 97
        1
330
135
 75
     1
 76
     1
 98
        1
 10
-5723916.495239492
 20
4066737.100881537
450
        0
451
        0
460
0.0
461
0.0
452
        0
462
1.0
453
        2
463
0.0
 63
     5
421
      255
463
1.0
 63
     2
421
 16776960
470
LINEAR
1001
GradientColor1ACI
1070
     5
1001
GradientColor2ACI
1070
     2
1001
ACAD
1010
0.0
1020
0.0
1030
0.0
  0
LWPOLYLINE
  5
135
102
{ACAD_REACTORS
330
134
102
}
330
2
100
AcDbEntity
  8
S-TL-WALL-L
  6
Continuous
100
AcDbPolyline
 90
        4
 70
     1
 43
0.0
 10
-89133.74020064118
 20
232950.139966886
 10
-88553.76949233244
 20
232796.4065043474
 10
-88707.50295487113
 20
232216.4357960387
 10
-89287.47366317976
 20
232370.1692585773
  0
HATCH
  5
136
330
2
100
AcDbEntity
  8
S-TL-WALL
100
AcDbHatch
 10
0.0
 20
0.0
 30
0.0
210
0.0
220
0.0
230
1.0
  2
SOLID
 70
     1
 71
     1
 91
        1
 92
        1
 93
        4
 72
     1
 10
-77822.5980187277
 20
226641.371264474
 11
-77242.62731041919
 21
226487.6378019354
 72
     1
 10
-77242.62731041919
 20
226487.6378019354
 11
-77396.36077295765
 21
225907.6670936266
 72
     1
 10
-77396.36077295765
 20
225907.6670936266
 11
-77976.33148126639
 21
226061.4005561652
 72
     1
 10
-77976.33148126639
 20
226061.4005561652
 11
-77822.5980187277
 21
226641.371264474
 97
        1
330
137
 75
     1
 76
     1
 98
        1
 10
-5712605.353057577
 20
4060428.332179125
450
        0
451
        0
460
0.0
461
0.0
452
        0
462
1.0
453
        2
463
0.0
 63
     5
421
      255
463
1.0
 63
     2
421
 16776960
470
LINEAR
1001
GradientColor1ACI
1070
     5
1001
GradientColor2ACI
1070
     2
1001
ACAD
1010
0.0
1020
0.0
1030
0.0
  0
LWPOLYLINE
  5
137
102
{ACAD_REACTORS
330
136
102
}
330
2
100
AcDbEntity
  8
S-TL-WALL-L
  6
Continuous
100
AcDbPolyline
 90
        4
 70
     1
 43
0.0
 10
-77822.5980187277
 20
226641.371264474
 10
-77242.62731041919
 20
226487.6378019354
 10
-77396.36077295765
 20
225907.6670936266
 10
-77976.33148126639
 20
226061.4005561652
  0
HATCH
  5
138
330
2
100
AcDbEntity
  8
S-TL-WALL
100
AcDbHatch
 10
0.0
 20
0.0
 30
0.0
210
0.0
220
0.0
230
1.0
  2
SOLID
 70
     1
 71
     1
 91
        1
 92
        1
 93
        4
 72
     1
 10
-77002.68621852118
 20
229734.5483754533
 11
-76422.71551021232
 21
229580.8149129147
 72
     1
 10
-76422.71551021232
 20
229580.8149129147
 11
-76576.44897275089
 21
229000.844204606
 72
     1
 10
-76576.44897275089
 20
229000.844204606
 11
-77156.41968105975
 21
229154.5776671446
 72
     1
 10
-77156.41968105975
 20
229154.5776671446
 11
-77002.68621852118
 21
229734.5483754533
 97
        1
330
139
 75
     1
 76
     1
 98
        1
 10
-5711785.44125737
 20
4063521.509290105
450
        0
451
        0
460
0.0
461
0.0
452
        0
462
1.0
453
        2
463
0.0
 63
     5
421
      255
463
1.0
 63
     2
421
 16776960
470
LINEAR
1001
GradientColor1ACI
1070
     5
1001
GradientColor2ACI
1070
     2
1001
ACAD
1010
0.0
1020
0.0
1030
0.0
  0
LWPOLYLINE
  5
139
102
{ACAD_REACTORS
330
138
102
}
330
2
100
AcDbEntity
  8
S-TL-WALL-L
  6
Continuous
100
AcDbPolyline
 90
        4
 70
     1
 43
0.0
 10
-77002.68621852118
 20
229734.5483754533
 10
-76422.71551021232
 20
229580.8149129147
 10
-76576.44897275089
 20
229000.844204606
 10
-77156.41968105975
 20
229154.5776671446
  0
HATCH
  5
13A
330
2
100
AcDbEntity
  8
S-TL-WALL
100
AcDbHatch
 10
0.0
 20
0.0
 30
0.0
210
0.0
220
0.0
230
1.0
  2
SOLID
 70
     1
 71
     0
 91
        2
 92
        1
 93
        4
 72
     1
 10
-85384.83886539724
 20
237335.9948275593
 11
-77506.90233275082
 21
235247.7816756307
 72
     1
 10
-77506.90233275082
 20
235247.7816756307
 11
-81145.26148493178
 21
221521.8083896656
 72
     1
 10
-81145.26148493084
 20
221521.8083896656
 11
-89023.19801757727
 21
223610.021541594
 72
     1
 10
-89023.19801757819
 20
223610.021541594
 11
-85384.83886539724
 21
237335.9948275593
 97
        0
 92
       18
 72
     0
 73
     1
 93
        4
 10
-77751.47092116958
 20
235105.7027345845
 10
-81287.34055926251
 20
221766.376444602
 10
-88778.6294291593
 20
223752.1004826403
 10
-85242.75979106649
 20
237091.4267726229
 97
        0
 75
     1
 76
     1
 98
        1
 10
-5649505.69156099
 20
4045243.363457977
450
        0
451
        0
460
0.0
461
0.0
452
        0
462
1.0
453
        2
463
0.0
 63
     5
421
      255
463
1.0
 63
     2
421
 16776960
470
LINEAR
1001
GradientColor1ACI
1070
     5
1001
GradientColor2ACI
1070
     2
1001
ACAD
1010
0.0
1020
0.0
1030
0.0
  0
LWPOLYLINE
  5
13B
330
2
100
AcDbEntity
  8
S-TL-WALL-L
  6
Continuous
100
AcDbPolyline
 90
        4
 70
     1
 43
0.0
 10
-85384.83886539724
 20
237335.9948275593
 10
-77506.90233275082
 20
235247.7816756307
 10
-81145.26148493084
 20
221521.8083896656
 10
-89023.19801757819
 20
223610.021541594
  0
LWPOLYLINE
  5
13C
330
2
100
AcDbEntity
  8
S-TL-WALL-L
  6
Continuous
100
AcDbPolyline
 90
        4
 70
     1
 43
0.0
 10
-85242.75979106649
 20
237091.4267726229
 10
-77751.47039729226
 20
235105.7025957195
 10
-81287.34055926251
 20
221766.376444602
 10
-88778.62995303653
 20
223752.1006215052
  0
HATCH
  5
13D
330
2
100
AcDbEntity
  8
S-TL-WALL
100
AcDbHatch
 10
0.0
 20
0.0
 30
0.0
210
0.0
220
0.0
230
1.0
  2
SOLID
 70
     1
 71
     1
 91
        1
 92
        1
 93
        4
 72
     1
 10
-73355.10529375691
 20
237250.8601826196
 11
-73935.07600206564
 21
237404.5936451587
 72
     1
 10
-73935.07600206564
 20
237404.5936451587
 11
-74088.80946460433
 21
236824.6229368499
 72
     1
 10
-74088.80946460433
 20
236824.6229368499
 11
-73508.83875629548
 21
236670.8894743113
 72
     1
 10
-73508.83875629548
 20
236670.8894743113
 11
-73355.10529375691
 21
237250.8601826196
 97
        1
330
13E
 75
     1
 76
     1
 98
        1
 10
6720603.131687901
 20
776538.0121819005
450
        0
451
        0
460
0.0
461
0.0
452
        0
462
1.0
453
        2
463
0.0
 63
     5
421
      255
463
1.0
 63
     2
421
 16776960
470
LINEAR
1001
GradientColor1ACI
1070
     5
1001
GradientColor2ACI
1070
     2
1001
ACAD
1010
0.0
1020
0.0
1030
0.0
  0
LWPOLYLINE
  5
13E
102
{ACAD_REACTORS
330
13D
102
}
330
2
100
AcDbEntity
  8
S-TL-WALL-L
  6
Continuous
100
AcDbPolyline
 90
        4
 70
     1
 43
0.0
 10
-73355.10529375691
 20
237250.8601826196
 10
-73935.07600206564
 20
237404.5936451587
 10
-74088.80946460433
 20
236824.6229368499
 10
-73508.83875629548
 20
236670.8894743113
  0
HATCH
  5
13F
330
2
100
AcDbEntity
  8
S-TL-WALL
100
AcDbHatch
 10
0.0
 20
0.0
 30
0.0
210
0.0
220
0.0
230
1.0
  2
SOLID
 70
     1
 71
     1
 91
        1
 92
        1
 93
        4
 72
     1
 10
-78377.03518887839
 20
218305.1424622223
 11
-78957.00589718725
 21
218458.8759247609
 72
     1
 10
-78957.00589718725
 20
218458.8759247609
 11
-79110.73935972582
 21
217878.9052164531
 72
     1
 10
-79110.73935972582
 20
217878.9052164531
 11
-78530.76865141708
 21
217725.1717539141
 72
     1
 10
-78530.76865141708
 20
217725.1717539141
 11
-78377.03518887839
 21
218305.1424622223
 97
        1
330
140
 75
     1
 76
     1
 98
        1
 10
6715581.201792779
 20
757592.294461503
450
        0
451
        0
460
0.0
461
0.0
452
        0
462
1.0
453
        2
463
0.0
 63
     5
421
      255
463
1.0
 63
     2
421
 16776960
470
LINEAR
1001
GradientColor1ACI
1070
     5
1001
GradientColor2ACI
1070
     2
1001
ACAD
1010
0.0
1020
0.0
1030
0.0
  0
LWPOLYLINE
  5
140
102
{ACAD_REACTORS
330
13F
102
}
330
2
100
AcDbEntity
  8
S-TL-WALL-L
  6
Continuous
100
AcDbPolyline
 90
        4
 70
     1
 43
0.0
 10
-78377.03518887839
 20
218305.1424622223
 10
-78957.00589718725
 20
218458.8759247609
 10
-79110.73935972582
 20
217878.9052164531
 10
-78530.76865141708
 20
217725.1717539141
  0
HATCH
  5
141
330
2
100
AcDbEntity
  8
S-TL-WALL
100
AcDbHatch
 10
0.0
 20
0.0
 30
0.0
210
0.0
220
0.0
230
1.0
  2
SOLID
 70
     1
 71
     1
 91
        1
 92
        1
 93
        4
 72
     1
 10
-78671.47008556555
 20
238660.0888268301
 11
-79251.44079387429
 21
238813.8222893686
 72
     1
 10
-79251.44079387429
 20
238813.8222893686
 11
-79405.17425641286
 21
238233.8515810608
 72
     1
 10
-79405.17425641286
 20
238233.8515810608
 11
-78825.20354810412
 21
238080.1181185217
 72
     1
 10
-78825.20354810412
 20
238080.1181185217
 11
-78671.47008556555
 21
238660.0888268301
 97
        1
330
142
 75
     1
 76
     1
 98
        1
 10
6715286.766896094
 20
777947.2408261106
450
        0
451
        0
460
0.0
461
0.0
452
        0
462
1.0
453
        2
463
0.0
 63
     5
421
      255
463
1.0
 63
     2
421
 16776960
470
LINEAR
1001
GradientColor1ACI
1070
     5
1001
GradientColor2ACI
1070
     2
1001
ACAD
1010
0.0
1020
0.0
1030
0.0
  0
LWPOLYLINE
  5
142
102
{ACAD_REACTORS
330
141
102
}
330
2
100
AcDbEntity
  8
S-TL-WALL-L
  6
Continuous
100
AcDbPolyline
 90
        4
 70
     1
 43
0.0
 10
-78671.47008556555
 20
238660.0888268301
 10
-79251.44079387429
 20
238813.8222893686
 10
-79405.17425641286
 20
238233.8515810608
 10
-78825.20354810412
 20
238080.1181185217
  0
HATCH
  5
143
330
2
100
AcDbEntity
  8
S-TL-WALL
100
AcDbHatch
 10
0.0
 20
0.0
 30
0.0
210
0.0
220
0.0
230
1.0
  2
SOLID
 70
     1
 71
     1
 91
        1
 92
        1
 93
        4
 72
     1
 10
-76826.66906395051
 20
245619.7353314124
 11
-77406.63977225925
 21
245773.4687939515
 72
     1
 10
-77406.63977225925
 20
245773.4687939515
 11
-77560.37323479771
 21
245193.4980856428
 72
     1
 10
-77560.37323479771
 20
245193.4980856428
 11
-76980.40252648908
 21
245039.7646231042
 72
     1
 10
-76980.40252648908
 20
245039.7646231042
 11
-76826.66906395051
 21
245619.7353314124
 97
        1
330
144
 75
     1
 76
     1
 98
        1
 10
6717131.567917707
 20
784906.887330693
450
        0
451
        0
460
0.0
461
0.0
452
        0
462
1.0
453
        2
463
0.0
 63
     5
421
      255
463
1.0
 63
     2
421
 16776960
470
LINEAR
1001
GradientColor1ACI
1070
     5
1001
GradientColor2ACI
1070
     2
1001
ACAD
1010
0.0
1020
0.0
1030
0.0
  0
LWPOLYLINE
  5
144
102
{ACAD_REACTORS
330
143
102
}
330
2
100
AcDbEntity
  8
S-TL-WALL-L
  6
Continuous
100
AcDbPolyline
 90
        4
 70
     1
 43
0.0
 10
-76826.66906395051
 20
245619.7353314124
 10
-77406.63977225925
 20
245773.4687939515
 10
-77560.37323479771
 20
245193.4980856428
 10
-76980.40252648908
 20
245039.7646231042
  0
HATCH
  5
145
330
2
100
AcDbEntity
  8
S-TL-WALL
100
AcDbHatch
 10
0.0
 20
0.0
 30
0.0
210
0.0
220
0.0
230
1.0
  2
SOLID
 70
     1
 71
     1
 91
        1
 92
        1
 93
        4
 72
     1
 10
-73636.8301682515
 20
244774.2012874503
 11
-74216.80087656024
 21
244927.9347499893
 72
     1
 10
-74216.80087656024
 20
244927.9347499893
 11
-74370.5343390987
 21
244347.9640416806
 72
     1
 10
-74370.5343390987
 20
244347.9640416806
 11
-73790.56363079007
 21
244194.2305791421
 72
     1
 10
-73790.56363079007
 20
244194.2305791421
 11
-73636.8301682515
 21
244774.2012874503
 97
        1
330
146
 75
     1
 76
     1
 98
        1
 10
6720321.406813408
 20
784061.353286731
450
        0
451
        0
460
0.0
461
0.0
452
        0
462
1.0
453
        2
463
0.0
 63
     5
421
      255
463
1.0
 63
     2
421
 16776960
470
LINEAR
1001
GradientColor1ACI
1070
     5
1001
GradientColor2ACI
1070
     2
1001
ACAD
1010
0.0
1020
0.0
1030
0.0
  0
LWPOLYLINE
  5
146
102
{ACAD_REACTORS
330
145
102
}
330
2
100
AcDbEntity
  8
S-TL-WALL-L
  6
Continuous
100
AcDbPolyline
 90
        4
 70
     1
 43
0.0
 10
-73636.8301682515
 20
244774.2012874503
 10
-74216.80087656024
 20
244927.9347499893
 10
-74370.5343390987
 20
244347.9640416806
 10
-73790.56363079007
 20
244194.2305791421
  0
HATCH
  5
147
330
2
100
AcDbEntity
  8
S-TL-WALL
100
AcDbHatch
 10
0.0
 20
0.0
 30
0.0
210
0.0
220
0.0
230
1.0
  2
SOLID
 70
     1
 71
     1
 91
        1
 92
        1
 93
        4
 72
     1
 10
-83667.80936685819
 20
219811.0342093642
 11
-84247.78007516692
 21
219964.7676719031
 72
     1
 10
-84247.78007516692
 20
219964.7676719031
 11
-84401.5135377055
 21
219384.7969635943
 72
     1
 10
-84401.5135377055
 20
219384.7969635943
 11
-83821.54282939675
 21
219231.0635010558
 72
     1
 10
-83821.54282939675
 20
219231.0635010558
 11
-83667.80936685819
 21
219811.0342093642
 97
        1
330
148
 75
     1
 76
     1
 98
        1
 10
6710290.427614799
 20
759098.1862086447
450
        0
451
        0
460
0.0
461
0.0
452
        0
462
1.0
453
        2
463
0.0
 63
     5
421
      255
463
1.0
 63
     2
421
 16776960
470
LINEAR
1001
GradientColor1ACI
1070
     5
1001
GradientColor2ACI
1070
     2
1001
ACAD
1010
0.0
1020
0.0
1030
0.0
  0
LWPOLYLINE
  5
148
102
{ACAD_REACTORS
330
147
102
}
330
2
100
AcDbEntity
  8
S-TL-WALL-L
  6
Continuous
100
AcDbPolyline
 90
        4
 70
     1
 43
0.0
 10
-83667.80936685819
 20
219811.0342093642
 10
-84247.78007516692
 20
219964.7676719031
 10
-84401.5135377055
 20
219384.7969635943
 10
-83821.54282939675
 20
219231.0635010558
  0
HATCH
  5
149
330
2
100
AcDbEntity
  8
S-TL-WALL
100
AcDbHatch
 10
0.0
 20
0.0
 30
0.0
210
0.0
220
0.0
230
1.0
  2
SOLID
 70
     1
 71
     1
 91
        1
 92
        1
 93
        4
 72
     1
 10
-85538.23438131306
 20
212754.7193215186
 11
-86118.20508962191
 21
212908.4527840572
 72
     1
 10
-86118.20508962191
 20
212908.4527840572
 11
-86271.93855216036
 21
212328.4820757494
 72
     1
 10
-86271.93855216036
 20
212328.4820757494
 11
-85691.96784385152
 21
212174.7486132103
 72
     1
 10
-85691.96784385152
 20
212174.7486132103
 11
-85538.23438131306
 21
212754.7193215186
 97
        1
330
14A
 75
     1
 76
     1
 98
        1
 10
6708420.002600344
 20
752041.8713207992
450
        0
451
        0
460
0.0
461
0.0
452
        0
462
1.0
453
        2
463
0.0
 63
     5
421
      255
463
1.0
 63
     2
421
 16776960
470
LINEAR
1001
GradientColor1ACI
1070
     5
1001
GradientColor2ACI
1070
     2
1001
ACAD
1010
0.0
1020
0.0
1030
0.0
  0
LWPOLYLINE
  5
14A
102
{ACAD_REACTORS
330
149
102
}
330
2
100
AcDbEntity
  8
S-TL-WALL-L
  6
Continuous
100
AcDbPolyline
 90
        4
 70
     1
 43
0.0
 10
-85538.23438131306
 20
212754.7193215186
 10
-86118.20508962191
 20
212908.4527840572
 10
-86271.93855216036
 20
212328.4820757494
 10
-85691.96784385152
 20
212174.7486132103
  0
HATCH
  5
14B
330
2
100
AcDbEntity
  8
S-TL-WALL
100
AcDbHatch
 10
0.0
 20
0.0
 30
0.0
210
0.0
220
0.0
230
1.0
  2
SOLID
 70
     1
 71
     1
 91
        1
 92
        1
 93
        4
 72
     1
 10
-82348.39548561591
 20
211909.1852775552
 11
-82928.36619392465
 21
212062.9187400942
 72
     1
 10
-82928.36619392465
 20
212062.9187400942
 11
-83082.09965646321
 21
211482.9480317854
 72
     1
 10
-83082.09965646321
 20
211482.9480317854
 11
-82502.12894815437
 21
211329.2145692469
 72
     1
 10
-82502.12894815437
 20
211329.2145692469
 11
-82348.39548561591
 21
211909.1852775552
 97
        1
330
14C
 75
     1
 76
     1
 98
        1
 10
6711609.841496041
 20
751196.3372768355
450
        0
451
        0
460
0.0
461
0.0
452
        0
462
1.0
453
        2
463
0.0
 63
     5
421
      255
463
1.0
 63
     2
421
 16776960
470
LINEAR
1001
GradientColor1ACI
1070
     5
1001
GradientColor2ACI
1070
     2
1001
ACAD
1010
0.0
1020
0.0
1030
0.0
  0
LWPOLYLINE
  5
14C
102
{ACAD_REACTORS
330
14B
102
}
330
2
100
AcDbEntity
  8
S-TL-WALL-L
  6
Continuous
100
AcDbPolyline
 90
        4
 70
     1
 43
0.0
 10
-82348.39548561591
 20
211909.1852775552
 10
-82928.36619392465
 20
212062.9187400942
 10
-83082.09965646321
 20
211482.9480317854
 10
-82502.12894815437
 20
211329.2145692469
  0
HATCH
  5
14D
330
2
100
AcDbEntity
  8
S-TL-WALL
100
AcDbHatch
 10
0.0
 20
0.0
 30
0.0
210
0.0
220
0.0
230
1.0
  2
SOLID
 70
     1
 71
     1
 91
        1
 92
        1
 93
        4
 72
     1
 10
-76355.36483309473
 20
210320.606164656
 11
-76935.33554140347
 21
210474.3396271946
 72
     1
 10
-76935.33554140347
 20
210474.3396271946
 11
-77089.06900394192
 21
209894.3689188868
 72
     1
 10
-77089.06900394192
 20
209894.3689188868
 11
-76509.0982956333
 21
209740.6354563478
 72
     1
 10
-76509.0982956333
 20
209740.6354563478
 11
-76355.36483309473
 21
210320.606164656
 97
        1
330
14E
 75
     1
 76
     1
 98
        1
 10
6717602.872148562
 20
749607.7581639366
450
        0
451
        0
460
0.0
461
0.0
452
        0
462
1.0
453
        2
463
0.0
 63
     5
421
      255
463
1.0
 63
     2
421
 16776960
470
LINEAR
1001
GradientColor1ACI
1070
     5
1001
GradientColor2ACI
1070
     2
1001
ACAD
1010
0.0
1020
0.0
1030
0.0
  0
LWPOLYLINE
  5
14E
102
{ACAD_REACTORS
330
14D
102
}
330
2
100
AcDbEntity
  8
S-TL-WALL-L
  6
Continuous
100
AcDbPolyline
 90
        4
 70
     1
 43
0.0
 10
-76355.36483309473
 20
210320.606164656
 10
-76935.33554140347
 20
210474.3396271946
 10
-77089.06900394192
 20
209894.3689188868
 10
-76509.0982956333
 20
209740.6354563478
  0
HATCH
  5
14F
330
2
100
AcDbEntity
  8
S-TL-WALL
100
AcDbHatch
 10
0.0
 20
0.0
 30
0.0
210
0.0
220
0.0
230
1.0
  2
SOLID
 70
     1
 71
     1
 91
        1
 92
        1
 93
        4
 72
     1
 10
-74510.57675829027
 20
217280.2561467923
 11
-75090.547466599
 21
217433.9896093314
 72
     1
 10
-75090.547466599
 20
217433.9896093314
 11
-75244.28092913757
 21
216854.0189010227
 72
     1
 10
-75244.28092913757
 20
216854.0189010227
 11
-74664.31022082895
 21
216700.285438484
 72
     1
 10
-74664.31022082895
 20
216700.285438484
 11
-74510.57675829027
 21
217280.2561467923
 97
        1
330
150
 75
     1
 76
     1
 98
        1
 10
6719447.660223369
 20
756567.4081460731
450
        0
451
        0
460
0.0
461
0.0
452
        0
462
1.0
453
        2
463
0.0
 63
     5
421
      255
463
1.0
 63
     2
421
 16776960
470
LINEAR
1001
GradientColor1ACI
1070
     5
1001
GradientColor2ACI
1070
     2
1001
ACAD
1010
0.0
1020
0.0
1030
0.0
  0
LWPOLYLINE
  5
150
102
{ACAD_REACTORS
330
14F
102
}
330
2
100
AcDbEntity
  8
S-TL-WALL-L
  6
Continuous
100
AcDbPolyline
 90
        4
 70
     1
 43
0.0
 10
-74510.57675829027
 20
217280.2561467923
 10
-75090.547466599
 20
217433.9896093314
 10
-75244.28092913757
 20
216854.0189010227
 10
-74664.31022082895
 20
216700.285438484
  0
HATCH
  5
151
330
2
100
AcDbEntity
  8
S-TL-WALL
100
AcDbHatch
 10
0.0
 20
0.0
 30
0.0
210
0.0
220
0.0
230
1.0
  2
SOLID
 70
     1
 71
     1
 91
        1
 92
        1
 93
        4
 72
     1
 10
-72409.5380745162
 20
225206.525614113
 11
-72989.50878282505
 21
225360.2590766516
 72
     1
 10
-72989.50878282505
 20
225360.2590766516
 11
-73143.24224536362
 21
224780.2883683438
 72
     1
 10
-73143.24224536362
 20
224780.2883683438
 11
-72563.27153705488
 21
224626.5549058049
 72
     1
 10
-72563.27153705488
 20
224626.5549058049
 11
-72409.5380745162
 21
225206.525614113
 97
        1
330
152
 75
     1
 76
     1
 98
        1
 10
6721548.698907144
 20
764493.6776133937
450
        0
451
        0
460
0.0
461
0.0
452
        0
462
1.0
453
        2
463
0.0
 63
     5
421
      255
463
1.0
 63
     2
421
 16776960
470
LINEAR
1001
GradientColor1ACI
1070
     5
1001
GradientColor2ACI
1070
     2
1001
ACAD
1010
0.0
1020
0.0
1030
0.0
  0
LWPOLYLINE
  5
152
102
{ACAD_REACTORS
330
151
102
}
330
2
100
AcDbEntity
  8
S-TL-WALL-L
  6
Continuous
100
AcDbPolyline
 90
        4
 70
     1
 43
0.0
 10
-72409.5380745162
 20
225206.525614113
 10
-72989.50878282505
 20
225360.2590766516
 10
-73143.24224536362
 20
224780.2883683438
 10
-72563.27153705488
 20
224626.5549058049
  0
HATCH
  5
153
330
2
100
AcDbEntity
  8
S-TL-WALL
100
AcDbHatch
 10
0.0
 20
0.0
 30
0.0
210
0.0
220
0.0
230
1.0
  2
SOLID
 70
     1
 71
     1
 91
        1
 92
        1
 93
        4
 72
     1
 10
-71589.62627431049
 20
228299.7027250925
 11
-72169.59698261934
 21
228453.4361876311
 72
     1
 10
-72169.59698261934
 20
228453.4361876311
 11
-72323.33044515791
 21
227873.4654793233
 72
     1
 10
-72323.33044515791
 20
227873.4654793233
 11
-71743.35973684917
 21
227719.7320167841
 72
     1
 10
-71743.35973684917
 20
227719.7320167841
 11
-71589.62627431049
 21
228299.7027250925
 97
        1
330
154
 75
     1
 76
     1
 98
        1
 10
6722368.610707349
 20
767586.854724373
450
        0
451
        0
460
0.0
461
0.0
452
        0
462
1.0
453
        2
463
0.0
 63
     5
421
      255
463
1.0
 63
     2
421
 16776960
470
LINEAR
1001
GradientColor1ACI
1070
     5
1001
GradientColor2ACI
1070
     2
1001
ACAD
1010
0.0
1020
0.0
1030
0.0
  0
LWPOLYLINE
  5
154
102
{ACAD_REACTORS
330
153
102
}
330
2
100
AcDbEntity
  8
S-TL-WALL-L
  6
Continuous
100
AcDbPolyline
 90
        4
 70
     1
 43
0.0
 10
-71589.62627431049
 20
228299.7027250925
 10
-72169.59698261934
 20
228453.4361876311
 10
-72323.33044515791
 20
227873.4654793233
 10
-71743.35973684917
 20
227719.7320167841
  0
HATCH
  5
155
330
2
100
AcDbEntity
  8
S-TL-WALL
100
AcDbHatch
 10
0.0
 20
0.0
 30
0.0
210
0.0
220
0.0
230
1.0
  2
SOLID
 70
     1
 71
     1
 91
        1
 92
        1
 93
        4
 72
     1
 10
-69488.59215268548
 20
236225.9734474374
 11
-70068.5628609941
 21
236379.7069099764
 72
     1
 10
-70068.5628609941
 20
236379.7069099764
 11
-70222.29632353256
 21
235799.7362016677
 72
     1
 10
-70222.29632353256
 20
235799.7362016677
 11
-69642.32561522405
 21
235646.0027391291
 72
     1
 10
-69642.32561522405
 20
235646.0027391291
 11
-69488.59215268548
 21
236225.9734474374
 97
        1
330
156
 75
     1
 76
     1
 98
        1
 10
6724469.644828973
 20
775513.1254467181
450
        0
451
        0
460
0.0
461
0.0
452
        0
462
1.0
453
        2
463
0.0
 63
     5
421
      255
463
1.0
 63
     2
421
 16776960
470
LINEAR
1001
GradientColor1ACI
1070
     5
1001
GradientColor2ACI
1070
     2
1001
ACAD
1010
0.0
1020
0.0
1030
0.0
  0
LWPOLYLINE
  5
156
102
{ACAD_REACTORS
330
155
102
}
330
2
100
AcDbEntity
  8
S-TL-WALL-L
  6
Continuous
100
AcDbPolyline
 90
        4
 70
     1
 43
0.0
 10
-69488.59215268548
 20
236225.9734474374
 10
-70068.5628609941
 20
236379.7069099764
 10
-70222.29632353256
 20
235799.7362016677
 10
-69642.32561522405
 20
235646.0027391291
  0
HATCH
  5
157
330
2
100
AcDbEntity
  8
S-TL-WALL
100
AcDbHatch
 10
0.0
 20
0.0
 30
0.0
210
0.0
220
0.0
230
1.0
  2
SOLID
 70
     1
 71
     1
 91
        1
 92
        1
 93
        4
 72
     1
 10
-67643.79951573044
 20
243185.6221745498
 11
-68223.77022403895
 21
243339.3556370889
 72
     1
 10
-68223.77022403895
 20
243339.3556370889
 11
-68377.50368657752
 21
242759.3849287803
 72
     1
 10
-68377.50368657752
 20
242759.3849287803
 11
-67797.53297826901
 21
242605.6514662417
 72
     1
 10
-67797.53297826901
 20
242605.6514662417
 11
-67643.79951573044
 21
243185.6221745498
 97
        1
330
158
 75
     1
 76
     1
 98
        1
 10
6726314.437465929
 20
782472.7741738307
450
        0
451
        0
460
0.0
461
0.0
452
        0
462
1.0
453
        2
463
0.0
 63
     5
421
      255
463
1.0
 63
     2
421
 16776960
470
LINEAR
1001
GradientColor1ACI
1070
     5
1001
GradientColor2ACI
1070
     2
1001
ACAD
1010
0.0
1020
0.0
1030
0.0
  0
LWPOLYLINE
  5
158
102
{ACAD_REACTORS
330
157
102
}
330
2
100
AcDbEntity
  8
S-TL-WALL-L
  6
Continuous
100
AcDbPolyline
 90
        4
 70
     1
 43
0.0
 10
-67643.79951573044
 20
243185.6221745498
 10
-68223.77022403895
 20
243339.3556370889
 10
-68377.50368657752
 20
242759.3849287803
 10
-67797.53297826901
 20
242605.6514662417
  0
LWPOLYLINE
  5
159
330
2
100
AcDbEntity
  8
LINE-TL
  6
Continuous
100
AcDbPolyline
 90
       24
 70
     1
 43
200.0
 10
-75116.68511611755
 20
129846.9357021213
 10
-83135.08776866711
 20
118006.5299965408
 10
-78663.88566209256
 20
114978.6013778844
 10
-80626.43200415509
 20
112080.6000430137
 10
-85097.63404078103
 20
115108.5286098258
 10
-88461.99919185389
 20
110140.5258680084
 10
-86557.59830268644
 20
108850.8525716034
 10
-93398.47367792934
 20
98749.24762924624
 10
-78660.06587607865
 20
88768.29903730008
 10
-75407.84693259615
 20
93570.701144191
 10
-81121.04994204056
 20
97439.72057274126
 10
-79663.15854712363
 20
99592.52163102714
 10
-73949.95570017558
 20
95723.50195849455
 10
-67445.51687691148
 20
105328.3067638646
 10
-73158.71990576931
 20
109197.3261080095
 10
-71700.82818670463
 20
111350.1273629651
 10
-65987.62553976625
 20
107481.1074944856
 10
-58473.87700311801
 20
118576.3133328352
 10
-64932.28003005657
 20
122949.9876025827
 10
-66446.24424638642
 20
120714.3864863124
 10
-67688.24486843936
 20
121555.4777191482
 10
-68930.2454883527
 20
122396.568950905
 10
-70172.24611023322
 20
123237.6601839974
 10
-68658.28189363293
 20
125473.2612993368
  0
LWPOLYLINE
  5
15E
330
2
100
AcDbEntity
  8
LINE-TL
  6
Continuous
100
AcDbPolyline
 90
       25
 70
     0
 43
200.0
 10
-107493.2857051116
 20
144708.2027056208
 10
-117449.4495310743
 20
147347.2938125375
 10
-112914.3110198383
 20
164456.4348622598
 10
-107501.2510756261
 20
163021.5892118965
 10
-106835.0728842101
 20
165534.795062819
 10
-112248.1328284226
 20
166969.6407131809
 10
-108584.1519599314
 20
180792.2759705591
 10
-101382.8489980507
 20
178883.418810592
 10
-101216.3044249087
 20
179511.7203687206
 10
-98123.12731393214
 20
178691.8085685093
 10
-99980.73998630486
 20
171683.829176303
 10
-98192.49696979646
 20
171209.8176670149
 10
-96334.88429741245
 20
178217.7970592221
 10
-93241.70718643497
 20
177397.885259015
 10
-93408.25177089099
 20
176769.5836582012
 10
-86206.95239130661
 20
174860.7129837731
 10
-89870.92966618456
 20
161038.0912835579
 10
-95283.98961039979
 20
162472.9369339202
 10
-95950.16794806891
 20
159959.7305312506
 10
-90537.10800385543
 20
158524.8848808878
 10
-95072.24636883915
 20
141415.7443829146
 10
-105028.4101948026
 20
144054.8354898314
 10
-102671.1625489721
 20
152947.7242873218
 10
-105136.0380592808
 20
153601.0915031107
 10
-107493.2857051097
 20
144708.2027056203
  0
LWPOLYLINE
  5
15F
330
2
100
AcDbEntity
  8
LINE-TL
  6
Continuous
100
AcDbPolyline
 90
       29
 70
     1
 43
200.0
 10
-89123.46120134342
 20
213084.3382665617
 10
-92313.30009704057
 20
213929.872310523
 10
-92543.90029084831
 20
213059.9162480603
 10
-99116.9016516773
 20
214802.2288235003
 10
-94786.74123675256
 20
231138.0750437292
 10
-89373.68129254013
 20
229703.2293933682
 10
-88707.50295487113
 20
232216.4357960383
 10
-94120.5628990845
 20
233651.2814463997
 10
-90456.59486552965
 20
247473.8682830627
 10
-83255.2790687184
 20
245565.0595438234
 10
-83088.73448426343
 20
246193.3611446383
 10
-79995.5573732841
 20
245373.449344432
 10
-81725.05708926237
 20
238848.7854311136
 10
-81750.6810821022
 20
238752.1170478486
 10
-79430.79824925293
 20
238137.1831977959
 10
-77406.63977225564
 20
245773.4687939507
 10
-74216.80087656129
 20
244927.9347499865
 10
-73986.20068275076
 20
245797.8908124526
 10
-67413.19655425541
 20
244055.5886783074
 10
-71743.35973684731
 20
227719.7320167838
 10
-77156.41968106359
 20
229154.5776671386
 10
-77822.59801872793
 20
226641.371264474
 10
-72409.53807451643
 20
225206.525614114
 10
-76739.69848944116
 20
208870.6793938852
 10
-83312.6998502712
 20
210612.9919693223
 10
-83082.0996564652
 20
211482.9480317845
 10
-86271.93855216049
 20
212328.4820757494
 10
-84247.78007517076
 20
219964.7676719041
 10
-87099.30272434894
 20
220720.6238627164
  0
LWPOLYLINE
  5
160
330
2
100
AcDbEntity
  8
LINE-TL
100
AcDbPolyline
 90
        8
 70
     0
 43
0.0
 10
-96563.12969762236
 20
98476.91626972476
 10
-78125.5217821926
 20
85990.841154958
 10
-88218.61533312358
 20
71086.83552597838
 10
-110985.3924768972
 20
86504.6511981918
 10
-111588.6151833557
 20
92897.60057803572
 10
-105006.2827019782
 20
95549.76788404747
 10
-104078.7435625593
 20
95923.49391317466
 10
-96563.12969762236
 20
98476.91626972476
  0
LWPOLYLINE
  5
161
330
2
100
AcDbEntity
  8
LINE-BLDG
100
AcDbPolyline
 90
       17
 70
     0
 43
0.0
 10
-88848.78848539988
 20
277821.4902735478
 10
-97518.48796847029
 20
266251.589260926
 10
-104995.2702754039
 20
232370.8906665798
 10
-111784.2026958031
 20
205866.1487000426
 10
-135103.8584947367
 20
124356.2962196357
 10
-113565.5247277396
 20
70900.96795754964
 10
-85101.12114329761
 20
54161.89858073917
 10
-33679.46990699167
 20
130093.8770810178
 10
-68632.57978013562
 20
134391.6954850056
 10
-62516.88411974205
 20
166142.8297183479
 10
-78936.61655779284
 20
169872.004566359
 10
-76443.24818549884
 20
180850.4229058483
 10
-52661.3853314075
 20
209512.9340075906
 10
-38579.98010489191
 20
237403.9934963146
 10
-52511.83663418176
 20
245153.511796684
 10
-66629.57841295315
 20
272042.7583156163
 10
-88848.78848539988
 20
277821.4902735478
  0
LWPOLYLINE
  5
166
330
2
100
AcDbEntity
  8
A-DXS-WALL
100
AcDbPolyline
 90
       17
 70
     0
 43
0.0
 10
-88848.78848539988
 20
277821.4902735478
 10
-97518.48796847017
 20
266251.589260926
 10
-104995.2702754039
 20
232370.8906665798
 10
-111784.202695803
 20
205866.1487000426
 10
-135103.8584947366
 20
124356.2962196357
 10
-113565.5247277396
 20
70900.96795754964
 10
-85101.1211432975
 20
54161.89858073918
 10
-33679.46990699155
 20
130093.8770810178
 10
-68632.5797801355
 20
134391.6954850056
 10
-62516.88411974205
 20
166142.8297183479
 10
-78936.61655779273
 20
169872.004566359
 10
-76443.24818549884
 20
180850.4229058483
 10
-52661.38533140739
 20
209512.9340075906
 10
-38579.98010489179
 20
237403.9934963146
 10
-52511.83663418165
 20
245153.511796684
 10
-66629.57841295304
 20
272042.7583156163
 10
-88848.78848539988
 20
277821.4902735478
  0
LWPOLYLINE
  5
16A
330
2
100
AcDbEntity
  8
A-DXS-WALL
100
AcDbPolyline
 90
       16
 70
     1
 43
0.0
 10
-88610.07871200223
 20
277139.387759307
 10
-96960.48774984557
 20
265995.5867346679
 10
-104411.480836567
 20
232231.7508174904
 10
-111204.988646662
 20
205709.1460242556
 10
-134470.258362001
 20
124389.3907600774
 10
-113085.2824999428
 20
71314.67676642894
 10
-85282.26666982119
 20
54964.54986198402
 10
-34726.42092916041
 20
129618.0333567517
 10
-69343.28412537204
 20
133874.5070231281
 10
-63215.91408119685
 20
165686.2516836613
 10
-79654.66977093005
 20
169419.7470059535
 10
-76996.63561015736
 20
181123.1965651409
 10
-53166.4826357532
 20
209843.9081584957
 10
-39375.4494699626
 20
237159.8272908941
 10
-52959.92511939894
 20
244716.116894143
 10
-67037.48216626848
 20
271528.8258775871
  0
ENDSEC
  0
SECTION
  2
OBJECTS
  0
DICTIONARY
  5
B
330
0
100
AcDbDictionary
281
     1
  3
ACAD_COLOR
350
3F
  3
ACAD_DGNLINESTYLECOMP
350
16C
  3
ACAD_GROUP
350
3A
  3
ACAD_LAYOUT
350
14
  3
ACAD_MATERIAL
350
D
  3
ACAD_MLEADERSTYLE
350
42
  3
ACAD_MLINESTYLE
350
3B
  3
ACAD_PLOTSETTINGS
350
3C
  3
ACAD_PLOTSTYLENAME
350
A
  3
ACAD_SCALELIST
350
40
  3
ACAD_TABLESTYLE
350
41
  3
ACAD_VISUALSTYLE
350
2C
  3
ACDB_RECOMPOSE_DATA
350
179
  3
AcDbVariableDictionary
350
16F
  0
DICTIONARY
  5
2E
330
29
100
AcDbDictionary
280
     1
281
     1
  0
DICTIONARY
  5
1C
330
1B
100
AcDbDictionary
280
     1
281
     1
  3
ACAD_LAYERFILTERS
360
1D
  3
ACAD_LAYERSTATES
360
1E
  3
ACLYDICTIONARY
360
1F
  0
DICTIONARY
  5
7
330
6
100
AcDbDictionary
280
     1
281
     1
  3
ADSK_XREC_LAYER_RECONCILED
360
8
  0
DICTIONARY
  5
168
330
167
100
AcDbDictionary
280
     1
281
     1
  3
ADSK_XREC_LAYER_RECONCILED
360
169
  0
DICTIONARY
  5
79
330
78
100
AcDbDictionary
280
     1
281
     1
  3
ADSK_XREC_LAYER_RECONCILED
360
7A
  0
DICTIONARY
  5
73
330
72
100
AcDbDictionary
280
     1
281
     1
  3
ADSK_XREC_LAYER_RECONCILED
360
74
  0
DICTIONARY
  5
15B
330
15A
100
AcDbDictionary
280
     1
281
     1
  3
ADSK_XREC_LAYER_RECONCILED
360
15C
  0
DICTIONARY
  5
6E
330
6D
100
AcDbDictionary
280
     1
281
     1
  3
ADSK_XREC_LAYER_RECONCILED
360
6F
  0
DICTIONARY
  5
163
330
162
100
AcDbDictionary
280
     1
281
     1
  3
ADSK_XREC_LAYER_RECONCILED
360
164
  0
DICTIONARY
  5
3
330
2
100
AcDbDictionary
280
     1
281
     1
  3
ACAD_SORTENTS
360
16B
  0
DICTIONARY
  5
3F
102
{ACAD_REACTORS
330
B
102
}
330
B
100
AcDbDictionary
281
     1
  0
DICTIONARY
  5
16C
102
{ACAD_REACTORS
330
B
102
}
330
B
100
AcDbDictionary
280
     1
281
     1
  3
Ò»²ãÖùÆ½ÃæÍ¼$0$7#·¿×ÜÌåµÚÒ»´ÎÌá×Ê08.18_t3$0$__¸²¸Ç_A10-Æ½Ãæ-UP_TEN24V7I$0$oint-6
360
16D
  3
!地下室$0$1#+0529_t3$0$oint-6
360
16E
  0
DICTIONARY
  5
3A
102
{ACAD_REACTORS
330
B
102
}
330
B
100
AcDbDictionary
281
     1
  0
DICTIONARY
  5
14
102
{ACAD_REACTORS
330
B
102
}
330
B
100
AcDbDictionary
281
     1
  3
Model
350
13
  3
布局1
350
1A
  0
DICTIONARY
  5
D
102
{ACAD_REACTORS
330
B
102
}
330
B
100
AcDbDictionary
281
     1
  3
ByBlock
350
3E
  3
ByLayer
350
3D
  3
Global
350
C
  0
DICTIONARY
  5
42
102
{ACAD_REACTORS
330
B
102
}
330
B
100
AcDbDictionary
281
     1
  0
DICTIONARY
  5
3B
102
{ACAD_REACTORS
330
B
102
}
330
B
100
AcDbDictionary
281
     1
  3
Standard
350
45
  0
DICTIONARY
  5
3C
102
{ACAD_REACTORS
330
B
102
}
330
B
100
AcDbDictionary
281
     1
  0
ACDBDICTIONARYWDFLT
  5
A
102
{ACAD_REACTORS
330
B
102
}
330
B
100
AcDbDictionary
281
     1
  3
Normal
350
9
100
AcDbDictionaryWithDefault
340
9
  0
DICTIONARY
  5
40
102
{ACAD_REACTORS
330
B
102
}
330
B
100
AcDbDictionary
281
     1
  3
*A1
350
4A
  3
*A10
350
4B
  3
*A11
350
4C
  3
*A12
350
4D
  3
*A13
350
4E
  3
*A14
350
4F
  3
*A15
350
50
  3
*A16
350
51
  3
*A2
350
52
  3
*A3
350
53
  3
*A4
350
54
  3
*A5
350
55
  3
*A6
350
56
  3
*A7
350
57
  3
*A8
350
58
  3
*A9
350
59
  3
A0
350
5A
  3
A1
350
5B
  3
A2
350
5C
  3
A3
350
5D
  3
A4
350
5E
  3
A5
350
5F
  3
A6
350
60
  3
A7
350
61
  3
A8
350
62
  3
A9
350
63
  3
B0
350
64
  3
B1
350
65
  3
B2
350
66
  3
B3
350
67
  3
B4
350
68
  3
B5
350
69
  3
B6
350
6A
  3
B7
350
6B
  0
DICTIONARY
  5
41
102
{ACAD_REACTORS
330
B
102
}
330
B
100
AcDbDictionary
281
     1
  3
Standard
350
46
  0
DICTIONARY
  5
2C
102
{ACAD_REACTORS
330
B
102
}
330
B
100
AcDbDictionary
281
     1
  3
2dWireframe
350
2B
  3
Realistic
350
48
  3
Wireframe
350
49
  0
XRECORD
  5
179
102
{ACAD_REACTORS
330
B
102
}
330
B
100
AcDbXrecord
280
     1
 90
        1
330
46
  0
DICTIONARY
  5
16F
102
{ACAD_REACTORS
330
B
102
}
330
B
100
AcDbDictionary
281
     1
  3
CANNOSCALE
350
175
  3
CMLEADERSTYLE
350
171
  3
CTABLESTYLE
350
170
  3
CVIEWDETAILSTYLE
350
172
  3
CVIEWSECTIONSTYLE
350
173
  3
LAYEREVAL
350
176
  3
LAYERNOTIFY
350
177
  3
MSLTSCALE
350
174
  0
DICTIONARY
  5
1D
102
{ACAD_REACTORS
330
1C
102
}
330
1C
100
AcDbDictionary
281
     1
  0
DICTIONARY
  5
1E
102
{ACAD_REACTORS
330
1C
102
}
330
1C
100
AcDbDictionary
281
     1
  0
DICTIONARY
  5
1F
102
{ACAD_REACTORS
330
1C
102
}
330
1C
100
AcDbDictionary
281
     1
1001
ACAD
1000
All
  0
XRECORD
  5
8
102
{ACAD_REACTORS
330
7
102
}
330
7
100
AcDbXrecord
280
     1
290
     1
  0
XRECORD
  5
169
102
{ACAD_REACTORS
330
168
102
}
330
168
100
AcDbXrecord
280
     1
290
     0
  0
XRECORD
  5
7A
102
{ACAD_REACTORS
330
79
102
}
330
79
100
AcDbXrecord
280
     1
290
     0
  0
XRECORD
  5
74
102
{ACAD_REACTORS
330
73
102
}
330
73
100
AcDbXrecord
280
     1
290
     0
  0
XRECORD
  5
15C
102
{ACAD_REACTORS
330
15B
102
}
330
15B
100
AcDbXrecord
280
     1
290
     0
  0
XRECORD
  5
6F
102
{ACAD_REACTORS
330
6E
102
}
330
6E
100
AcDbXrecord
280
     1
290
     0
  0
XRECORD
  5
164
102
{ACAD_REACTORS
330
163
102
}
330
163
100
AcDbXrecord
280
     1
290
     0
  0
SORTENTSTABLE
  5
16B
102
{ACAD_REACTORS
330
3
102
}
330
3
100
AcDbSortentsTable
330
2
  0
DICTIONARY
  5
16D
102
{ACAD_REACTORS
330
16C
102
}
330
16C
100
AcDbDictionary
281
     1
  3
ByBlock
350
3E
  3
ByLayer
350
3D
  3
Global
350
C
  0
DICTIONARY
  5
16E
102
{ACAD_REACTORS
330
16C
102
}
330
16C
100
AcDbDictionary
281
     1
  3
ByBlock
350
3E
  3
ByLayer
350
3D
  3
Global
350
C
  0
LAYOUT
  5
13
102
{ACAD_XDICTIONARY
360
15
102
}
102
{ACAD_REACTORS
330
14
102
}
330
14
100
AcDbPlotSettings
  1

  2
Adobe PDF
  4
A4
  6

 40
3.174999952316281
 41
3.174999952316281
 42
3.175003051757812
 43
3.17498779296875
 44
209.9733276367186
 45
297.0318298339844
 46
0.0
 47
0.0
 48
116582.0249887788
 49
-57274.12988082906
140
137582.0249887788
141
-27574.12988082906
142
1.0
143
103.1316036013356
 70
 11952
 72
     1
 73
     0
 74
     4
  7
acad.ctb
 75
     0
147
0.0096963487920307
 76
     0
 77
     2
 78
   300
148
-116582.0249887788
149
57274.12988082906
100
AcDbLayout
  1
Model
 70
     1
 71
     0
 10
0.0
 20
0.0
 11
12.0
 21
9.0
 12
0.0
 22
0.0
 32
0.0
 14
-5066.204181134912
 24
-765121.6180760778
 34
-0.0000000000000009
 15
173002.9431036824
 25
-520028.5014759089
 35
0.0000000000000009
146
0.0
 13
0.0
 23
0.0
 33
0.0
 16
1.0
 26
0.0
 36
0.0
 17
0.0
 27
1.0
 37
0.0
 76
     0
330
2
331
2A
1001
ACAD_PSEXT
1000
Adobe PDF
1000
Adobe PDF Converter
1000
My Documents
1000

1070
     0
  0
LAYOUT
  5
1A
102
{ACAD_REACTORS
330
14
102
}
330
14
100
AcDbPlotSettings
  1

  2
None
  4

  6

 40
0.0
 41
0.0
 42
0.0
 43
0.0
 44
0.0
 45
0.0
 46
0.0
 47
0.0
 48
0.0
 49
0.0
140
0.0
141
0.0
142
1.0
143
1.0
 70
   688
 72
     0
 73
     0
 74
     5
  7
acad.ctb
 75
    16
147
1.0
 76
     0
 77
     2
 78
   300
148
0.0
149
0.0
100
AcDbLayout
  1
布局1
 70
     1
 71
     1
 10
0.0
 20
0.0
 11
12.0
 21
9.0
 12
0.0
 22
0.0
 32
0.0
 14
0.0
 24
0.0
 34
0.0
 15
0.0
 25
0.0
 35
0.0
146
0.0
 13
0.0
 23
0.0
 33
0.0
 16
1.0
 26
0.0
 36
0.0
 17
0.0
 27
1.0
 37
0.0
 76
     0
330
17
  0
MATERIAL
  5
3E
102
{ACAD_REACTORS
330
D
102
}
330
D
100
AcDbMaterial
  1
ByBlock
 94
       63
  0
MATERIAL
  5
3D
102
{ACAD_REACTORS
330
D
102
}
330
D
100
AcDbMaterial
  1
ByLayer
 94
       63
  0
MATERIAL
  5
C
102
{ACAD_REACTORS
330
D
102
}
330
D
100
AcDbMaterial
  1
Global
 94
       63
  0
MLINESTYLE
  5
45
102
{ACAD_REACTORS
330
3B
102
}
330
3B
100
AcDbMlineStyle
  2
STANDARD
 70
     0
  3

 62
   256
 51
90.0
 52
90.0
 71
     2
 49
0.5
 62
   256
  6
BYLAYER
 49
-0.5
 62
   256
  6
BYLAYER
  0
ACDBPLACEHOLDER
  5
9
102
{ACAD_REACTORS
330
A
102
}
330
A
  0
SCALE
  5
4A
102
{ACAD_REACTORS
330
40
102
}
330
40
100
AcDbScale
 70
     0
300
1:2_XREF
140
1.0
141
2.0
290
     0
  0
SCALE
  5
4B
102
{ACAD_REACTORS
330
40
102
}
330
40
100
AcDbScale
 70
     0
300
1:40_XREF
140
1.0
141
40.0
290
     0
  0
SCALE
  5
4C
102
{ACAD_REACTORS
330
40
102
}
330
40
100
AcDbScale
 70
     0
300
1:50_XREF
140
1.0
141
50.0
290
     0
  0
SCALE
  5
4D
102
{ACAD_REACTORS
330
40
102
}
330
40
100
AcDbScale
 70
     0
300
1:100_XREF
140
1.0
141
100.0
290
     0
  0
SCALE
  5
4E
102
{ACAD_REACTORS
330
40
102
}
330
40
100
AcDbScale
 70
     0
300
2:1_XREF
140
2.0
141
1.0
290
     0
  0
SCALE
  5
4F
102
{ACAD_REACTORS
330
40
102
}
330
40
100
AcDbScale
 70
     0
300
4:1_XREF
140
4.0
141
1.0
290
     0
  0
SCALE
  5
50
102
{ACAD_REACTORS
330
40
102
}
330
40
100
AcDbScale
 70
     0
300
8:1_XREF
140
8.0
141
1.0
290
     0
  0
SCALE
  5
51
102
{ACAD_REACTORS
330
40
102
}
330
40
100
AcDbScale
 70
     0
300
10:1_XREF
140
10.0
141
1.0
290
     0
  0
SCALE
  5
52
102
{ACAD_REACTORS
330
40
102
}
330
40
100
AcDbScale
 70
     0
300
100:1_XREF
140
100.0
141
1.0
290
     0
  0
SCALE
  5
53
102
{ACAD_REACTORS
330
40
102
}
330
40
100
AcDbScale
 70
     0
300
1:4_XREF
140
1.0
141
4.0
290
     0
  0
SCALE
  5
54
102
{ACAD_REACTORS
330
40
102
}
330
40
100
AcDbScale
 70
     0
300
1:5_XREF
140
1.0
141
5.0
290
     0
  0
SCALE
  5
55
102
{ACAD_REACTORS
330
40
102
}
330
40
100
AcDbScale
 70
     0
300
1:8_XREF
140
1.0
141
8.0
290
     0
  0
SCALE
  5
56
102
{ACAD_REACTORS
330
40
102
}
330
40
100
AcDbScale
 70
     0
300
1:10_XREF
140
1.0
141
10.0
290
     0
  0
SCALE
  5
57
102
{ACAD_REACTORS
330
40
102
}
330
40
100
AcDbScale
 70
     0
300
1:16_XREF
140
1.0
141
16.0
290
     0
  0
SCALE
  5
58
102
{ACAD_REACTORS
330
40
102
}
330
40
100
AcDbScale
 70
     0
300
1:20_XREF
140
1.0
141
20.0
290
     0
  0
SCALE
  5
59
102
{ACAD_REACTORS
330
40
102
}
330
40
100
AcDbScale
 70
     0
300
1:30_XREF
140
1.0
141
30.0
290
     0
  0
SCALE
  5
5A
102
{ACAD_REACTORS
330
40
102
}
330
40
100
AcDbScale
 70
     0
300
1:100
140
1.0
141
1.0
290
     1
  0
SCALE
  5
5B
102
{ACAD_REACTORS
330
40
102
}
330
40
100
AcDbScale
 70
     0
300
1:1
140
1.0
141
1.0
290
     0
  0
SCALE
  5
5C
102
{ACAD_REACTORS
330
40
102
}
330
40
100
AcDbScale
 70
     0
300
1/128" = 1'-0"
140
0.0078125
141
12.0
290
     0
  0
SCALE
  5
5D
102
{ACAD_REACTORS
330
40
102
}
330
40
100
AcDbScale
 70
     0
300
1/64" = 1'-0"
140
0.015625
141
12.0
290
     0
  0
SCALE
  5
5E
102
{ACAD_REACTORS
330
40
102
}
330
40
100
AcDbScale
 70
     0
300
1/32" = 1'-0"
140
0.03125
141
12.0
290
     0
  0
SCALE
  5
5F
102
{ACAD_REACTORS
330
40
102
}
330
40
100
AcDbScale
 70
     0
300
1/16" = 1'-0"
140
0.0625
141
12.0
290
     0
  0
SCALE
  5
60
102
{ACAD_REACTORS
330
40
102
}
330
40
100
AcDbScale
 70
     0
300
3/32" = 1'-0"
140
0.09375
141
12.0
290
     0
  0
SCALE
  5
61
102
{ACAD_REACTORS
330
40
102
}
330
40
100
AcDbScale
 70
     0
300
1/8" = 1'-0"
140
0.125
141
12.0
290
     0
  0
SCALE
  5
62
102
{ACAD_REACTORS
330
40
102
}
330
40
100
AcDbScale
 70
     0
300
3/16" = 1'-0"
140
0.1875
141
12.0
290
     0
  0
SCALE
  5
63
102
{ACAD_REACTORS
330
40
102
}
330
40
100
AcDbScale
 70
     0
300
1/4" = 1'-0"
140
0.25
141
12.0
290
     0
  0
SCALE
  5
64
102
{ACAD_REACTORS
330
40
102
}
330
40
100
AcDbScale
 70
     0
300
3/8" = 1'-0"
140
0.375
141
12.0
290
     0
  0
SCALE
  5
65
102
{ACAD_REACTORS
330
40
102
}
330
40
100
AcDbScale
 70
     0
300
1/2" = 1'-0"
140
0.5
141
12.0
290
     0
  0
SCALE
  5
66
102
{ACAD_REACTORS
330
40
102
}
330
40
100
AcDbScale
 70
     0
300
3/4" = 1'-0"
140
0.75
141
12.0
290
     0
  0
SCALE
  5
67
102
{ACAD_REACTORS
330
40
102
}
330
40
100
AcDbScale
 70
     0
300
1" = 1'-0"
140
1.0
141
12.0
290
     0
  0
SCALE
  5
68
102
{ACAD_REACTORS
330
40
102
}
330
40
100
AcDbScale
 70
     0
300
1-1/2" = 1'-0"
140
1.5
141
12.0
290
     0
  0
SCALE
  5
69
102
{ACAD_REACTORS
330
40
102
}
330
40
100
AcDbScale
 70
     0
300
3" = 1'-0"
140
3.0
141
12.0
290
     0
  0
SCALE
  5
6A
102
{ACAD_REACTORS
330
40
102
}
330
40
100
AcDbScale
 70
     0
300
6" = 1'-0"
140
6.0
141
12.0
290
     0
  0
SCALE
  5
6B
102
{ACAD_REACTORS
330
40
102
}
330
40
100
AcDbScale
 70
     0
300
1'-0" = 1'-0"
140
12.0
141
12.0
290
     0
  0
TABLESTYLE
  5
46
102
{ACAD_XDICTIONARY
360
47
102
}
102
{ACAD_REACTORS
330
41
102
}
330
41
100
AcDbTableStyle
280
     0
  3
Standard
 70
     0
 71
     0
 40
0.06
 41
0.06
280
     0
281
     0
  7
Standard
140
0.18
170
     2
 62
     0
 63
     7
283
     0
 90
      512
 91
        0
  1

274
    -2
284
     1
 64
     0
275
    -2
285
     1
 65
     0
276
    -2
286
     1
 66
     0
277
    -2
287
     1
 67
     0
278
    -2
288
     1
 68
     0
279
    -2
289
     1
 69
     0
  7
Standard
140
0.25
170
     5
 62
     0
 63
     7
283
     0
 90
      512
 91
        0
  1

274
    -2
284
     1
 64
     0
275
    -2
285
     1
 65
     0
276
    -2
286
     1
 66
     0
277
    -2
287
     1
 67
     0
278
    -2
288
     1
 68
     0
279
    -2
289
     1
 69
     0
  7
Standard
140
0.18
170
     5
 62
     0
 63
     7
283
     0
 90
      512
 91
        0
  1

274
    -2
284
     1
 64
     0
275
    -2
285
     1
 65
     0
276
    -2
286
     1
 66
     0
277
    -2
287
     1
 67
     0
278
    -2
288
     1
 68
     0
279
    -2
289
     1
 69
     0
  0
VISUALSTYLE
  5
2B
102
{ACAD_REACTORS
330
2C
102
}
330
2C
100
AcDbVisualStyle
  2
2dWireframe
 70
     4
177
     3
291
     0
 70
    58
 90
        0
176
     1
 90
        2
176
     1
 90
        1
176
     1
 90
        0
176
     1
 40
0.6
176
     1
 40
30.0
176
     1
 62
     7
420
 16777215
176
     1
 90
        1
176
     1
 90
        4
176
     1
 62
     7
176
     1
 62
   257
176
     1
 90
        1
176
     1
 90
        1
176
     1
 40
1.0
176
     1
 90
        0
176
     1
 62
   257
176
     1
 40
1.0
176
     1
 90
        1
176
     1
 90
        6
176
     1
 90
        2
176
     1
 62
     7
176
     1
 90
        5
176
     1
 90
        0
176
     1
 90
        0
176
     1
290
     0
176
     1
 90
        1
176
     1
 40
0.0
176
     1
 90
        0
176
     1
290
     1
176
     1
290
     1
176
     1
290
     0
176
     1
290
     0
176
     1
290
     0
176
     1
290
     0
176
     1
290
     0
176
     1
290
     0
176
     1
290
     0
176
     1
 90
       50
176
     1
 40
0.0
176
     1
 40
1.0
176
     1
 90
        0
176
     1
 62
    18
176
     1
 90
       50
176
     1
 90
        3
176
     1
 62
     5
420
      255
176
     1
290
     0
176
     1
 90
       50
176
     1
 90
       50
176
     1
 90
       50
176
     1
290
     0
176
     1
 90
       50
176
     1
 62
   256
176
     0
 40
1.0
176
     0
 90
        2
176
     1
  1
strokes_ogs.tif
176
     1
290
     0
176
     1
 40
1.0
176
     1
 40
1.0
176
     1
  0
VISUALSTYLE
  5
48
102
{ACAD_REACTORS
330
2C
102
}
330
2C
100
AcDbVisualStyle
  2
Realistic
 70
     8
177
     3
291
     0
 70
    58
 90
        2
176
     1
 90
        2
176
     1
 90
        1
176
     1
 90
        0
176
     1
 40
0.6
176
     1
 40
30.0
176
     1
 62
     7
420
 16777215
176
     1
 90
        1
176
     1
 90
        0
176
     1
 62
     7
176
     1
 62
   257
176
     1
 90
        1
176
     1
 90
        1
176
     1
 40
1.0
176
     1
 90
        8
176
     1
 62
     8
420
  7895160
176
     1
 40
1.0
176
     1
 90
        1
176
     1
 90
        6
176
     1
 90
        2
176
     1
 62
     7
176
     1
 90
        5
176
     1
 90
        0
176
     1
 90
        0
176
     1
290
     0
176
     1
 90
       13
176
     1
 40
0.0
176
     1
 90
        0
176
     1
290
     0
176
     1
290
     1
176
     1
290
     1
176
     1
290
     0
176
     1
290
     0
176
     1
290
     0
176
     1
290
     0
176
     1
290
     0
176
     1
290
     0
176
     1
 90
       50
176
     1
 40
0.0
176
     1
 40
1.0
176
     1
 90
        0
176
     1
 62
    18
176
     1
 90
       50
176
     1
 90
        3
176
     1
 62
     5
420
      255
176
     1
290
     0
176
     1
 90
       50
176
     1
 90
       50
176
     1
 90
       50
176
     1
290
     0
176
     1
 90
       50
176
     1
 62
   256
176
     0
 40
1.0
176
     0
 90
        2
176
     1
  1
strokes_ogs.tif
176
     1
290
     0
176
     1
 40
1.0
176
     1
 40
1.0
176
     1
  0
VISUALSTYLE
  5
49
102
{ACAD_REACTORS
330
2C
102
}
330
2C
100
AcDbVisualStyle
  2
Wireframe
 70
     5
177
     3
291
     0
 70
    58
 90
        0
176
     1
 90
        2
176
     1
 90
        0
176
     1
 90
        0
176
     1
 40
0.6
176
     1
 40
30.0
176
     1
 62
     7
420
 16777215
176
     1
 90
        1
176
     1
 90
        4
176
     1
 62
     7
176
     1
 62
   257
176
     1
 90
        1
176
     1
 90
        1
176
     1
 40
1.0
176
     1
 90
        0
176
     1
 62
   257
176
     1
 40
1.0
176
     1
 90
        1
176
     1
 90
        6
176
     1
 90
        2
176
     1
 62
     7
176
     1
 90
        3
176
     1
 90
        0
176
     1
 90
        0
176
     1
290
     0
176
     1
 90
        1
176
     1
 40
0.0
176
     1
 90
        0
176
     1
290
     0
176
     1
290
     1
176
     1
290
     1
176
     1
290
     0
176
     1
290
     0
176
     1
290
     0
176
     1
290
     0
176
     1
290
     0
176
     1
290
     0
176
     1
 90
       50
176
     1
 40
0.0
176
     1
 40
1.0
176
     1
 90
        0
176
     1
 62
    18
176
     1
 90
       50
176
     1
 90
        3
176
     1
 62
     5
420
      255
176
     1
290
     0
176
     1
 90
       50
176
     1
 90
       50
176
     1
 90
       50
176
     1
290
     0
176
     1
 90
       50
176
     1
 62
   256
176
     0
 40
1.0
176
     0
 90
        2
176
     1
  1
strokes_ogs.tif
176
     1
290
     0
176
     1
 40
1.0
176
     1
 40
1.0
176
     1
  0
DICTIONARYVAR
  5
175
102
{ACAD_REACTORS
330
16F
102
}
330
16F
100
DictionaryVariables
280
     0
  1
1:100
  0
DICTIONARYVAR
  5
171
102
{ACAD_REACTORS
330
16F
102
}
330
16F
100
DictionaryVariables
280
     0
  1
STANDARD
  0
DICTIONARYVAR
  5
170
102
{ACAD_REACTORS
330
16F
102
}
330
16F
100
DictionaryVariables
280
     0
  1
STANDARD
  0
DICTIONARYVAR
  5
172
102
{ACAD_REACTORS
330
16F
102
}
330
16F
100
DictionaryVariables
280
     0
  1

  0
DICTIONARYVAR
  5
173
102
{ACAD_REACTORS
330
16F
102
}
330
16F
100
DictionaryVariables
280
     0
  1

  0
DICTIONARYVAR
  5
176
102
{ACAD_REACTORS
330
16F
102
}
330
16F
100
DictionaryVariables
280
     0
  1
1
  0
DICTIONARYVAR
  5
177
102
{ACAD_REACTORS
330
16F
102
}
330
16F
100
DictionaryVariables
280
     0
  1
15
  0
DICTIONARYVAR
  5
174
102
{ACAD_REACTORS
330
16F
102
}
330
16F
100
DictionaryVariables
280
     0
  1
0
  0
MATERIAL
  5
3E
102
{ACAD_REACTORS
330
D
102
}
330
D
100
AcDbMaterial
  1
ByBlock
 94
       63
  0
MATERIAL
  5
3D
102
{ACAD_REACTORS
330
D
102
}
330
D
100
AcDbMaterial
  1
ByLayer
 94
       63
  0
MATERIAL
  5
C
102
{ACAD_REACTORS
330
D
102
}
330
D
100
AcDbMaterial
  1
Global
 94
       63
  0
MATERIAL
  5
3E
102
{ACAD_REACTORS
330
D
102
}
330
D
100
AcDbMaterial
  1
ByBlock
 94
       63
  0
MATERIAL
  5
3D
102
{ACAD_REACTORS
330
D
102
}
330
D
100
AcDbMaterial
  1
ByLayer
 94
       63
  0
MATERIAL
  5
C
102
{ACAD_REACTORS
330
D
102
}
330
D
100
AcDbMaterial
  1
Global
 94
       63
  0
DICTIONARY
  5
15
330
13
100
AcDbDictionary
280
     1
281
     1
  0
DICTIONARY
  5
47
330
46
100
AcDbDictionary
280
     1
281
     1
  3
ACAD_ROUNDTRIP_2008_TABLESTYLE_CELLSTYLEMAP
360
178
  0
CELLSTYLEMAP
  5
178
102
{ACAD_REACTORS
330
47
102
}
330
47
100
AcDbCellStyleMap
 90
        3
300
CELLSTYLE
  1
TABLEFORMAT_BEGIN
 90
        5
170
     1
 91
        0
 92
    32768
 62
   257
 93
        1
300
CONTENTFORMAT
  1
CONTENTFORMAT_BEGIN
 90
        0
 91
        0
 92
      512
 93
        0
300

 40
0.0
140
1.0
 94
        5
 62
     0
340
22
144
0.25
309
CONTENTFORMAT_END
171
     1
301
MARGIN
  1
CELLMARGIN_BEGIN
 40
0.06
 40
0.06
 40
0.06
 40
0.06
 40
0.18
 40
0.18
309
CELLMARGIN_END
 94
        6
 95
        1
302
GRIDFORMAT
  1
GRIDFORMAT_BEGIN
 90
        0
 91
        1
 62
     0
 92
       -2
340
0
 93
        0
 40
0.045
309
GRIDFORMAT_END
 95
        2
302
GRIDFORMAT
  1
GRIDFORMAT_BEGIN
 90
        0
 91
        1
 62
     0
 92
       -2
340
0
 93
        0
 40
0.045
309
GRIDFORMAT_END
 95
        4
302
GRIDFORMAT
  1
GRIDFORMAT_BEGIN
 90
        0
 91
        1
 62
     0
 92
       -2
340
0
 93
        0
 40
0.045
309
GRIDFORMAT_END
 95
        8
302
GRIDFORMAT
  1
GRIDFORMAT_BEGIN
 90
        0
 91
        1
 62
     0
 92
       -2
340
0
 93
        0
 40
0.045
309
GRIDFORMAT_END
 95
       16
302
GRIDFORMAT
  1
GRIDFORMAT_BEGIN
 90
        0
 91
        1
 62
     0
 92
       -2
340
0
 93
        0
 40
0.045
309
GRIDFORMAT_END
 95
       32
302
GRIDFORMAT
  1
GRIDFORMAT_BEGIN
 90
        0
 91
        1
 62
     0
 92
       -2
340
0
 93
        0
 40
0.045
309
GRIDFORMAT_END
309
TABLEFORMAT_END
  1
CELLSTYLE_BEGIN
 90
        1
 91
        1
300
_TITLE
309
CELLSTYLE_END
300
CELLSTYLE
  1
TABLEFORMAT_BEGIN
 90
        5
170
     1
 91
        0
 92
        0
 62
   257
 93
        1
300
CONTENTFORMAT
  1
CONTENTFORMAT_BEGIN
 90
        0
 91
        0
 92
      512
 93
        0
300

 40
0.0
140
1.0
 94
        5
 62
     0
340
22
144
0.18
309
CONTENTFORMAT_END
171
     1
301
MARGIN
  1
CELLMARGIN_BEGIN
 40
0.06
 40
0.06
 40
0.06
 40
0.06
 40
0.18
 40
0.18
309
CELLMARGIN_END
 94
        6
 95
        1
302
GRIDFORMAT
  1
GRIDFORMAT_BEGIN
 90
        0
 91
        1
 62
     0
 92
       -2
340
0
 93
        0
 40
0.045
309
GRIDFORMAT_END
 95
        2
302
GRIDFORMAT
  1
GRIDFORMAT_BEGIN
 90
        0
 91
        1
 62
     0
 92
       -2
340
0
 93
        0
 40
0.045
309
GRIDFORMAT_END
 95
        4
302
GRIDFORMAT
  1
GRIDFORMAT_BEGIN
 90
        0
 91
        1
 62
     0
 92
       -2
340
0
 93
        0
 40
0.045
309
GRIDFORMAT_END
 95
        8
302
GRIDFORMAT
  1
GRIDFORMAT_BEGIN
 90
        0
 91
        1
 62
     0
 92
       -2
340
0
 93
        0
 40
0.045
309
GRIDFORMAT_END
 95
       16
302
GRIDFORMAT
  1
GRIDFORMAT_BEGIN
 90
        0
 91
        1
 62
     0
 92
       -2
340
0
 93
        0
 40
0.045
309
GRIDFORMAT_END
 95
       32
302
GRIDFORMAT
  1
GRIDFORMAT_BEGIN
 90
        0
 91
        1
 62
     0
 92
       -2
340
0
 93
        0
 40
0.045
309
GRIDFORMAT_END
309
TABLEFORMAT_END
  1
CELLSTYLE_BEGIN
 90
        2
 91
        1
300
_HEADER
309
CELLSTYLE_END
300
CELLSTYLE
  1
TABLEFORMAT_BEGIN
 90
        5
170
     1
 91
        0
 92
        0
 62
   257
 93
        1
300
CONTENTFORMAT
  1
CONTENTFORMAT_BEGIN
 90
        0
 91
        0
 92
      512
 93
        0
300

 40
0.0
140
1.0
 94
        2
 62
     0
340
22
144
0.18
309
CONTENTFORMAT_END
171
     1
301
MARGIN
  1
CELLMARGIN_BEGIN
 40
0.06
 40
0.06
 40
0.06
 40
0.06
 40
0.18
 40
0.18
309
CELLMARGIN_END
 94
        6
 95
        1
302
GRIDFORMAT
  1
GRIDFORMAT_BEGIN
 90
        0
 91
        1
 62
     0
 92
       -2
340
0
 93
        0
 40
0.045
309
GRIDFORMAT_END
 95
        2
302
GRIDFORMAT
  1
GRIDFORMAT_BEGIN
 90
        0
 91
        1
 62
     0
 92
       -2
340
0
 93
        0
 40
0.045
309
GRIDFORMAT_END
 95
        4
302
GRIDFORMAT
  1
GRIDFORMAT_BEGIN
 90
        0
 91
        1
 62
     0
 92
       -2
340
0
 93
        0
 40
0.045
309
GRIDFORMAT_END
 95
        8
302
GRIDFORMAT
  1
GRIDFORMAT_BEGIN
 90
        0
 91
        1
 62
     0
 92
       -2
340
0
 93
        0
 40
0.045
309
GRIDFORMAT_END
 95
       16
302
GRIDFORMAT
  1
GRIDFORMAT_BEGIN
 90
        0
 91
        1
 62
     0
 92
       -2
340
0
 93
        0
 40
0.045
309
GRIDFORMAT_END
 95
       32
302
GRIDFORMAT
  1
GRIDFORMAT_BEGIN
 90
        0
 91
        1
 62
     0
 92
       -2
340
0
 93
        0
 40
0.045
309
GRIDFORMAT_END
309
TABLEFORMAT_END
  1
CELLSTYLE_BEGIN
 90
        3
 91
        2
300
_DATA
309
CELLSTYLE_END
  0
ENDSEC
  0
EOF
